solid OpenSCAD_Model
  facet normal -0.866025 -0.5 0
    outer loop
      vertex 11.75 0 32
      vertex 5.875 10.1758 41.861
      vertex 5.875 10.1758 32
    endloop
  endfacet
  facet normal -0.866025 -0.5 0
    outer loop
      vertex 5.875 10.1758 41.861
      vertex 11.75 0 32
      vertex 11.75 0 41.861
    endloop
  endfacet
  facet normal 0.866025 -0.5 0
    outer loop
      vertex -11.75 0 41.861
      vertex -5.875 10.1758 32
      vertex -5.875 10.1758 41.861
    endloop
  endfacet
  facet normal 0.866025 -0.5 0
    outer loop
      vertex -5.875 10.1758 32
      vertex -11.75 0 41.861
      vertex -11.75 0 32
    endloop
  endfacet
  facet normal 0 -1 0
    outer loop
      vertex -5.875 10.1758 32
      vertex 5.875 10.1758 41.861
      vertex -5.875 10.1758 41.861
    endloop
  endfacet
  facet normal 0 -1 -0
    outer loop
      vertex 5.875 10.1758 41.861
      vertex -5.875 10.1758 32
      vertex 5.875 10.1758 32
    endloop
  endfacet
  facet normal -0.866025 0.5 0
    outer loop
      vertex 5.875 -10.1758 32
      vertex 11.75 0 41.861
      vertex 11.75 0 32
    endloop
  endfacet
  facet normal -0.866025 0.5 0
    outer loop
      vertex 11.75 0 41.861
      vertex 5.875 -10.1758 32
      vertex 5.875 -10.1758 41.861
    endloop
  endfacet
  facet normal 0 0 1
    outer loop
      vertex 11.75 0 32
      vertex 6.18187 2.00861 32
      vertex 6.5 0 32
    endloop
  endfacet
  facet normal -0 0 1
    outer loop
      vertex 5.25861 3.8206 32
      vertex 11.75 0 32
      vertex 5.875 10.1758 32
    endloop
  endfacet
  facet normal 0 0 1
    outer loop
      vertex 11.75 0 32
      vertex 5.25861 3.8206 32
      vertex 6.18187 2.00861 32
    endloop
  endfacet
  facet normal 0 0 1
    outer loop
      vertex 5.875 10.1758 32
      vertex 3.8206 5.25861 32
      vertex 5.25861 3.8206 32
    endloop
  endfacet
  facet normal 0 0 1
    outer loop
      vertex 5.875 10.1758 32
      vertex 2.00861 6.18187 32
      vertex 3.8206 5.25861 32
    endloop
  endfacet
  facet normal 0 0 1
    outer loop
      vertex 5.875 10.1758 32
      vertex 0 6.5 32
      vertex 2.00861 6.18187 32
    endloop
  endfacet
  facet normal -0 0 1
    outer loop
      vertex -5.875 10.1758 32
      vertex 0 6.5 32
      vertex 5.875 10.1758 32
    endloop
  endfacet
  facet normal 0 0 1
    outer loop
      vertex 0 6.5 32
      vertex -5.875 10.1758 32
      vertex -2.00861 6.18187 32
    endloop
  endfacet
  facet normal 0 0 1
    outer loop
      vertex -5.875 10.1758 32
      vertex -3.8206 5.25861 32
      vertex -2.00861 6.18187 32
    endloop
  endfacet
  facet normal 0 0 1
    outer loop
      vertex -5.875 10.1758 32
      vertex -5.25861 3.8206 32
      vertex -3.8206 5.25861 32
    endloop
  endfacet
  facet normal 0 0 1
    outer loop
      vertex -11.75 0 32
      vertex -5.25861 3.8206 32
      vertex -5.875 10.1758 32
    endloop
  endfacet
  facet normal 0 0 1
    outer loop
      vertex -5.25861 3.8206 32
      vertex -11.75 0 32
      vertex -6.18187 2.00861 32
    endloop
  endfacet
  facet normal 0 0 0
    outer loop
      vertex -6.5 0 32
      vertex -6.5 -1.22461e-015 32
      vertex -6.5 -6.12303e-016 32
    endloop
  endfacet
  facet normal 0 0 1
    outer loop
      vertex -6.5 0 32
      vertex -11.75 0 32
      vertex -6.5 -1.22461e-015 32
    endloop
  endfacet
  facet normal 0 0 1
    outer loop
      vertex -6.18187 2.00861 32
      vertex -11.75 0 32
      vertex -6.5 0 32
    endloop
  endfacet
  facet normal 0 0 1
    outer loop
      vertex 6.5 -6.12303e-016 32
      vertex 11.75 0 32
      vertex 6.5 0 32
    endloop
  endfacet
  facet normal 0 0 1
    outer loop
      vertex 6.5 -1.22461e-015 32
      vertex 11.75 0 32
      vertex 6.5 -6.12303e-016 32
    endloop
  endfacet
  facet normal 0 0 1
    outer loop
      vertex 6.18187 -2.00861 32
      vertex 11.75 0 32
      vertex 6.5 -1.22461e-015 32
    endloop
  endfacet
  facet normal 0 0 1
    outer loop
      vertex 5.25861 -3.8206 32
      vertex 11.75 0 32
      vertex 6.18187 -2.00861 32
    endloop
  endfacet
  facet normal 0 0 1
    outer loop
      vertex 11.75 0 32
      vertex 5.25861 -3.8206 32
      vertex 5.875 -10.1758 32
    endloop
  endfacet
  facet normal -0 0 1
    outer loop
      vertex 3.8206 -5.25861 32
      vertex 5.875 -10.1758 32
      vertex 5.25861 -3.8206 32
    endloop
  endfacet
  facet normal -0 0 1
    outer loop
      vertex 2.00861 -6.18187 32
      vertex 5.875 -10.1758 32
      vertex 3.8206 -5.25861 32
    endloop
  endfacet
  facet normal -0 0 1
    outer loop
      vertex 0 -6.5 32
      vertex 5.875 -10.1758 32
      vertex 2.00861 -6.18187 32
    endloop
  endfacet
  facet normal 0 0 1
    outer loop
      vertex -5.875 -10.1758 32
      vertex 0 -6.5 32
      vertex -2.00861 -6.18187 32
    endloop
  endfacet
  facet normal 0 0 1
    outer loop
      vertex 0 -6.5 32
      vertex -5.875 -10.1758 32
      vertex 5.875 -10.1758 32
    endloop
  endfacet
  facet normal 0 0 1
    outer loop
      vertex -3.8206 -5.25861 32
      vertex -5.875 -10.1758 32
      vertex -2.00861 -6.18187 32
    endloop
  endfacet
  facet normal 0 0 1
    outer loop
      vertex -5.25861 -3.8206 32
      vertex -5.875 -10.1758 32
      vertex -3.8206 -5.25861 32
    endloop
  endfacet
  facet normal 0 0 1
    outer loop
      vertex -11.75 0 32
      vertex -5.25861 -3.8206 32
      vertex -6.18187 -2.00861 32
    endloop
  endfacet
  facet normal 0 0 1
    outer loop
      vertex -11.75 0 32
      vertex -6.18187 -2.00861 32
      vertex -6.5 -1.22461e-015 32
    endloop
  endfacet
  facet normal 0 0 1
    outer loop
      vertex -5.25861 -3.8206 32
      vertex -11.75 0 32
      vertex -5.875 -10.1758 32
    endloop
  endfacet
  facet normal 0 1 -0
    outer loop
      vertex 5.875 -10.1758 32
      vertex -5.875 -10.1758 41.861
      vertex 5.875 -10.1758 41.861
    endloop
  endfacet
  facet normal 0 1 0
    outer loop
      vertex -5.875 -10.1758 41.861
      vertex 5.875 -10.1758 32
      vertex -5.875 -10.1758 32
    endloop
  endfacet
  facet normal 0.866025 0.5 0
    outer loop
      vertex -5.875 -10.1758 41.861
      vertex -11.75 0 32
      vertex -11.75 0 41.861
    endloop
  endfacet
  facet normal 0.866025 0.5 0
    outer loop
      vertex -11.75 0 32
      vertex -5.875 -10.1758 41.861
      vertex -5.875 -10.1758 32
    endloop
  endfacet
  facet normal -0.987688 -0.156435 -0
    outer loop
      vertex 6.5 0 32
      vertex 6.18187 2.00861 23.0086
      vertex 6.5 0 21
    endloop
  endfacet
  facet normal -0.987688 -0.156435 0
    outer loop
      vertex 6.18187 2.00861 23.0086
      vertex 6.5 0 32
      vertex 6.18187 2.00861 32
    endloop
  endfacet
  facet normal -0.987688 -0.156435 0
    outer loop
      vertex 6.5 0 10
      vertex 6.18187 2.00861 18.9914
      vertex 6.18187 2.00861 10
    endloop
  endfacet
  facet normal -0.987688 -0.156435 0
    outer loop
      vertex 6.18187 2.00861 18.9914
      vertex 6.5 0 10
      vertex 6.5 0 21
    endloop
  endfacet
  facet normal 0.987688 -0.156435 0
    outer loop
      vertex -6.5 0 32
      vertex -6.18187 2.00861 23.0086
      vertex -6.18187 2.00861 32
    endloop
  endfacet
  facet normal 0.987688 -0.156435 0
    outer loop
      vertex -6.18187 2.00861 23.0086
      vertex -6.5 0 32
      vertex -6.5 0 21
    endloop
  endfacet
  facet normal 0.987688 -0.156435 0
    outer loop
      vertex -6.5 0 10
      vertex -6.18187 2.00861 18.9914
      vertex -6.5 0 21
    endloop
  endfacet
  facet normal 0.987688 -0.156435 0
    outer loop
      vertex -6.18187 2.00861 18.9914
      vertex -6.5 0 10
      vertex -6.18187 2.00861 10
    endloop
  endfacet
  facet normal -0.156435 -0.987688 0
    outer loop
      vertex 0 6.5 27.5
      vertex 2.00861 6.18187 32
      vertex 0 6.5 32
    endloop
  endfacet
  facet normal -0.156435 -0.987688 -0
    outer loop
      vertex 2.00861 6.18187 32
      vertex 0 6.5 27.5
      vertex 2.00861 6.18187 27.1819
    endloop
  endfacet
  facet normal -0.156435 -0.987688 0
    outer loop
      vertex 2.00861 6.18187 10
      vertex 0 6.5 14.5
      vertex 0 6.5 10
    endloop
  endfacet
  facet normal -0.156435 -0.987688 0
    outer loop
      vertex 0 6.5 14.5
      vertex 2.00861 6.18187 10
      vertex 2.00861 6.18187 14.8181
    endloop
  endfacet
  facet normal -0.707107 -0.707107 -0
    outer loop
      vertex 5.25861 3.8206 32
      vertex 3.8206 5.25861 26.2586
      vertex 5.25861 3.8206 24.8206
    endloop
  endfacet
  facet normal -0.707107 -0.707107 0
    outer loop
      vertex 3.8206 5.25861 26.2586
      vertex 5.25861 3.8206 32
      vertex 3.8206 5.25861 32
    endloop
  endfacet
  facet normal -0.707107 -0.707107 0
    outer loop
      vertex 5.25861 3.8206 10
      vertex 3.8206 5.25861 15.7414
      vertex 3.8206 5.25861 10
    endloop
  endfacet
  facet normal -0.707107 -0.707107 0
    outer loop
      vertex 3.8206 5.25861 15.7414
      vertex 5.25861 3.8206 10
      vertex 5.25861 3.8206 17.1794
    endloop
  endfacet
  facet normal -0.891007 -0.453991 -0
    outer loop
      vertex 6.18187 2.00861 32
      vertex 5.25861 3.8206 24.8206
      vertex 6.18187 2.00861 23.0086
    endloop
  endfacet
  facet normal -0.891007 -0.453991 0
    outer loop
      vertex 5.25861 3.8206 24.8206
      vertex 6.18187 2.00861 32
      vertex 5.25861 3.8206 32
    endloop
  endfacet
  facet normal -0.891007 -0.453991 0
    outer loop
      vertex 6.18187 2.00861 10
      vertex 5.25861 3.8206 17.1794
      vertex 5.25861 3.8206 10
    endloop
  endfacet
  facet normal -0.891007 -0.453991 0
    outer loop
      vertex 5.25861 3.8206 17.1794
      vertex 6.18187 2.00861 10
      vertex 6.18187 2.00861 18.9914
    endloop
  endfacet
  facet normal -0.453991 -0.891007 0
    outer loop
      vertex 2.00861 6.18187 27.1819
      vertex 3.8206 5.25861 32
      vertex 2.00861 6.18187 32
    endloop
  endfacet
  facet normal -0.453991 -0.891007 -0
    outer loop
      vertex 3.8206 5.25861 32
      vertex 2.00861 6.18187 27.1819
      vertex 3.8206 5.25861 26.2586
    endloop
  endfacet
  facet normal -0.453991 -0.891007 0
    outer loop
      vertex 3.8206 5.25861 10
      vertex 2.00861 6.18187 14.8181
      vertex 2.00861 6.18187 10
    endloop
  endfacet
  facet normal -0.453991 -0.891007 0
    outer loop
      vertex 2.00861 6.18187 14.8181
      vertex 3.8206 5.25861 10
      vertex 3.8206 5.25861 15.7414
    endloop
  endfacet
  facet normal 0.453991 -0.891007 0
    outer loop
      vertex -3.8206 5.25861 32
      vertex -2.00861 6.18187 27.1819
      vertex -2.00861 6.18187 32
    endloop
  endfacet
  facet normal 0.453991 -0.891007 0
    outer loop
      vertex -2.00861 6.18187 27.1819
      vertex -3.8206 5.25861 32
      vertex -3.8206 5.25861 26.2586
    endloop
  endfacet
  facet normal 0.453991 -0.891007 0
    outer loop
      vertex -3.8206 5.25861 10
      vertex -2.00861 6.18187 14.8181
      vertex -3.8206 5.25861 15.7414
    endloop
  endfacet
  facet normal 0.453991 -0.891007 0
    outer loop
      vertex -2.00861 6.18187 14.8181
      vertex -3.8206 5.25861 10
      vertex -2.00861 6.18187 10
    endloop
  endfacet
  facet normal 0.707107 -0.707107 0
    outer loop
      vertex -5.25861 3.8206 32
      vertex -3.8206 5.25861 26.2586
      vertex -3.8206 5.25861 32
    endloop
  endfacet
  facet normal 0.707107 -0.707107 0
    outer loop
      vertex -3.8206 5.25861 26.2586
      vertex -5.25861 3.8206 32
      vertex -5.25861 3.8206 24.8206
    endloop
  endfacet
  facet normal 0.707107 -0.707107 0
    outer loop
      vertex -5.25861 3.8206 10
      vertex -3.8206 5.25861 15.7414
      vertex -5.25861 3.8206 17.1794
    endloop
  endfacet
  facet normal 0.707107 -0.707107 0
    outer loop
      vertex -3.8206 5.25861 15.7414
      vertex -5.25861 3.8206 10
      vertex -3.8206 5.25861 10
    endloop
  endfacet
  facet normal 0.156435 -0.987688 0
    outer loop
      vertex -2.00861 6.18187 32
      vertex 0 6.5 27.5
      vertex 0 6.5 32
    endloop
  endfacet
  facet normal 0.156435 -0.987688 0
    outer loop
      vertex 0 6.5 27.5
      vertex -2.00861 6.18187 32
      vertex -2.00861 6.18187 27.1819
    endloop
  endfacet
  facet normal 0.156435 -0.987688 0
    outer loop
      vertex -2.00861 6.18187 10
      vertex 0 6.5 14.5
      vertex -2.00861 6.18187 14.8181
    endloop
  endfacet
  facet normal 0.156435 -0.987688 0
    outer loop
      vertex 0 6.5 14.5
      vertex -2.00861 6.18187 10
      vertex 0 6.5 10
    endloop
  endfacet
  facet normal 1 -0 0
    outer loop
      vertex -6.5 -6.12303e-016 32
      vertex -6.5 0 21
      vertex -6.5 0 32
    endloop
  endfacet
  facet normal 1 0 0
    outer loop
      vertex -6.5 0 21
      vertex -6.5 -6.12303e-016 32
      vertex -6.5 -1.28584e-015 21
    endloop
  endfacet
  facet normal 1 -0 0
    outer loop
      vertex -6.5 -1.28584e-015 21
      vertex -6.5 0 10
      vertex -6.5 0 21
    endloop
  endfacet
  facet normal 1 0 0
    outer loop
      vertex -6.5 0 10
      vertex -6.5 -1.28584e-015 21
      vertex -6.5 -1.95937e-015 10
    endloop
  endfacet
  facet normal 0.891007 -0.453991 0
    outer loop
      vertex -6.18187 2.00861 32
      vertex -5.25861 3.8206 24.8206
      vertex -5.25861 3.8206 32
    endloop
  endfacet
  facet normal 0.891007 -0.453991 0
    outer loop
      vertex -5.25861 3.8206 24.8206
      vertex -6.18187 2.00861 32
      vertex -6.18187 2.00861 23.0086
    endloop
  endfacet
  facet normal 0.891007 -0.453991 0
    outer loop
      vertex -6.18187 2.00861 10
      vertex -5.25861 3.8206 17.1794
      vertex -6.18187 2.00861 18.9914
    endloop
  endfacet
  facet normal 0.891007 -0.453991 0
    outer loop
      vertex -5.25861 3.8206 17.1794
      vertex -6.18187 2.00861 10
      vertex -5.25861 3.8206 10
    endloop
  endfacet
  facet normal -1 0 0
    outer loop
      vertex 6.5 0 21
      vertex 6.5 -6.12303e-016 32
      vertex 6.5 0 32
    endloop
  endfacet
  facet normal -1 0 -0
    outer loop
      vertex 6.5 -6.12303e-016 32
      vertex 6.5 0 21
      vertex 6.5 -1.28584e-015 21
    endloop
  endfacet
  facet normal -1 0 0
    outer loop
      vertex 6.5 0 10
      vertex 6.5 -1.28584e-015 21
      vertex 6.5 0 21
    endloop
  endfacet
  facet normal -1 0 -0
    outer loop
      vertex 6.5 -1.28584e-015 21
      vertex 6.5 0 10
      vertex 6.5 -1.95937e-015 10
    endloop
  endfacet
  facet normal -0.866025 0.5 -6.1324e-017
    outer loop
      vertex 5.875 -10.1758 0.138974
      vertex 11.75 -3.91874e-015 10
      vertex 11.75 -5.12633e-015 0.138974
    endloop
  endfacet
  facet normal -0.866025 0.5 0
    outer loop
      vertex 11.75 -3.91874e-015 10
      vertex 5.875 -10.1758 0.138974
      vertex 5.875 -10.1758 10
    endloop
  endfacet
  facet normal 0.866025 0.5 -6.1324e-017
    outer loop
      vertex -5.875 -10.1758 10
      vertex -11.75 -5.12633e-015 0.138974
      vertex -11.75 -3.91874e-015 10
    endloop
  endfacet
  facet normal 0.866025 0.5 0
    outer loop
      vertex -11.75 -5.12633e-015 0.138974
      vertex -5.875 -10.1758 10
      vertex -5.875 -10.1758 0.138974
    endloop
  endfacet
  facet normal 0 1 -0
    outer loop
      vertex 5.875 -10.1758 0.138974
      vertex -5.875 -10.1758 10
      vertex 5.875 -10.1758 10
    endloop
  endfacet
  facet normal 0 1 0
    outer loop
      vertex -5.875 -10.1758 10
      vertex 5.875 -10.1758 0.138974
      vertex -5.875 -10.1758 0.138974
    endloop
  endfacet
  facet normal 0.866025 -0.5 0
    outer loop
      vertex -11.75 -3.91874e-015 10
      vertex -5.875 10.1758 0.138974
      vertex -5.875 10.1758 10
    endloop
  endfacet
  facet normal 0.866025 -0.5 6.1324e-017
    outer loop
      vertex -5.875 10.1758 0.138974
      vertex -11.75 -3.91874e-015 10
      vertex -11.75 -5.12633e-015 0.138974
    endloop
  endfacet
  facet normal -0.866025 -0.5 0
    outer loop
      vertex 5.875 10.1758 0.138974
      vertex 11.75 -3.91874e-015 10
      vertex 5.875 10.1758 10
    endloop
  endfacet
  facet normal -0.866025 -0.5 6.12303e-017
    outer loop
      vertex 11.75 -3.91874e-015 10
      vertex 5.875 10.1758 0.138974
      vertex 11.75 -5.12633e-015 0.138974
    endloop
  endfacet
  facet normal -0 0 -1
    outer loop
      vertex 11.75 -3.91874e-015 10
      vertex 6.18187 -2.00861 10
      vertex 6.5 -3.91874e-015 10
    endloop
  endfacet
  facet normal 0 0 -1
    outer loop
      vertex 5.25861 -3.8206 10
      vertex 11.75 -3.91874e-015 10
      vertex 5.875 -10.1758 10
    endloop
  endfacet
  facet normal 0 0 -1
    outer loop
      vertex 11.75 -3.91874e-015 10
      vertex 5.25861 -3.8206 10
      vertex 6.18187 -2.00861 10
    endloop
  endfacet
  facet normal 0 0 -1
    outer loop
      vertex 5.875 -10.1758 10
      vertex 3.8206 -5.25861 10
      vertex 5.25861 -3.8206 10
    endloop
  endfacet
  facet normal 0 0 -1
    outer loop
      vertex 5.875 -10.1758 10
      vertex 2.00861 -6.18187 10
      vertex 3.8206 -5.25861 10
    endloop
  endfacet
  facet normal 0 0 -1
    outer loop
      vertex 5.875 -10.1758 10
      vertex 0 -6.5 10
      vertex 2.00861 -6.18187 10
    endloop
  endfacet
  facet normal 0 0 -1
    outer loop
      vertex -5.875 -10.1758 10
      vertex 0 -6.5 10
      vertex 5.875 -10.1758 10
    endloop
  endfacet
  facet normal -0 0 -1
    outer loop
      vertex 0 -6.5 10
      vertex -5.875 -10.1758 10
      vertex -2.00861 -6.18187 10
    endloop
  endfacet
  facet normal 0 0 -1
    outer loop
      vertex -5.875 -10.1758 10
      vertex -3.8206 -5.25861 10
      vertex -2.00861 -6.18187 10
    endloop
  endfacet
  facet normal 0 0 -1
    outer loop
      vertex -5.875 -10.1758 10
      vertex -5.25861 -3.8206 10
      vertex -3.8206 -5.25861 10
    endloop
  endfacet
  facet normal 0 0 -1
    outer loop
      vertex -11.75 -3.91874e-015 10
      vertex -5.25861 -3.8206 10
      vertex -5.875 -10.1758 10
    endloop
  endfacet
  facet normal 0 0 -1
    outer loop
      vertex -5.25861 -3.8206 10
      vertex -11.75 -3.91874e-015 10
      vertex -6.18187 -2.00861 10
    endloop
  endfacet
  facet normal 0 0 0
    outer loop
      vertex -6.5 -3.91874e-015 10
      vertex -6.5 0 10
      vertex -6.5 -1.95937e-015 10
    endloop
  endfacet
  facet normal 0 0 -1
    outer loop
      vertex -6.5 -3.91874e-015 10
      vertex -11.75 -3.91874e-015 10
      vertex -6.5 0 10
    endloop
  endfacet
  facet normal 0 0 -1
    outer loop
      vertex -6.18187 -2.00861 10
      vertex -11.75 -3.91874e-015 10
      vertex -6.5 -3.91874e-015 10
    endloop
  endfacet
  facet normal 0 0 -1
    outer loop
      vertex 6.5 -1.95937e-015 10
      vertex 11.75 -3.91874e-015 10
      vertex 6.5 -3.91874e-015 10
    endloop
  endfacet
  facet normal 0 0 -1
    outer loop
      vertex 6.5 0 10
      vertex 11.75 -3.91874e-015 10
      vertex 6.5 -1.95937e-015 10
    endloop
  endfacet
  facet normal 0 0 -1
    outer loop
      vertex 6.18187 2.00861 10
      vertex 11.75 -3.91874e-015 10
      vertex 6.5 0 10
    endloop
  endfacet
  facet normal 0 0 -1
    outer loop
      vertex 5.25861 3.8206 10
      vertex 11.75 -3.91874e-015 10
      vertex 6.18187 2.00861 10
    endloop
  endfacet
  facet normal 0 0 -1
    outer loop
      vertex 11.75 -3.91874e-015 10
      vertex 5.25861 3.8206 10
      vertex 5.875 10.1758 10
    endloop
  endfacet
  facet normal 0 0 -1
    outer loop
      vertex 3.8206 5.25861 10
      vertex 5.875 10.1758 10
      vertex 5.25861 3.8206 10
    endloop
  endfacet
  facet normal 0 0 -1
    outer loop
      vertex 2.00861 6.18187 10
      vertex 5.875 10.1758 10
      vertex 3.8206 5.25861 10
    endloop
  endfacet
  facet normal 0 0 -1
    outer loop
      vertex 0 6.5 10
      vertex 5.875 10.1758 10
      vertex 2.00861 6.18187 10
    endloop
  endfacet
  facet normal 0 0 -1
    outer loop
      vertex -5.875 10.1758 10
      vertex 0 6.5 10
      vertex -2.00861 6.18187 10
    endloop
  endfacet
  facet normal 0 0 -1
    outer loop
      vertex 0 6.5 10
      vertex -5.875 10.1758 10
      vertex 5.875 10.1758 10
    endloop
  endfacet
  facet normal 0 0 -1
    outer loop
      vertex -3.8206 5.25861 10
      vertex -5.875 10.1758 10
      vertex -2.00861 6.18187 10
    endloop
  endfacet
  facet normal 0 0 -1
    outer loop
      vertex -5.25861 3.8206 10
      vertex -5.875 10.1758 10
      vertex -3.8206 5.25861 10
    endloop
  endfacet
  facet normal 0 0 -1
    outer loop
      vertex -11.75 -3.91874e-015 10
      vertex -5.25861 3.8206 10
      vertex -6.18187 2.00861 10
    endloop
  endfacet
  facet normal 0 0 -1
    outer loop
      vertex -11.75 -3.91874e-015 10
      vertex -6.18187 2.00861 10
      vertex -6.5 0 10
    endloop
  endfacet
  facet normal -0 0 -1
    outer loop
      vertex -5.25861 3.8206 10
      vertex -11.75 -3.91874e-015 10
      vertex -5.875 10.1758 10
    endloop
  endfacet
  facet normal 0 -1 0
    outer loop
      vertex -5.875 10.1758 0.138974
      vertex 5.875 10.1758 10
      vertex -5.875 10.1758 10
    endloop
  endfacet
  facet normal 0 -1 -0
    outer loop
      vertex 5.875 10.1758 10
      vertex -5.875 10.1758 0.138974
      vertex 5.875 10.1758 0.138974
    endloop
  endfacet
  facet normal -0.987688 0.156435 0
    outer loop
      vertex 6.18187 -2.00861 18.9914
      vertex 6.5 -3.91874e-015 10
      vertex 6.18187 -2.00861 10
    endloop
  endfacet
  facet normal -0.987688 0.156435 -1.91571e-017
    outer loop
      vertex 6.5 -3.91874e-015 10
      vertex 6.18187 -2.00861 18.9914
      vertex 6.5 -2.57167e-015 21
    endloop
  endfacet
  facet normal -0.987688 0.156435 -1.98519e-017
    outer loop
      vertex 6.18187 -2.00861 23.0086
      vertex 6.5 -1.22461e-015 32
      vertex 6.5 -2.57167e-015 21
    endloop
  endfacet
  facet normal -0.987688 0.156435 0
    outer loop
      vertex 6.5 -1.22461e-015 32
      vertex 6.18187 -2.00861 23.0086
      vertex 6.18187 -2.00861 32
    endloop
  endfacet
  facet normal 0.987688 0.156435 -1.48889e-017
    outer loop
      vertex -6.18187 -2.00861 18.9914
      vertex -6.5 -3.91874e-015 10
      vertex -6.5 -2.57167e-015 21
    endloop
  endfacet
  facet normal 0.987688 0.156435 0
    outer loop
      vertex -6.5 -3.91874e-015 10
      vertex -6.18187 -2.00861 18.9914
      vertex -6.18187 -2.00861 10
    endloop
  endfacet
  facet normal 0.987688 0.156435 -0
    outer loop
      vertex -6.18187 -2.00861 23.0086
      vertex -6.5 -1.22461e-015 32
      vertex -6.18187 -2.00861 32
    endloop
  endfacet
  facet normal 0.987688 0.156435 -1.91571e-017
    outer loop
      vertex -6.5 -1.22461e-015 32
      vertex -6.18187 -2.00861 23.0086
      vertex -6.5 -2.57167e-015 21
    endloop
  endfacet
  facet normal -0.156435 0.987688 0
    outer loop
      vertex 2.00861 -6.18187 10
      vertex 0 -6.5 14.5
      vertex 2.00861 -6.18187 14.8181
    endloop
  endfacet
  facet normal -0.156435 0.987688 0
    outer loop
      vertex 0 -6.5 14.5
      vertex 2.00861 -6.18187 10
      vertex 0 -6.5 10
    endloop
  endfacet
  facet normal -0.156435 0.987688 0
    outer loop
      vertex 2.00861 -6.18187 32
      vertex 0 -6.5 27.5
      vertex 0 -6.5 32
    endloop
  endfacet
  facet normal -0.156435 0.987688 0
    outer loop
      vertex 0 -6.5 27.5
      vertex 2.00861 -6.18187 32
      vertex 2.00861 -6.18187 27.1819
    endloop
  endfacet
  facet normal -0.707107 0.707107 0
    outer loop
      vertex 3.8206 -5.25861 15.7414
      vertex 5.25861 -3.8206 10
      vertex 3.8206 -5.25861 10
    endloop
  endfacet
  facet normal -0.707107 0.707107 0
    outer loop
      vertex 5.25861 -3.8206 10
      vertex 3.8206 -5.25861 15.7414
      vertex 5.25861 -3.8206 17.1794
    endloop
  endfacet
  facet normal -0.707107 0.707107 0
    outer loop
      vertex 3.8206 -5.25861 26.2586
      vertex 5.25861 -3.8206 32
      vertex 5.25861 -3.8206 24.8206
    endloop
  endfacet
  facet normal -0.707107 0.707107 0
    outer loop
      vertex 5.25861 -3.8206 32
      vertex 3.8206 -5.25861 26.2586
      vertex 3.8206 -5.25861 32
    endloop
  endfacet
  facet normal -0.891007 0.453991 0
    outer loop
      vertex 5.25861 -3.8206 17.1794
      vertex 6.18187 -2.00861 10
      vertex 5.25861 -3.8206 10
    endloop
  endfacet
  facet normal -0.891007 0.453991 0
    outer loop
      vertex 6.18187 -2.00861 10
      vertex 5.25861 -3.8206 17.1794
      vertex 6.18187 -2.00861 18.9914
    endloop
  endfacet
  facet normal -0.891007 0.453991 0
    outer loop
      vertex 5.25861 -3.8206 24.8206
      vertex 6.18187 -2.00861 32
      vertex 6.18187 -2.00861 23.0086
    endloop
  endfacet
  facet normal -0.891007 0.453991 0
    outer loop
      vertex 6.18187 -2.00861 32
      vertex 5.25861 -3.8206 24.8206
      vertex 5.25861 -3.8206 32
    endloop
  endfacet
  facet normal -0.453991 0.891007 0
    outer loop
      vertex 3.8206 -5.25861 10
      vertex 2.00861 -6.18187 14.8181
      vertex 3.8206 -5.25861 15.7414
    endloop
  endfacet
  facet normal -0.453991 0.891007 0
    outer loop
      vertex 2.00861 -6.18187 14.8181
      vertex 3.8206 -5.25861 10
      vertex 2.00861 -6.18187 10
    endloop
  endfacet
  facet normal -0.453991 0.891007 0
    outer loop
      vertex 3.8206 -5.25861 32
      vertex 2.00861 -6.18187 27.1819
      vertex 2.00861 -6.18187 32
    endloop
  endfacet
  facet normal -0.453991 0.891007 0
    outer loop
      vertex 2.00861 -6.18187 27.1819
      vertex 3.8206 -5.25861 32
      vertex 3.8206 -5.25861 26.2586
    endloop
  endfacet
  facet normal 0.453991 0.891007 0
    outer loop
      vertex -3.8206 -5.25861 10
      vertex -2.00861 -6.18187 14.8181
      vertex -2.00861 -6.18187 10
    endloop
  endfacet
  facet normal 0.453991 0.891007 0
    outer loop
      vertex -2.00861 -6.18187 14.8181
      vertex -3.8206 -5.25861 10
      vertex -3.8206 -5.25861 15.7414
    endloop
  endfacet
  facet normal 0.453991 0.891007 -0
    outer loop
      vertex -2.00861 -6.18187 27.1819
      vertex -3.8206 -5.25861 32
      vertex -2.00861 -6.18187 32
    endloop
  endfacet
  facet normal 0.453991 0.891007 0
    outer loop
      vertex -3.8206 -5.25861 32
      vertex -2.00861 -6.18187 27.1819
      vertex -3.8206 -5.25861 26.2586
    endloop
  endfacet
  facet normal 0.707107 0.707107 0
    outer loop
      vertex -3.8206 -5.25861 15.7414
      vertex -5.25861 -3.8206 10
      vertex -5.25861 -3.8206 17.1794
    endloop
  endfacet
  facet normal 0.707107 0.707107 0
    outer loop
      vertex -5.25861 -3.8206 10
      vertex -3.8206 -5.25861 15.7414
      vertex -3.8206 -5.25861 10
    endloop
  endfacet
  facet normal 0.707107 0.707107 -0
    outer loop
      vertex -3.8206 -5.25861 26.2586
      vertex -5.25861 -3.8206 32
      vertex -3.8206 -5.25861 32
    endloop
  endfacet
  facet normal 0.707107 0.707107 0
    outer loop
      vertex -5.25861 -3.8206 32
      vertex -3.8206 -5.25861 26.2586
      vertex -5.25861 -3.8206 24.8206
    endloop
  endfacet
  facet normal 0.156435 0.987688 0
    outer loop
      vertex -2.00861 -6.18187 10
      vertex 0 -6.5 14.5
      vertex 0 -6.5 10
    endloop
  endfacet
  facet normal 0.156435 0.987688 0
    outer loop
      vertex 0 -6.5 14.5
      vertex -2.00861 -6.18187 10
      vertex -2.00861 -6.18187 14.8181
    endloop
  endfacet
  facet normal 0.156435 0.987688 -0
    outer loop
      vertex 0 -6.5 27.5
      vertex -2.00861 -6.18187 32
      vertex 0 -6.5 32
    endloop
  endfacet
  facet normal 0.156435 0.987688 0
    outer loop
      vertex -2.00861 -6.18187 32
      vertex 0 -6.5 27.5
      vertex -2.00861 -6.18187 27.1819
    endloop
  endfacet
  facet normal 1 -0 0
    outer loop
      vertex -6.5 -2.57167e-015 21
      vertex -6.5 -1.95937e-015 10
      vertex -6.5 -1.28584e-015 21
    endloop
  endfacet
  facet normal 1 0 0
    outer loop
      vertex -6.5 -1.95937e-015 10
      vertex -6.5 -2.57167e-015 21
      vertex -6.5 -3.91874e-015 10
    endloop
  endfacet
  facet normal 1 -0 0
    outer loop
      vertex -6.5 -1.22461e-015 32
      vertex -6.5 -1.28584e-015 21
      vertex -6.5 -6.12303e-016 32
    endloop
  endfacet
  facet normal 1 0 -0
    outer loop
      vertex -6.5 -1.28584e-015 21
      vertex -6.5 -1.22461e-015 32
      vertex -6.5 -2.57167e-015 21
    endloop
  endfacet
  facet normal 0.891007 0.453991 0
    outer loop
      vertex -5.25861 -3.8206 17.1794
      vertex -6.18187 -2.00861 10
      vertex -6.18187 -2.00861 18.9914
    endloop
  endfacet
  facet normal 0.891007 0.453991 0
    outer loop
      vertex -6.18187 -2.00861 10
      vertex -5.25861 -3.8206 17.1794
      vertex -5.25861 -3.8206 10
    endloop
  endfacet
  facet normal 0.891007 0.453991 -0
    outer loop
      vertex -5.25861 -3.8206 24.8206
      vertex -6.18187 -2.00861 32
      vertex -5.25861 -3.8206 32
    endloop
  endfacet
  facet normal 0.891007 0.453991 0
    outer loop
      vertex -6.18187 -2.00861 32
      vertex -5.25861 -3.8206 24.8206
      vertex -6.18187 -2.00861 23.0086
    endloop
  endfacet
  facet normal -1 0 0
    outer loop
      vertex 6.5 -1.95937e-015 10
      vertex 6.5 -2.57167e-015 21
      vertex 6.5 -1.28584e-015 21
    endloop
  endfacet
  facet normal -1 0 -0
    outer loop
      vertex 6.5 -2.57167e-015 21
      vertex 6.5 -1.95937e-015 10
      vertex 6.5 -3.91874e-015 10
    endloop
  endfacet
  facet normal -1 0 0
    outer loop
      vertex 6.5 -1.28584e-015 21
      vertex 6.5 -1.22461e-015 32
      vertex 6.5 -6.12303e-016 32
    endloop
  endfacet
  facet normal -1 0 0
    outer loop
      vertex 6.5 -1.22461e-015 32
      vertex 6.5 -1.28584e-015 21
      vertex 6.5 -2.57167e-015 21
    endloop
  endfacet
  facet normal -0.866025 0 -0.5
    outer loop
      vertex 11.75 -20.9461 21
      vertex 5.875 -11 31.1758
      vertex 11.75 -11 21
    endloop
  endfacet
  facet normal -0.866025 -0 -0.5
    outer loop
      vertex 5.875 -11 31.1758
      vertex 11.75 -20.9461 21
      vertex 5.875 -20.9461 31.1758
    endloop
  endfacet
  facet normal 0.866025 0 -0.5
    outer loop
      vertex -5.875 -20.9461 31.1758
      vertex -11.75 -11 21
      vertex -5.875 -11 31.1758
    endloop
  endfacet
  facet normal 0.866025 0 -0.5
    outer loop
      vertex -11.75 -11 21
      vertex -5.875 -20.9461 31.1758
      vertex -11.75 -20.9461 21
    endloop
  endfacet
  facet normal 0 0 -1
    outer loop
      vertex -5.875 -20.9461 31.1758
      vertex 5.875 -11 31.1758
      vertex 5.875 -20.9461 31.1758
    endloop
  endfacet
  facet normal -0 0 -1
    outer loop
      vertex 5.875 -11 31.1758
      vertex -5.875 -20.9461 31.1758
      vertex -5.875 -11 31.1758
    endloop
  endfacet
  facet normal -0.866025 0 0.5
    outer loop
      vertex 5.875 -20.9461 10.8242
      vertex 11.75 -11 21
      vertex 5.875 -11 10.8242
    endloop
  endfacet
  facet normal -0.866025 0 0.5
    outer loop
      vertex 11.75 -11 21
      vertex 5.875 -20.9461 10.8242
      vertex 11.75 -20.9461 21
    endloop
  endfacet
  facet normal 0 -1 0
    outer loop
      vertex -5.875 -11 31.1758
      vertex 0 -11 27.5
      vertex 5.875 -11 31.1758
    endloop
  endfacet
  facet normal 0 -1 0
    outer loop
      vertex -5.875 -11 31.1758
      vertex -2.00861 -11 27.1819
      vertex 0 -11 27.5
    endloop
  endfacet
  facet normal 0 -1 0
    outer loop
      vertex -5.875 -11 31.1758
      vertex -3.8206 -11 26.2586
      vertex -2.00861 -11 27.1819
    endloop
  endfacet
  facet normal 0 -1 0
    outer loop
      vertex -5.875 -11 31.1758
      vertex -5.25861 -11 24.8206
      vertex -3.8206 -11 26.2586
    endloop
  endfacet
  facet normal 0 -1 0
    outer loop
      vertex -11.75 -11 21
      vertex -5.25861 -11 24.8206
      vertex -5.875 -11 31.1758
    endloop
  endfacet
  facet normal 0 -1 0
    outer loop
      vertex -5.25861 -11 24.8206
      vertex -11.75 -11 21
      vertex -6.18187 -11 23.0086
    endloop
  endfacet
  facet normal 0 -1 0
    outer loop
      vertex -11.75 -11 21
      vertex -6.5 -11 21
      vertex -6.18187 -11 23.0086
    endloop
  endfacet
  facet normal 0 -1 0
    outer loop
      vertex -11.75 -11 21
      vertex -6.18187 -11 18.9914
      vertex -6.5 -11 21
    endloop
  endfacet
  facet normal 0 -1 0
    outer loop
      vertex -11.75 -11 21
      vertex -5.25861 -11 17.1794
      vertex -6.18187 -11 18.9914
    endloop
  endfacet
  facet normal 0 -1 0
    outer loop
      vertex -5.875 -11 10.8242
      vertex -5.25861 -11 17.1794
      vertex -11.75 -11 21
    endloop
  endfacet
  facet normal 0 -1 -0
    outer loop
      vertex -2.00861 -11 14.8181
      vertex -5.875 -11 10.8242
      vertex 0 -11 14.5
    endloop
  endfacet
  facet normal 0 -1 -0
    outer loop
      vertex -3.8206 -11 15.7414
      vertex -5.875 -11 10.8242
      vertex -2.00861 -11 14.8181
    endloop
  endfacet
  facet normal 0 -1 -0
    outer loop
      vertex -5.25861 -11 17.1794
      vertex -5.875 -11 10.8242
      vertex -3.8206 -11 15.7414
    endloop
  endfacet
  facet normal 0 -1 0
    outer loop
      vertex 2.00861 -11 27.1819
      vertex 5.875 -11 31.1758
      vertex 0 -11 27.5
    endloop
  endfacet
  facet normal 0 -1 0
    outer loop
      vertex 3.8206 -11 26.2586
      vertex 5.875 -11 31.1758
      vertex 2.00861 -11 27.1819
    endloop
  endfacet
  facet normal 0 -1 0
    outer loop
      vertex 5.25861 -11 24.8206
      vertex 5.875 -11 31.1758
      vertex 3.8206 -11 26.2586
    endloop
  endfacet
  facet normal 0 -1 0
    outer loop
      vertex 11.75 -11 21
      vertex 5.25861 -11 24.8206
      vertex 6.18187 -11 23.0086
    endloop
  endfacet
  facet normal 0 -1 0
    outer loop
      vertex 11.75 -11 21
      vertex 6.18187 -11 23.0086
      vertex 6.5 -11 21
    endloop
  endfacet
  facet normal 0 -1 0
    outer loop
      vertex 5.25861 -11 24.8206
      vertex 11.75 -11 21
      vertex 5.875 -11 31.1758
    endloop
  endfacet
  facet normal 0 -1 0
    outer loop
      vertex 6.18187 -11 18.9914
      vertex 11.75 -11 21
      vertex 6.5 -11 21
    endloop
  endfacet
  facet normal 0 -1 0
    outer loop
      vertex 5.25861 -11 17.1794
      vertex 11.75 -11 21
      vertex 6.18187 -11 18.9914
    endloop
  endfacet
  facet normal 0 -1 0
    outer loop
      vertex 5.875 -11 10.8242
      vertex 5.25861 -11 17.1794
      vertex 3.8206 -11 15.7414
    endloop
  endfacet
  facet normal 0 -1 0
    outer loop
      vertex 5.875 -11 10.8242
      vertex 0 -11 14.5
      vertex -5.875 -11 10.8242
    endloop
  endfacet
  facet normal 0 -1 0
    outer loop
      vertex 5.25861 -11 17.1794
      vertex 5.875 -11 10.8242
      vertex 11.75 -11 21
    endloop
  endfacet
  facet normal 0 -1 0
    outer loop
      vertex 2.00861 -11 14.8181
      vertex 5.875 -11 10.8242
      vertex 3.8206 -11 15.7414
    endloop
  endfacet
  facet normal 0 -1 0
    outer loop
      vertex 0 -11 14.5
      vertex 5.875 -11 10.8242
      vertex 2.00861 -11 14.8181
    endloop
  endfacet
  facet normal -0 0 1
    outer loop
      vertex -5.875 -11 10.8242
      vertex 5.875 -20.9461 10.8242
      vertex 5.875 -11 10.8242
    endloop
  endfacet
  facet normal 0 0 1
    outer loop
      vertex 5.875 -20.9461 10.8242
      vertex -5.875 -11 10.8242
      vertex -5.875 -20.9461 10.8242
    endloop
  endfacet
  facet normal 0.866025 -0 0.5
    outer loop
      vertex -11.75 -20.9461 21
      vertex -5.875 -11 10.8242
      vertex -11.75 -11 21
    endloop
  endfacet
  facet normal 0.866025 0 0.5
    outer loop
      vertex -5.875 -11 10.8242
      vertex -11.75 -20.9461 21
      vertex -5.875 -20.9461 10.8242
    endloop
  endfacet
  facet normal -0.987688 0 -0.156435
    outer loop
      vertex 6.5 -11 21
      vertex 6.18187 -2.00861 23.0086
      vertex 6.5 -2.57167e-015 21
    endloop
  endfacet
  facet normal -0.987688 -0 -0.156435
    outer loop
      vertex 6.18187 -2.00861 23.0086
      vertex 6.5 -11 21
      vertex 6.18187 -11 23.0086
    endloop
  endfacet
  facet normal -0.987688 0 -0.156435
    outer loop
      vertex 6.5 11 21
      vertex 6.18187 2.00861 23.0086
      vertex 6.18187 11 23.0086
    endloop
  endfacet
  facet normal -0.987688 0 -0.156435
    outer loop
      vertex 6.18187 2.00861 23.0086
      vertex 6.5 11 21
      vertex 6.5 0 21
    endloop
  endfacet
  facet normal 0 0 0
    outer loop
      vertex 6.5 0 21
      vertex 6.5 -2.57167e-015 21
      vertex 6.5 -1.28584e-015 21
    endloop
  endfacet
  facet normal 0.987688 0 -0.156435
    outer loop
      vertex -6.5 -11 21
      vertex -6.18187 -2.00861 23.0086
      vertex -6.18187 -11 23.0086
    endloop
  endfacet
  facet normal 0.987688 0 -0.156435
    outer loop
      vertex -6.18187 -2.00861 23.0086
      vertex -6.5 -11 21
      vertex -6.5 -2.57167e-015 21
    endloop
  endfacet
  facet normal 0.987688 0 -0.156435
    outer loop
      vertex -6.18187 2.00861 23.0086
      vertex -6.5 11 21
      vertex -6.18187 11 23.0086
    endloop
  endfacet
  facet normal 0.987688 0 -0.156435
    outer loop
      vertex -6.5 11 21
      vertex -6.18187 2.00861 23.0086
      vertex -6.5 0 21
    endloop
  endfacet
  facet normal 0 0 0
    outer loop
      vertex -6.5 0 21
      vertex -6.5 -1.28584e-015 21
      vertex -6.5 -2.57167e-015 21
    endloop
  endfacet
  facet normal -0.156434 -0 -0.987688
    outer loop
      vertex 0 -6.5 27.5
      vertex 2.00861 -11 27.1819
      vertex 0 -11 27.5
    endloop
  endfacet
  facet normal -0.156434 0 -0.987688
    outer loop
      vertex 2.00861 -11 27.1819
      vertex 0 -6.5 27.5
      vertex 2.00861 -6.18187 27.1819
    endloop
  endfacet
  facet normal -0.156435 0 -0.987688
    outer loop
      vertex 0 6.5 27.5
      vertex 2.00861 11 27.1819
      vertex 2.00861 6.18187 27.1819
    endloop
  endfacet
  facet normal -0.156435 0 -0.987688
    outer loop
      vertex 2.00861 11 27.1819
      vertex 0 6.5 27.5
      vertex 0 11 27.5
    endloop
  endfacet
  facet normal -0.707107 -0 -0.707107
    outer loop
      vertex 3.8206 -5.25861 26.2586
      vertex 5.25861 -11 24.8206
      vertex 3.8206 -11 26.2586
    endloop
  endfacet
  facet normal -0.707107 0 -0.707107
    outer loop
      vertex 5.25861 -11 24.8206
      vertex 3.8206 -5.25861 26.2586
      vertex 5.25861 -3.8206 24.8206
    endloop
  endfacet
  facet normal -0.707107 0 -0.707107
    outer loop
      vertex 5.25861 11 24.8206
      vertex 3.8206 5.25861 26.2586
      vertex 3.8206 11 26.2586
    endloop
  endfacet
  facet normal -0.707107 -1.87857e-007 -0.707107
    outer loop
      vertex 3.8206 5.25861 26.2586
      vertex 5.25861 11 24.8206
      vertex 5.25861 3.8206 24.8206
    endloop
  endfacet
  facet normal -0.891007 0 -0.45399
    outer loop
      vertex 6.18187 -11 23.0086
      vertex 5.25861 -3.8206 24.8206
      vertex 6.18187 -2.00861 23.0086
    endloop
  endfacet
  facet normal -0.891007 -0 -0.45399
    outer loop
      vertex 5.25861 -3.8206 24.8206
      vertex 6.18187 -11 23.0086
      vertex 5.25861 -11 24.8206
    endloop
  endfacet
  facet normal -0.891006 -1.20612e-007 -0.453991
    outer loop
      vertex 6.18187 11 23.0086
      vertex 5.25861 3.8206 24.8206
      vertex 5.25861 11 24.8206
    endloop
  endfacet
  facet normal -0.891007 0 -0.45399
    outer loop
      vertex 5.25861 3.8206 24.8206
      vertex 6.18187 11 23.0086
      vertex 6.18187 2.00861 23.0086
    endloop
  endfacet
  facet normal -0.453991 -0 -0.891006
    outer loop
      vertex 2.00861 -6.18187 27.1819
      vertex 3.8206 -11 26.2586
      vertex 2.00861 -11 27.1819
    endloop
  endfacet
  facet normal -0.453991 0 -0.891006
    outer loop
      vertex 3.8206 -11 26.2586
      vertex 2.00861 -6.18187 27.1819
      vertex 3.8206 -5.25861 26.2586
    endloop
  endfacet
  facet normal -0.45399 0 -0.891007
    outer loop
      vertex 2.00861 6.18187 27.1819
      vertex 3.8206 11 26.2586
      vertex 3.8206 5.25861 26.2586
    endloop
  endfacet
  facet normal -0.45399 0 -0.891007
    outer loop
      vertex 3.8206 11 26.2586
      vertex 2.00861 6.18187 27.1819
      vertex 2.00861 11 27.1819
    endloop
  endfacet
  facet normal 0.453991 0 -0.891006
    outer loop
      vertex -3.8206 -11 26.2586
      vertex -2.00861 -6.18187 27.1819
      vertex -2.00861 -11 27.1819
    endloop
  endfacet
  facet normal 0.453991 0 -0.891006
    outer loop
      vertex -2.00861 -6.18187 27.1819
      vertex -3.8206 -11 26.2586
      vertex -3.8206 -5.25861 26.2586
    endloop
  endfacet
  facet normal 0.45399 0 -0.891007
    outer loop
      vertex -3.8206 11 26.2586
      vertex -2.00861 6.18187 27.1819
      vertex -3.8206 5.25861 26.2586
    endloop
  endfacet
  facet normal 0.45399 0 -0.891007
    outer loop
      vertex -2.00861 6.18187 27.1819
      vertex -3.8206 11 26.2586
      vertex -2.00861 11 27.1819
    endloop
  endfacet
  facet normal 0.707107 0 -0.707107
    outer loop
      vertex -5.25861 -11 24.8206
      vertex -3.8206 -5.25861 26.2586
      vertex -3.8206 -11 26.2586
    endloop
  endfacet
  facet normal 0.707107 0 -0.707107
    outer loop
      vertex -3.8206 -5.25861 26.2586
      vertex -5.25861 -11 24.8206
      vertex -5.25861 -3.8206 24.8206
    endloop
  endfacet
  facet normal 0.707107 0 -0.707107
    outer loop
      vertex -3.8206 5.25861 26.2586
      vertex -5.25861 11 24.8206
      vertex -3.8206 11 26.2586
    endloop
  endfacet
  facet normal 0.707107 -1.87857e-007 -0.707107
    outer loop
      vertex -5.25861 11 24.8206
      vertex -3.8206 5.25861 26.2586
      vertex -5.25861 3.8206 24.8206
    endloop
  endfacet
  facet normal 0.156434 0 -0.987688
    outer loop
      vertex -2.00861 -11 27.1819
      vertex 0 -6.5 27.5
      vertex 0 -11 27.5
    endloop
  endfacet
  facet normal 0.156434 0 -0.987688
    outer loop
      vertex 0 -6.5 27.5
      vertex -2.00861 -11 27.1819
      vertex -2.00861 -6.18187 27.1819
    endloop
  endfacet
  facet normal 0.156435 0 -0.987688
    outer loop
      vertex -2.00861 11 27.1819
      vertex 0 6.5 27.5
      vertex -2.00861 6.18187 27.1819
    endloop
  endfacet
  facet normal 0.156435 0 -0.987688
    outer loop
      vertex 0 6.5 27.5
      vertex -2.00861 11 27.1819
      vertex 0 11 27.5
    endloop
  endfacet
  facet normal 0 0 0
    outer loop
      vertex -6.5 -11 21
      vertex -6.5 -3.85751e-015 21
      vertex -6.5 -2.57167e-015 21
    endloop
  endfacet
  facet normal 0 0 0
    outer loop
      vertex -6.5 1.28584e-015 21
      vertex -6.5 11 21
      vertex -6.5 0 21
    endloop
  endfacet
  facet normal 0 0 0
    outer loop
      vertex -6.5 -1.28584e-015 21
      vertex -6.5 0 21
      vertex -6.5 -2.57167e-015 21
    endloop
  endfacet
  facet normal 0.891007 0 -0.45399
    outer loop
      vertex -6.18187 -11 23.0086
      vertex -5.25861 -3.8206 24.8206
      vertex -5.25861 -11 24.8206
    endloop
  endfacet
  facet normal 0.891007 0 -0.45399
    outer loop
      vertex -5.25861 -3.8206 24.8206
      vertex -6.18187 -11 23.0086
      vertex -6.18187 -2.00861 23.0086
    endloop
  endfacet
  facet normal 0.891006 -1.20612e-007 -0.453991
    outer loop
      vertex -5.25861 3.8206 24.8206
      vertex -6.18187 11 23.0086
      vertex -5.25861 11 24.8206
    endloop
  endfacet
  facet normal 0.891007 0 -0.45399
    outer loop
      vertex -6.18187 11 23.0086
      vertex -5.25861 3.8206 24.8206
      vertex -6.18187 2.00861 23.0086
    endloop
  endfacet
  facet normal 0 0 0
    outer loop
      vertex 6.5 -11 21
      vertex 6.5 -2.57167e-015 21
      vertex 6.5 -3.85751e-015 21
    endloop
  endfacet
  facet normal 0 0 0
    outer loop
      vertex 6.5 1.28584e-015 21
      vertex 6.5 0 21
      vertex 6.5 11 21
    endloop
  endfacet
  facet normal 0 0 0
    outer loop
      vertex 6.5 -2.57167e-015 21
      vertex 6.5 0 21
      vertex 6.5 -1.28584e-015 21
    endloop
  endfacet
  facet normal -0.866025 0 0.5
    outer loop
      vertex 5.875 11 10.8242
      vertex 11.75 20.9461 21
      vertex 5.875 20.9461 10.8242
    endloop
  endfacet
  facet normal -0.866025 0 0.5
    outer loop
      vertex 11.75 20.9461 21
      vertex 5.875 11 10.8242
      vertex 11.75 11 21
    endloop
  endfacet
  facet normal 0.866025 -0 0.5
    outer loop
      vertex -11.75 11 21
      vertex -5.875 20.9461 10.8242
      vertex -11.75 20.9461 21
    endloop
  endfacet
  facet normal 0.866025 0 0.5
    outer loop
      vertex -5.875 20.9461 10.8242
      vertex -11.75 11 21
      vertex -5.875 11 10.8242
    endloop
  endfacet
  facet normal -0 0 1
    outer loop
      vertex -5.875 20.9461 10.8242
      vertex 5.875 11 10.8242
      vertex 5.875 20.9461 10.8242
    endloop
  endfacet
  facet normal 0 0 1
    outer loop
      vertex 5.875 11 10.8242
      vertex -5.875 20.9461 10.8242
      vertex -5.875 11 10.8242
    endloop
  endfacet
  facet normal 0.866025 0 -0.5
    outer loop
      vertex -5.875 11 31.1758
      vertex -11.75 20.9461 21
      vertex -5.875 20.9461 31.1758
    endloop
  endfacet
  facet normal 0.866025 0 -0.5
    outer loop
      vertex -11.75 20.9461 21
      vertex -5.875 11 31.1758
      vertex -11.75 11 21
    endloop
  endfacet
  facet normal -0.866025 0 -0.5
    outer loop
      vertex 11.75 11 21
      vertex 5.875 20.9461 31.1758
      vertex 11.75 20.9461 21
    endloop
  endfacet
  facet normal -0.866025 -0 -0.5
    outer loop
      vertex 5.875 20.9461 31.1758
      vertex 11.75 11 21
      vertex 5.875 11 31.1758
    endloop
  endfacet
  facet normal 0 1 0
    outer loop
      vertex 5.875 11 31.1758
      vertex 0 11 27.5
      vertex -5.875 11 31.1758
    endloop
  endfacet
  facet normal 0 1 0
    outer loop
      vertex 5.875 11 31.1758
      vertex 2.00861 11 27.1819
      vertex 0 11 27.5
    endloop
  endfacet
  facet normal 0 1 0
    outer loop
      vertex 5.875 11 31.1758
      vertex 3.8206 11 26.2586
      vertex 2.00861 11 27.1819
    endloop
  endfacet
  facet normal 0 1 0
    outer loop
      vertex 5.875 11 31.1758
      vertex 5.25861 11 24.8206
      vertex 3.8206 11 26.2586
    endloop
  endfacet
  facet normal 0 1 0
    outer loop
      vertex 11.75 11 21
      vertex 5.25861 11 24.8206
      vertex 5.875 11 31.1758
    endloop
  endfacet
  facet normal 0 1 0
    outer loop
      vertex 5.25861 11 24.8206
      vertex 11.75 11 21
      vertex 6.18187 11 23.0086
    endloop
  endfacet
  facet normal 0 1 0
    outer loop
      vertex 11.75 11 21
      vertex 6.5 11 21
      vertex 6.18187 11 23.0086
    endloop
  endfacet
  facet normal 0 1 0
    outer loop
      vertex 11.75 11 21
      vertex 6.18187 11 18.9914
      vertex 6.5 11 21
    endloop
  endfacet
  facet normal 0 1 0
    outer loop
      vertex 11.75 11 21
      vertex 5.25861 11 17.1794
      vertex 6.18187 11 18.9914
    endloop
  endfacet
  facet normal 0 1 -0
    outer loop
      vertex 5.875 11 10.8242
      vertex 5.25861 11 17.1794
      vertex 11.75 11 21
    endloop
  endfacet
  facet normal 0 1 0
    outer loop
      vertex 2.00861 11 14.8181
      vertex 5.875 11 10.8242
      vertex 0 11 14.5
    endloop
  endfacet
  facet normal 0 1 0
    outer loop
      vertex 3.8206 11 15.7414
      vertex 5.875 11 10.8242
      vertex 2.00861 11 14.8181
    endloop
  endfacet
  facet normal 0 1 0
    outer loop
      vertex 5.25861 11 17.1794
      vertex 5.875 11 10.8242
      vertex 3.8206 11 15.7414
    endloop
  endfacet
  facet normal 0 1 -0
    outer loop
      vertex -2.00861 11 27.1819
      vertex -5.875 11 31.1758
      vertex 0 11 27.5
    endloop
  endfacet
  facet normal 0 1 -0
    outer loop
      vertex -3.8206 11 26.2586
      vertex -5.875 11 31.1758
      vertex -2.00861 11 27.1819
    endloop
  endfacet
  facet normal 0 1 -0
    outer loop
      vertex -5.25861 11 24.8206
      vertex -5.875 11 31.1758
      vertex -3.8206 11 26.2586
    endloop
  endfacet
  facet normal 0 1 0
    outer loop
      vertex -11.75 11 21
      vertex -5.25861 11 24.8206
      vertex -6.18187 11 23.0086
    endloop
  endfacet
  facet normal 0 1 0
    outer loop
      vertex -11.75 11 21
      vertex -6.18187 11 23.0086
      vertex -6.5 11 21
    endloop
  endfacet
  facet normal 0 1 0
    outer loop
      vertex -5.25861 11 24.8206
      vertex -11.75 11 21
      vertex -5.875 11 31.1758
    endloop
  endfacet
  facet normal 0 1 0
    outer loop
      vertex -6.18187 11 18.9914
      vertex -11.75 11 21
      vertex -6.5 11 21
    endloop
  endfacet
  facet normal 0 1 0
    outer loop
      vertex -5.25861 11 17.1794
      vertex -11.75 11 21
      vertex -6.18187 11 18.9914
    endloop
  endfacet
  facet normal 0 1 0
    outer loop
      vertex -5.875 11 10.8242
      vertex -5.25861 11 17.1794
      vertex -3.8206 11 15.7414
    endloop
  endfacet
  facet normal 0 1 0
    outer loop
      vertex -5.875 11 10.8242
      vertex 0 11 14.5
      vertex 5.875 11 10.8242
    endloop
  endfacet
  facet normal 0 1 0
    outer loop
      vertex -5.25861 11 17.1794
      vertex -5.875 11 10.8242
      vertex -11.75 11 21
    endloop
  endfacet
  facet normal 0 1 0
    outer loop
      vertex -2.00861 11 14.8181
      vertex -5.875 11 10.8242
      vertex -3.8206 11 15.7414
    endloop
  endfacet
  facet normal 0 1 0
    outer loop
      vertex 0 11 14.5
      vertex -5.875 11 10.8242
      vertex -2.00861 11 14.8181
    endloop
  endfacet
  facet normal 0 0 -1
    outer loop
      vertex -5.875 11 31.1758
      vertex 5.875 20.9461 31.1758
      vertex 5.875 11 31.1758
    endloop
  endfacet
  facet normal -0 0 -1
    outer loop
      vertex 5.875 20.9461 31.1758
      vertex -5.875 11 31.1758
      vertex -5.875 20.9461 31.1758
    endloop
  endfacet
  facet normal -0.987688 0 0.156435
    outer loop
      vertex 6.18187 2.00861 18.9914
      vertex 6.5 11 21
      vertex 6.18187 11 18.9914
    endloop
  endfacet
  facet normal -0.987688 0 0.156435
    outer loop
      vertex 6.5 11 21
      vertex 6.18187 2.00861 18.9914
      vertex 6.5 0 21
    endloop
  endfacet
  facet normal -0.987688 0 0.156435
    outer loop
      vertex 6.5 -11 21
      vertex 6.18187 -2.00861 18.9914
      vertex 6.18187 -11 18.9914
    endloop
  endfacet
  facet normal -0.987688 0 0.156435
    outer loop
      vertex 6.18187 -2.00861 18.9914
      vertex 6.5 -11 21
      vertex 6.5 -2.57167e-015 21
    endloop
  endfacet
  facet normal 0 0 0
    outer loop
      vertex 6.5 -2.57167e-015 21
      vertex 6.5 0 21
      vertex 6.5 -1.28584e-015 21
    endloop
  endfacet
  facet normal 0.987688 0 0.156435
    outer loop
      vertex -6.5 11 21
      vertex -6.18187 2.00861 18.9914
      vertex -6.18187 11 18.9914
    endloop
  endfacet
  facet normal 0.987688 0 0.156435
    outer loop
      vertex -6.18187 2.00861 18.9914
      vertex -6.5 11 21
      vertex -6.5 0 21
    endloop
  endfacet
  facet normal 0.987688 -0 0.156435
    outer loop
      vertex -6.5 -11 21
      vertex -6.18187 -2.00861 18.9914
      vertex -6.5 -2.57167e-015 21
    endloop
  endfacet
  facet normal 0.987688 0 0.156435
    outer loop
      vertex -6.18187 -2.00861 18.9914
      vertex -6.5 -11 21
      vertex -6.18187 -11 18.9914
    endloop
  endfacet
  facet normal 0 0 0
    outer loop
      vertex -6.5 -1.28584e-015 21
      vertex -6.5 0 21
      vertex -6.5 -2.57167e-015 21
    endloop
  endfacet
  facet normal -0.156435 0 0.987688
    outer loop
      vertex 0 6.5 14.5
      vertex 2.00861 11 14.8181
      vertex 0 11 14.5
    endloop
  endfacet
  facet normal -0.156435 0 0.987688
    outer loop
      vertex 2.00861 11 14.8181
      vertex 0 6.5 14.5
      vertex 2.00861 6.18187 14.8181
    endloop
  endfacet
  facet normal -0.156435 0 0.987688
    outer loop
      vertex 0 -6.5 14.5
      vertex 2.00861 -11 14.8181
      vertex 2.00861 -6.18187 14.8181
    endloop
  endfacet
  facet normal -0.156435 0 0.987688
    outer loop
      vertex 2.00861 -11 14.8181
      vertex 0 -6.5 14.5
      vertex 0 -11 14.5
    endloop
  endfacet
  facet normal -0.707107 0 0.707107
    outer loop
      vertex 3.8206 5.25861 15.7414
      vertex 5.25861 11 17.1794
      vertex 3.8206 11 15.7414
    endloop
  endfacet
  facet normal -0.707107 1.87857e-007 0.707107
    outer loop
      vertex 5.25861 11 17.1794
      vertex 3.8206 5.25861 15.7414
      vertex 5.25861 3.8206 17.1794
    endloop
  endfacet
  facet normal -0.707107 0 0.707107
    outer loop
      vertex 5.25861 -11 17.1794
      vertex 3.8206 -5.25861 15.7414
      vertex 3.8206 -11 15.7414
    endloop
  endfacet
  facet normal -0.707107 0 0.707107
    outer loop
      vertex 3.8206 -5.25861 15.7414
      vertex 5.25861 -11 17.1794
      vertex 5.25861 -3.8206 17.1794
    endloop
  endfacet
  facet normal -0.891007 1.20612e-007 0.45399
    outer loop
      vertex 5.25861 3.8206 17.1794
      vertex 6.18187 11 18.9914
      vertex 5.25861 11 17.1794
    endloop
  endfacet
  facet normal -0.891006 0 0.453991
    outer loop
      vertex 6.18187 11 18.9914
      vertex 5.25861 3.8206 17.1794
      vertex 6.18187 2.00861 18.9914
    endloop
  endfacet
  facet normal -0.891006 0 0.453991
    outer loop
      vertex 6.18187 -11 18.9914
      vertex 5.25861 -3.8206 17.1794
      vertex 5.25861 -11 17.1794
    endloop
  endfacet
  facet normal -0.891006 0 0.453991
    outer loop
      vertex 5.25861 -3.8206 17.1794
      vertex 6.18187 -11 18.9914
      vertex 6.18187 -2.00861 18.9914
    endloop
  endfacet
  facet normal -0.453991 0 0.891007
    outer loop
      vertex 2.00861 6.18187 14.8181
      vertex 3.8206 11 15.7414
      vertex 2.00861 11 14.8181
    endloop
  endfacet
  facet normal -0.453991 0 0.891007
    outer loop
      vertex 3.8206 11 15.7414
      vertex 2.00861 6.18187 14.8181
      vertex 3.8206 5.25861 15.7414
    endloop
  endfacet
  facet normal -0.453991 0 0.891007
    outer loop
      vertex 2.00861 -6.18187 14.8181
      vertex 3.8206 -11 15.7414
      vertex 3.8206 -5.25861 15.7414
    endloop
  endfacet
  facet normal -0.453991 0 0.891007
    outer loop
      vertex 3.8206 -11 15.7414
      vertex 2.00861 -6.18187 14.8181
      vertex 2.00861 -11 14.8181
    endloop
  endfacet
  facet normal 0.453991 0 0.891007
    outer loop
      vertex -3.8206 11 15.7414
      vertex -2.00861 6.18187 14.8181
      vertex -2.00861 11 14.8181
    endloop
  endfacet
  facet normal 0.453991 0 0.891007
    outer loop
      vertex -2.00861 6.18187 14.8181
      vertex -3.8206 11 15.7414
      vertex -3.8206 5.25861 15.7414
    endloop
  endfacet
  facet normal 0.453991 -0 0.891007
    outer loop
      vertex -3.8206 -11 15.7414
      vertex -2.00861 -6.18187 14.8181
      vertex -3.8206 -5.25861 15.7414
    endloop
  endfacet
  facet normal 0.453991 0 0.891007
    outer loop
      vertex -2.00861 -6.18187 14.8181
      vertex -3.8206 -11 15.7414
      vertex -2.00861 -11 14.8181
    endloop
  endfacet
  facet normal 0.707107 0 0.707107
    outer loop
      vertex -5.25861 11 17.1794
      vertex -3.8206 5.25861 15.7414
      vertex -3.8206 11 15.7414
    endloop
  endfacet
  facet normal 0.707107 1.87857e-007 0.707107
    outer loop
      vertex -3.8206 5.25861 15.7414
      vertex -5.25861 11 17.1794
      vertex -5.25861 3.8206 17.1794
    endloop
  endfacet
  facet normal 0.707107 -0 0.707107
    outer loop
      vertex -5.25861 -11 17.1794
      vertex -3.8206 -5.25861 15.7414
      vertex -5.25861 -3.8206 17.1794
    endloop
  endfacet
  facet normal 0.707107 0 0.707107
    outer loop
      vertex -3.8206 -5.25861 15.7414
      vertex -5.25861 -11 17.1794
      vertex -3.8206 -11 15.7414
    endloop
  endfacet
  facet normal 0.156435 0 0.987688
    outer loop
      vertex -2.00861 11 14.8181
      vertex 0 6.5 14.5
      vertex 0 11 14.5
    endloop
  endfacet
  facet normal 0.156435 0 0.987688
    outer loop
      vertex 0 6.5 14.5
      vertex -2.00861 11 14.8181
      vertex -2.00861 6.18187 14.8181
    endloop
  endfacet
  facet normal 0.156435 -0 0.987688
    outer loop
      vertex -2.00861 -11 14.8181
      vertex 0 -6.5 14.5
      vertex -2.00861 -6.18187 14.8181
    endloop
  endfacet
  facet normal 0.156435 0 0.987688
    outer loop
      vertex 0 -6.5 14.5
      vertex -2.00861 -11 14.8181
      vertex 0 -11 14.5
    endloop
  endfacet
  facet normal 0 0 0
    outer loop
      vertex -6.5 11 21
      vertex -6.5 1.28584e-015 21
      vertex -6.5 0 21
    endloop
  endfacet
  facet normal 0 0 0
    outer loop
      vertex -6.5 -2.57167e-015 21
      vertex -6.5 -3.85751e-015 21
      vertex -6.5 -11 21
    endloop
  endfacet
  facet normal 0 0 0
    outer loop
      vertex -6.5 0 21
      vertex -6.5 -1.28584e-015 21
      vertex -6.5 -2.57167e-015 21
    endloop
  endfacet
  facet normal 0.891007 1.20612e-007 0.45399
    outer loop
      vertex -6.18187 11 18.9914
      vertex -5.25861 3.8206 17.1794
      vertex -5.25861 11 17.1794
    endloop
  endfacet
  facet normal 0.891006 0 0.453991
    outer loop
      vertex -5.25861 3.8206 17.1794
      vertex -6.18187 11 18.9914
      vertex -6.18187 2.00861 18.9914
    endloop
  endfacet
  facet normal 0.891006 -0 0.453991
    outer loop
      vertex -6.18187 -11 18.9914
      vertex -5.25861 -3.8206 17.1794
      vertex -6.18187 -2.00861 18.9914
    endloop
  endfacet
  facet normal 0.891006 0 0.453991
    outer loop
      vertex -5.25861 -3.8206 17.1794
      vertex -6.18187 -11 18.9914
      vertex -5.25861 -11 17.1794
    endloop
  endfacet
  facet normal 0 0 0
    outer loop
      vertex 6.5 11 21
      vertex 6.5 0 21
      vertex 6.5 1.28584e-015 21
    endloop
  endfacet
  facet normal 0 0 0
    outer loop
      vertex 6.5 -2.57167e-015 21
      vertex 6.5 -11 21
      vertex 6.5 -3.85751e-015 21
    endloop
  endfacet
  facet normal 0 0 0
    outer loop
      vertex 6.5 0 21
      vertex 6.5 -2.57167e-015 21
      vertex 6.5 -1.28584e-015 21
    endloop
  endfacet
  facet normal -0.279983 0.861692 0.423198
    outer loop
      vertex -19.686 20.9461 40.995
      vertex -20.3995 20.2889 41.861
      vertex -19.8405 20.4705 41.861
    endloop
  endfacet
  facet normal -0.279981 -0.861692 0.423199
    outer loop
      vertex -20.3995 -20.2889 41.861
      vertex -20.804 -20.5828 40.995
      vertex -19.686 -20.9461 40.995
    endloop
  endfacet
  facet normal 0.733001 -0.532553 0.423199
    outer loop
      vertex 20.495 -19.995 41.861
      vertex 20.1495 -20.4705 41.861
      vertex 20.995 -19.995 40.995
    endloop
  endfacet
  facet normal -0.279983 0.861692 -0.423197
    outer loop
      vertex -19.8405 20.4705 0.138974
      vertex -20.3995 20.2889 0.138974
      vertex -19.686 20.9461 1.005
    endloop
  endfacet
  facet normal 0 0 -1
    outer loop
      vertex 5.875 -10.1758 0.138974
      vertex 20.495 -19.995 0.138974
      vertex 20.1495 -20.4705 0.138974
    endloop
  endfacet
  facet normal 0 0 -1
    outer loop
      vertex 20.495 -19.995 0.138974
      vertex 11.75 -5.12633e-015 0.138974
      vertex 20.495 19.995 0.138974
    endloop
  endfacet
  facet normal 0 0 -1
    outer loop
      vertex 5.875 10.1758 0.138974
      vertex 20.495 19.995 0.138974
      vertex 11.75 -5.12633e-015 0.138974
    endloop
  endfacet
  facet normal 0 0 -1
    outer loop
      vertex 20.495 -19.995 0.138974
      vertex 5.875 -10.1758 0.138974
      vertex 11.75 -5.12633e-015 0.138974
    endloop
  endfacet
  facet normal 0 0 -1
    outer loop
      vertex -19.8405 -20.4705 0.138974
      vertex 5.875 -10.1758 0.138974
      vertex 20.1495 -20.4705 0.138974
    endloop
  endfacet
  facet normal 0 0 -1
    outer loop
      vertex -20.3995 -20.2889 0.138974
      vertex -5.875 -10.1758 0.138974
      vertex -19.8405 -20.4705 0.138974
    endloop
  endfacet
  facet normal -0 0 -1
    outer loop
      vertex 5.875 -10.1758 0.138974
      vertex -19.8405 -20.4705 0.138974
      vertex -5.875 -10.1758 0.138974
    endloop
  endfacet
  facet normal -0 0 -1
    outer loop
      vertex 20.495 19.995 0.138974
      vertex 5.875 10.1758 0.138974
      vertex 20.1495 20.4705 0.138974
    endloop
  endfacet
  facet normal 0 0 -1
    outer loop
      vertex -19.8405 20.4705 0.138974
      vertex 5.875 10.1758 0.138974
      vertex -5.875 10.1758 0.138974
    endloop
  endfacet
  facet normal 0 0 -1
    outer loop
      vertex 5.875 10.1758 0.138974
      vertex -19.8405 20.4705 0.138974
      vertex 20.1495 20.4705 0.138974
    endloop
  endfacet
  facet normal 0 0 -1
    outer loop
      vertex -20.3995 20.2889 0.138974
      vertex -5.875 10.1758 0.138974
      vertex -11.75 -5.12633e-015 0.138974
    endloop
  endfacet
  facet normal -0 0 -1
    outer loop
      vertex -5.875 -10.1758 0.138974
      vertex -20.3995 -20.2889 0.138974
      vertex -11.75 -5.12633e-015 0.138974
    endloop
  endfacet
  facet normal 0 0 -1
    outer loop
      vertex -20.3995 20.2889 0.138974
      vertex -11.75 -5.12633e-015 0.138974
      vertex -20.3995 -20.2889 0.138974
    endloop
  endfacet
  facet normal 0 0 -1
    outer loop
      vertex -5.875 10.1758 0.138974
      vertex -20.3995 20.2889 0.138974
      vertex -19.8405 20.4705 0.138974
    endloop
  endfacet
  facet normal -0.906038 0 -0.423196
    outer loop
      vertex -20.3995 -20.2889 0.138974
      vertex -20.804 20.5828 1.005
      vertex -20.3995 20.2889 0.138974
    endloop
  endfacet
  facet normal -0.906038 -0 -0.423196
    outer loop
      vertex -20.804 20.5828 1.005
      vertex -20.3995 -20.2889 0.138974
      vertex -20.804 -20.5828 1.005
    endloop
  endfacet
  facet normal -0.279981 -0.861692 -0.423198
    outer loop
      vertex -19.686 -20.9461 1.005
      vertex -20.804 -20.5828 1.005
      vertex -20.3995 -20.2889 0.138974
    endloop
  endfacet
  facet normal 0.809017 -0.587785 0
    outer loop
      vertex 20.304 -20.9461 40.995
      vertex 20.995 -19.995 1.005
      vertex 20.995 -19.995 40.995
    endloop
  endfacet
  facet normal 0.809017 -0.587785 0
    outer loop
      vertex 20.995 -19.995 1.005
      vertex 20.304 -20.9461 40.995
      vertex 20.304 -20.9461 1.005
    endloop
  endfacet
  facet normal 0.733 0.532555 0.423197
    outer loop
      vertex 20.304 20.9461 40.995
      vertex 20.1495 20.4705 41.861
      vertex 20.995 19.995 40.995
    endloop
  endfacet
  facet normal -0.279983 -0.861692 -0.423197
    outer loop
      vertex -19.686 -20.9461 1.005
      vertex -20.3995 -20.2889 0.138974
      vertex -19.8405 -20.4705 0.138974
    endloop
  endfacet
  facet normal -0 -0.876551 -0.481309
    outer loop
      vertex 20.1495 -20.4705 0.138974
      vertex -19.686 -20.9461 1.005
      vertex -19.8405 -20.4705 0.138974
    endloop
  endfacet
  facet normal 0 -0.876551 -0.481309
    outer loop
      vertex -19.686 -20.9461 1.005
      vertex 20.1495 -20.4705 0.138974
      vertex 20.304 -20.9461 1.005
    endloop
  endfacet
  facet normal -1 0 0
    outer loop
      vertex -20.804 -20.5828 1.005
      vertex -20.804 20.5828 40.995
      vertex -20.804 20.5828 1.005
    endloop
  endfacet
  facet normal -1 -0 0
    outer loop
      vertex -20.804 20.5828 40.995
      vertex -20.804 -20.5828 1.005
      vertex -20.804 -20.5828 40.995
    endloop
  endfacet
  facet normal -0.279981 0.861692 -0.423198
    outer loop
      vertex -20.3995 20.2889 0.138974
      vertex -20.804 20.5828 1.005
      vertex -19.686 20.9461 1.005
    endloop
  endfacet
  facet normal -0.309017 -0.951056 0
    outer loop
      vertex -20.804 -20.5828 1.005
      vertex -19.686 -20.9461 40.995
      vertex -20.804 -20.5828 40.995
    endloop
  endfacet
  facet normal -0.309017 -0.951056 -0
    outer loop
      vertex -19.686 -20.9461 40.995
      vertex -20.804 -20.5828 1.005
      vertex -19.686 -20.9461 1.005
    endloop
  endfacet
  facet normal 0.866025 0 -0.5
    outer loop
      vertex 20.995 -19.995 1.005
      vertex 20.495 19.995 0.138974
      vertex 20.995 19.995 1.005
    endloop
  endfacet
  facet normal 0.866025 0 -0.5
    outer loop
      vertex 20.495 19.995 0.138974
      vertex 20.995 -19.995 1.005
      vertex 20.495 -19.995 0.138974
    endloop
  endfacet
  facet normal 0 -1 0
    outer loop
      vertex 5.875 -20.9461 31.1758
      vertex -19.686 -20.9461 40.995
      vertex -5.875 -20.9461 31.1758
    endloop
  endfacet
  facet normal 0 -1 0
    outer loop
      vertex -19.686 -20.9461 40.995
      vertex -11.75 -20.9461 21
      vertex -5.875 -20.9461 31.1758
    endloop
  endfacet
  facet normal 0 -1 -0
    outer loop
      vertex -5.875 -20.9461 10.8242
      vertex -19.686 -20.9461 1.005
      vertex 5.875 -20.9461 10.8242
    endloop
  endfacet
  facet normal 0 -1 -0
    outer loop
      vertex -11.75 -20.9461 21
      vertex -19.686 -20.9461 1.005
      vertex -5.875 -20.9461 10.8242
    endloop
  endfacet
  facet normal 0 -1 0
    outer loop
      vertex -19.686 -20.9461 1.005
      vertex -11.75 -20.9461 21
      vertex -19.686 -20.9461 40.995
    endloop
  endfacet
  facet normal 0 -1 0
    outer loop
      vertex -19.686 -20.9461 40.995
      vertex 5.875 -20.9461 31.1758
      vertex 20.304 -20.9461 40.995
    endloop
  endfacet
  facet normal 0 -1 0
    outer loop
      vertex 11.75 -20.9461 21
      vertex 20.304 -20.9461 40.995
      vertex 5.875 -20.9461 31.1758
    endloop
  endfacet
  facet normal 0 -1 0
    outer loop
      vertex 11.75 -20.9461 21
      vertex 20.304 -20.9461 1.005
      vertex 20.304 -20.9461 40.995
    endloop
  endfacet
  facet normal 0 -1 0
    outer loop
      vertex 5.875 -20.9461 10.8242
      vertex 20.304 -20.9461 1.005
      vertex 11.75 -20.9461 21
    endloop
  endfacet
  facet normal 0 -1 0
    outer loop
      vertex 20.304 -20.9461 1.005
      vertex 5.875 -20.9461 10.8242
      vertex -19.686 -20.9461 1.005
    endloop
  endfacet
  facet normal -0.309017 0.951056 0
    outer loop
      vertex -19.686 20.9461 1.005
      vertex -20.804 20.5828 40.995
      vertex -19.686 20.9461 40.995
    endloop
  endfacet
  facet normal -0.309017 0.951056 0
    outer loop
      vertex -20.804 20.5828 40.995
      vertex -19.686 20.9461 1.005
      vertex -20.804 20.5828 1.005
    endloop
  endfacet
  facet normal -0 0.876551 0.481309
    outer loop
      vertex -19.686 20.9461 40.995
      vertex 20.1495 20.4705 41.861
      vertex 20.304 20.9461 40.995
    endloop
  endfacet
  facet normal 0 0.876551 0.481309
    outer loop
      vertex 20.1495 20.4705 41.861
      vertex -19.686 20.9461 40.995
      vertex -19.8405 20.4705 41.861
    endloop
  endfacet
  facet normal 0 -0.876551 0.481309
    outer loop
      vertex -19.686 -20.9461 40.995
      vertex 20.1495 -20.4705 41.861
      vertex -19.8405 -20.4705 41.861
    endloop
  endfacet
  facet normal 0 -0.876551 0.481309
    outer loop
      vertex 20.1495 -20.4705 41.861
      vertex -19.686 -20.9461 40.995
      vertex 20.304 -20.9461 40.995
    endloop
  endfacet
  facet normal -0.906038 0 0.423197
    outer loop
      vertex -20.804 20.5828 40.995
      vertex -20.3995 -20.2889 41.861
      vertex -20.3995 20.2889 41.861
    endloop
  endfacet
  facet normal -0.906038 0 0.423197
    outer loop
      vertex -20.3995 -20.2889 41.861
      vertex -20.804 20.5828 40.995
      vertex -20.804 -20.5828 40.995
    endloop
  endfacet
  facet normal -0.279981 0.861692 0.423199
    outer loop
      vertex -19.686 20.9461 40.995
      vertex -20.804 20.5828 40.995
      vertex -20.3995 20.2889 41.861
    endloop
  endfacet
  facet normal 0.809017 0.587785 0
    outer loop
      vertex 20.995 19.995 40.995
      vertex 20.304 20.9461 1.005
      vertex 20.304 20.9461 40.995
    endloop
  endfacet
  facet normal 0.809017 0.587785 0
    outer loop
      vertex 20.304 20.9461 1.005
      vertex 20.995 19.995 40.995
      vertex 20.995 19.995 1.005
    endloop
  endfacet
  facet normal 0.733001 0.532553 0.423199
    outer loop
      vertex 20.995 19.995 40.995
      vertex 20.1495 20.4705 41.861
      vertex 20.495 19.995 41.861
    endloop
  endfacet
  facet normal 1 -0 0
    outer loop
      vertex 20.995 -19.995 40.995
      vertex 20.995 19.995 1.005
      vertex 20.995 19.995 40.995
    endloop
  endfacet
  facet normal 1 0 0
    outer loop
      vertex 20.995 19.995 1.005
      vertex 20.995 -19.995 40.995
      vertex 20.995 -19.995 1.005
    endloop
  endfacet
  facet normal 0.733 0.532555 -0.423197
    outer loop
      vertex 20.995 19.995 1.005
      vertex 20.1495 20.4705 0.138974
      vertex 20.304 20.9461 1.005
    endloop
  endfacet
  facet normal -0.279983 -0.861692 0.423198
    outer loop
      vertex -19.8405 -20.4705 41.861
      vertex -20.3995 -20.2889 41.861
      vertex -19.686 -20.9461 40.995
    endloop
  endfacet
  facet normal 0 0 1
    outer loop
      vertex 5.875 10.1758 41.861
      vertex 20.495 19.995 41.861
      vertex 20.1495 20.4705 41.861
    endloop
  endfacet
  facet normal 0 0 1
    outer loop
      vertex 20.495 19.995 41.861
      vertex 11.75 0 41.861
      vertex 20.495 -19.995 41.861
    endloop
  endfacet
  facet normal -0 0 1
    outer loop
      vertex 5.875 -10.1758 41.861
      vertex 20.495 -19.995 41.861
      vertex 11.75 0 41.861
    endloop
  endfacet
  facet normal 0 0 1
    outer loop
      vertex 20.495 19.995 41.861
      vertex 5.875 10.1758 41.861
      vertex 11.75 0 41.861
    endloop
  endfacet
  facet normal -0 0 1
    outer loop
      vertex -19.8405 20.4705 41.861
      vertex 5.875 10.1758 41.861
      vertex 20.1495 20.4705 41.861
    endloop
  endfacet
  facet normal -0 0 1
    outer loop
      vertex -20.3995 20.2889 41.861
      vertex -5.875 10.1758 41.861
      vertex -19.8405 20.4705 41.861
    endloop
  endfacet
  facet normal 0 0 1
    outer loop
      vertex 5.875 10.1758 41.861
      vertex -19.8405 20.4705 41.861
      vertex -5.875 10.1758 41.861
    endloop
  endfacet
  facet normal 0 0 1
    outer loop
      vertex 20.495 -19.995 41.861
      vertex 5.875 -10.1758 41.861
      vertex 20.1495 -20.4705 41.861
    endloop
  endfacet
  facet normal 0 0 1
    outer loop
      vertex -19.8405 -20.4705 41.861
      vertex 5.875 -10.1758 41.861
      vertex -5.875 -10.1758 41.861
    endloop
  endfacet
  facet normal 0 0 1
    outer loop
      vertex 5.875 -10.1758 41.861
      vertex -19.8405 -20.4705 41.861
      vertex 20.1495 -20.4705 41.861
    endloop
  endfacet
  facet normal 0 0 1
    outer loop
      vertex -20.3995 -20.2889 41.861
      vertex -5.875 -10.1758 41.861
      vertex -11.75 0 41.861
    endloop
  endfacet
  facet normal 0 0 1
    outer loop
      vertex -5.875 10.1758 41.861
      vertex -20.3995 20.2889 41.861
      vertex -11.75 0 41.861
    endloop
  endfacet
  facet normal 0 0 1
    outer loop
      vertex -20.3995 -20.2889 41.861
      vertex -11.75 0 41.861
      vertex -20.3995 20.2889 41.861
    endloop
  endfacet
  facet normal 0 0 1
    outer loop
      vertex -5.875 -10.1758 41.861
      vertex -20.3995 -20.2889 41.861
      vertex -19.8405 -20.4705 41.861
    endloop
  endfacet
  facet normal 0.733001 0.532553 -0.423199
    outer loop
      vertex 20.495 19.995 0.138974
      vertex 20.1495 20.4705 0.138974
      vertex 20.995 19.995 1.005
    endloop
  endfacet
  facet normal 0.733 -0.532555 -0.423197
    outer loop
      vertex 20.304 -20.9461 1.005
      vertex 20.1495 -20.4705 0.138974
      vertex 20.995 -19.995 1.005
    endloop
  endfacet
  facet normal 0.733001 -0.532553 -0.423199
    outer loop
      vertex 20.995 -19.995 1.005
      vertex 20.1495 -20.4705 0.138974
      vertex 20.495 -19.995 0.138974
    endloop
  endfacet
  facet normal 0.866025 -0 0.500001
    outer loop
      vertex 20.495 -19.995 41.861
      vertex 20.995 19.995 40.995
      vertex 20.495 19.995 41.861
    endloop
  endfacet
  facet normal 0.866025 0 0.500001
    outer loop
      vertex 20.995 19.995 40.995
      vertex 20.495 -19.995 41.861
      vertex 20.995 -19.995 40.995
    endloop
  endfacet
  facet normal 0.733 -0.532555 0.423197
    outer loop
      vertex 20.995 -19.995 40.995
      vertex 20.1495 -20.4705 41.861
      vertex 20.304 -20.9461 40.995
    endloop
  endfacet
  facet normal 0 1 0
    outer loop
      vertex 20.304 20.9461 40.995
      vertex 5.875 20.9461 31.1758
      vertex -19.686 20.9461 40.995
    endloop
  endfacet
  facet normal 0 1 0
    outer loop
      vertex 20.304 20.9461 40.995
      vertex 11.75 20.9461 21
      vertex 5.875 20.9461 31.1758
    endloop
  endfacet
  facet normal 0 1 0
    outer loop
      vertex -19.686 20.9461 1.005
      vertex 5.875 20.9461 10.8242
      vertex 20.304 20.9461 1.005
    endloop
  endfacet
  facet normal 0 1 0
    outer loop
      vertex 11.75 20.9461 21
      vertex 20.304 20.9461 1.005
      vertex 5.875 20.9461 10.8242
    endloop
  endfacet
  facet normal 0 1 -0
    outer loop
      vertex 20.304 20.9461 1.005
      vertex 11.75 20.9461 21
      vertex 20.304 20.9461 40.995
    endloop
  endfacet
  facet normal 0 1 -0
    outer loop
      vertex -5.875 20.9461 31.1758
      vertex -19.686 20.9461 40.995
      vertex 5.875 20.9461 31.1758
    endloop
  endfacet
  facet normal 0 1 -0
    outer loop
      vertex -11.75 20.9461 21
      vertex -19.686 20.9461 40.995
      vertex -5.875 20.9461 31.1758
    endloop
  endfacet
  facet normal 0 1 0
    outer loop
      vertex -11.75 20.9461 21
      vertex -19.686 20.9461 1.005
      vertex -19.686 20.9461 40.995
    endloop
  endfacet
  facet normal 0 1 0
    outer loop
      vertex -5.875 20.9461 10.8242
      vertex -19.686 20.9461 1.005
      vertex -11.75 20.9461 21
    endloop
  endfacet
  facet normal 0 1 0
    outer loop
      vertex 5.875 20.9461 10.8242
      vertex -19.686 20.9461 1.005
      vertex -5.875 20.9461 10.8242
    endloop
  endfacet
  facet normal 0 0.876551 -0.481309
    outer loop
      vertex 20.1495 20.4705 0.138974
      vertex -19.686 20.9461 1.005
      vertex 20.304 20.9461 1.005
    endloop
  endfacet
  facet normal 0 0.876551 -0.481309
    outer loop
      vertex -19.686 20.9461 1.005
      vertex 20.1495 20.4705 0.138974
      vertex -19.8405 20.4705 0.138974
    endloop
  endfacet
endsolid OpenSCAD_Model
