solid OpenSCAD_Model
  facet normal 0.5 -0.866025 0
    outer loop
      vertex -3.4641 4 0.0499998
      vertex 8.88178e-016 6 2.8
      vertex -3.4641 4 2.8
    endloop
  endfacet
  facet normal 0.5 -0.866025 0
    outer loop
      vertex 8.88178e-016 6 2.8
      vertex -3.4641 4 0.0499998
      vertex 8.88178e-016 6 0.0499998
    endloop
  endfacet
  facet normal 0.5 0.866025 -0
    outer loop
      vertex -8.88178e-016 -2 0.0499998
      vertex -3.4641 9.53674e-007 2.8
      vertex -8.88178e-016 -2 2.8
    endloop
  endfacet
  facet normal 0.5 0.866025 0
    outer loop
      vertex -3.4641 9.53674e-007 2.8
      vertex -8.88178e-016 -2 0.0499998
      vertex -3.4641 9.53674e-007 0.0499998
    endloop
  endfacet
  facet normal 1 -0 0
    outer loop
      vertex -3.4641 9.53674e-007 2.8
      vertex -3.4641 4 0.0499998
      vertex -3.4641 4 2.8
    endloop
  endfacet
  facet normal 1 0 0
    outer loop
      vertex -3.4641 4 0.0499998
      vertex -3.4641 9.53674e-007 2.8
      vertex -3.4641 9.53674e-007 0.0499998
    endloop
  endfacet
  facet normal 0 0 1
    outer loop
      vertex 3.4641 4 0.0499998
      vertex 2.3 2 0.0499998
      vertex 3.4641 -7.69185e-016 0.0499998
    endloop
  endfacet
  facet normal 0 0 1
    outer loop
      vertex 3.4641 4 0.0499998
      vertex 2.18743 2.71074 0.0499998
      vertex 2.3 2 0.0499998
    endloop
  endfacet
  facet normal 0 0 1
    outer loop
      vertex 3.4641 4 0.0499998
      vertex 1.86074 3.35191 0.0499998
      vertex 2.18743 2.71074 0.0499998
    endloop
  endfacet
  facet normal 0 0 1
    outer loop
      vertex 3.4641 4 0.0499998
      vertex 1.35191 3.86074 0.0499998
      vertex 1.86074 3.35191 0.0499998
    endloop
  endfacet
  facet normal 0 0 1
    outer loop
      vertex 8.88178e-016 6 0.0499998
      vertex 1.35191 3.86074 0.0499998
      vertex 3.4641 4 0.0499998
    endloop
  endfacet
  facet normal 0 0 1
    outer loop
      vertex 1.35191 3.86074 0.0499998
      vertex 8.88178e-016 6 0.0499998
      vertex 0.710738 4.18743 0.0499998
    endloop
  endfacet
  facet normal 0 0 1
    outer loop
      vertex 8.88178e-016 6 0.0499998
      vertex 5.10702e-016 4.3 0.0499998
      vertex 0.710738 4.18743 0.0499998
    endloop
  endfacet
  facet normal 0 0 1
    outer loop
      vertex 8.88178e-016 6 0.0499998
      vertex -0.710738 4.18743 0.0499998
      vertex 5.10702e-016 4.3 0.0499998
    endloop
  endfacet
  facet normal 0 0 1
    outer loop
      vertex 8.88178e-016 6 0.0499998
      vertex -1.35191 3.86074 0.0499998
      vertex -0.710738 4.18743 0.0499998
    endloop
  endfacet
  facet normal -0 0 1
    outer loop
      vertex -3.4641 4 0.0499998
      vertex -1.35191 3.86074 0.0499998
      vertex 8.88178e-016 6 0.0499998
    endloop
  endfacet
  facet normal 0 0 1
    outer loop
      vertex -2.18743 2.71074 0.0499998
      vertex -3.4641 4 0.0499998
      vertex -2.3 2 0.0499998
    endloop
  endfacet
  facet normal 0 0 1
    outer loop
      vertex -1.86074 3.35191 0.0499998
      vertex -3.4641 4 0.0499998
      vertex -2.18743 2.71074 0.0499998
    endloop
  endfacet
  facet normal 0 0 1
    outer loop
      vertex -1.35191 3.86074 0.0499998
      vertex -3.4641 4 0.0499998
      vertex -1.86074 3.35191 0.0499998
    endloop
  endfacet
  facet normal -0 0 1
    outer loop
      vertex 2.18743 1.28926 0.0499998
      vertex 3.4641 -7.69185e-016 0.0499998
      vertex 2.3 2 0.0499998
    endloop
  endfacet
  facet normal -0 0 1
    outer loop
      vertex 1.86074 0.648094 0.0499998
      vertex 3.4641 -7.69185e-016 0.0499998
      vertex 2.18743 1.28926 0.0499998
    endloop
  endfacet
  facet normal -0 0 1
    outer loop
      vertex 1.35191 0.139261 0.0499998
      vertex 3.4641 -7.69185e-016 0.0499998
      vertex 1.86074 0.648094 0.0499998
    endloop
  endfacet
  facet normal 0 0 1
    outer loop
      vertex -8.88178e-016 -2 0.0499998
      vertex 1.35191 0.139261 0.0499998
      vertex 0.710738 -0.187429 0.0499998
    endloop
  endfacet
  facet normal 0 0 1
    outer loop
      vertex -8.88178e-016 -2 0.0499998
      vertex 0.710738 -0.187429 0.0499998
      vertex -5.10702e-016 -0.299999 0.0499998
    endloop
  endfacet
  facet normal 0 0 1
    outer loop
      vertex 1.35191 0.139261 0.0499998
      vertex -8.88178e-016 -2 0.0499998
      vertex 3.4641 -7.69185e-016 0.0499998
    endloop
  endfacet
  facet normal 0 0 1
    outer loop
      vertex -0.710738 -0.187429 0.0499998
      vertex -8.88178e-016 -2 0.0499998
      vertex -5.10702e-016 -0.299999 0.0499998
    endloop
  endfacet
  facet normal 0 0 1
    outer loop
      vertex -1.35191 0.139261 0.0499998
      vertex -8.88178e-016 -2 0.0499998
      vertex -0.710738 -0.187429 0.0499998
    endloop
  endfacet
  facet normal 0 0 1
    outer loop
      vertex -3.4641 9.53674e-007 0.0499998
      vertex -1.35191 0.139261 0.0499998
      vertex -1.86074 0.648094 0.0499998
    endloop
  endfacet
  facet normal 0 0 1
    outer loop
      vertex -3.4641 9.53674e-007 0.0499998
      vertex -2.3 2 0.0499998
      vertex -3.4641 4 0.0499998
    endloop
  endfacet
  facet normal 0 0 1
    outer loop
      vertex -1.35191 0.139261 0.0499998
      vertex -3.4641 9.53674e-007 0.0499998
      vertex -8.88178e-016 -2 0.0499998
    endloop
  endfacet
  facet normal 0 0 1
    outer loop
      vertex -2.18743 1.28926 0.0499998
      vertex -3.4641 9.53674e-007 0.0499998
      vertex -1.86074 0.648094 0.0499998
    endloop
  endfacet
  facet normal 0 0 1
    outer loop
      vertex -2.3 2 0.0499998
      vertex -3.4641 9.53674e-007 0.0499998
      vertex -2.18743 1.28926 0.0499998
    endloop
  endfacet
  facet normal -1 0 0
    outer loop
      vertex 3.4641 -7.69185e-016 0.0499998
      vertex 3.4641 4 2.8
      vertex 3.4641 4 0.0499998
    endloop
  endfacet
  facet normal -1 -0 0
    outer loop
      vertex 3.4641 4 2.8
      vertex 3.4641 -7.69185e-016 0.0499998
      vertex 3.4641 -7.69185e-016 2.8
    endloop
  endfacet
  facet normal -0.5 0.866025 0
    outer loop
      vertex 3.4641 -7.69185e-016 0.0499998
      vertex -8.88178e-016 -2 2.8
      vertex 3.4641 -7.69185e-016 2.8
    endloop
  endfacet
  facet normal -0.5 0.866025 0
    outer loop
      vertex -8.88178e-016 -2 2.8
      vertex 3.4641 -7.69185e-016 0.0499998
      vertex -8.88178e-016 -2 0.0499998
    endloop
  endfacet
  facet normal -0.5 -0.866025 0
    outer loop
      vertex 8.88178e-016 6 0.0499998
      vertex 3.4641 4 2.8
      vertex 8.88178e-016 6 2.8
    endloop
  endfacet
  facet normal -0.5 -0.866025 -0
    outer loop
      vertex 3.4641 4 2.8
      vertex 8.88178e-016 6 0.0499998
      vertex 3.4641 4 0.0499998
    endloop
  endfacet
  facet normal 0.156434 -0.987688 0
    outer loop
      vertex -0.710738 4.18743 -2.8
      vertex 5.10702e-016 4.3 0.0499998
      vertex -0.710738 4.18743 0.0499998
    endloop
  endfacet
  facet normal 0.156434 -0.987688 0
    outer loop
      vertex 5.10702e-016 4.3 0.0499998
      vertex -0.710738 4.18743 -2.8
      vertex 5.10702e-016 4.3 -2.8
    endloop
  endfacet
  facet normal 0.156434 0.987688 -0
    outer loop
      vertex -5.10702e-016 -0.299999 -2.8
      vertex -0.710738 -0.187429 0.0499998
      vertex -5.10702e-016 -0.299999 0.0499998
    endloop
  endfacet
  facet normal 0.156434 0.987688 0
    outer loop
      vertex -0.710738 -0.187429 0.0499998
      vertex -5.10702e-016 -0.299999 -2.8
      vertex -0.710738 -0.187429 -2.8
    endloop
  endfacet
  facet normal 0.987688 -0.156434 0
    outer loop
      vertex -2.3 2 0.0499998
      vertex -2.18743 2.71074 -2.8
      vertex -2.18743 2.71074 0.0499998
    endloop
  endfacet
  facet normal 0.987688 -0.156434 0
    outer loop
      vertex -2.18743 2.71074 -2.8
      vertex -2.3 2 0.0499998
      vertex -2.3 2 -2.8
    endloop
  endfacet
  facet normal -0.987688 0.156434 0
    outer loop
      vertex 2.18743 1.28926 -2.8
      vertex 2.3 2 0.0499998
      vertex 2.3 2 -2.8
    endloop
  endfacet
  facet normal -0.987688 0.156434 0
    outer loop
      vertex 2.3 2 0.0499998
      vertex 2.18743 1.28926 -2.8
      vertex 2.18743 1.28926 0.0499998
    endloop
  endfacet
  facet normal 0.707107 -0.707107 0
    outer loop
      vertex -1.86074 3.35191 0.0499998
      vertex -1.35191 3.86074 -2.8
      vertex -1.35191 3.86074 0.0499998
    endloop
  endfacet
  facet normal 0.707107 -0.707107 0
    outer loop
      vertex -1.35191 3.86074 -2.8
      vertex -1.86074 3.35191 0.0499998
      vertex -1.86074 3.35191 -2.8
    endloop
  endfacet
  facet normal 0.45399 -0.891007 0
    outer loop
      vertex -1.35191 3.86074 -2.8
      vertex -0.710738 4.18743 0.0499998
      vertex -1.35191 3.86074 0.0499998
    endloop
  endfacet
  facet normal 0.45399 -0.891007 0
    outer loop
      vertex -0.710738 4.18743 0.0499998
      vertex -1.35191 3.86074 -2.8
      vertex -0.710738 4.18743 -2.8
    endloop
  endfacet
  facet normal 0.891007 -0.45399 0
    outer loop
      vertex -2.18743 2.71074 0.0499998
      vertex -1.86074 3.35191 -2.8
      vertex -1.86074 3.35191 0.0499998
    endloop
  endfacet
  facet normal 0.891007 -0.45399 0
    outer loop
      vertex -1.86074 3.35191 -2.8
      vertex -2.18743 2.71074 0.0499998
      vertex -2.18743 2.71074 -2.8
    endloop
  endfacet
  facet normal 0.891007 0.45399 0
    outer loop
      vertex -1.86074 0.648094 0.0499998
      vertex -2.18743 1.28926 -2.8
      vertex -2.18743 1.28926 0.0499998
    endloop
  endfacet
  facet normal 0.891007 0.45399 0
    outer loop
      vertex -2.18743 1.28926 -2.8
      vertex -1.86074 0.648094 0.0499998
      vertex -1.86074 0.648094 -2.8
    endloop
  endfacet
  facet normal 0.707107 0.707107 0
    outer loop
      vertex -1.35191 0.139261 0.0499998
      vertex -1.86074 0.648094 -2.8
      vertex -1.86074 0.648094 0.0499998
    endloop
  endfacet
  facet normal 0.707107 0.707107 0
    outer loop
      vertex -1.86074 0.648094 -2.8
      vertex -1.35191 0.139261 0.0499998
      vertex -1.35191 0.139261 -2.8
    endloop
  endfacet
  facet normal 0.987688 0.156434 0
    outer loop
      vertex -2.18743 1.28926 0.0499998
      vertex -2.3 2 -2.8
      vertex -2.3 2 0.0499998
    endloop
  endfacet
  facet normal 0.987688 0.156434 0
    outer loop
      vertex -2.3 2 -2.8
      vertex -2.18743 1.28926 0.0499998
      vertex -2.18743 1.28926 -2.8
    endloop
  endfacet
  facet normal -0.45399 -0.891007 0
    outer loop
      vertex 0.710738 4.18743 -2.8
      vertex 1.35191 3.86074 0.0499998
      vertex 0.710738 4.18743 0.0499998
    endloop
  endfacet
  facet normal -0.45399 -0.891007 -0
    outer loop
      vertex 1.35191 3.86074 0.0499998
      vertex 0.710738 4.18743 -2.8
      vertex 1.35191 3.86074 -2.8
    endloop
  endfacet
  facet normal -0.707107 0.707107 0
    outer loop
      vertex 1.35191 0.139261 -2.8
      vertex 1.86074 0.648094 0.0499998
      vertex 1.86074 0.648094 -2.8
    endloop
  endfacet
  facet normal -0.707107 0.707107 0
    outer loop
      vertex 1.86074 0.648094 0.0499998
      vertex 1.35191 0.139261 -2.8
      vertex 1.35191 0.139261 0.0499998
    endloop
  endfacet
  facet normal -0.156434 0.987688 0
    outer loop
      vertex 0.710738 -0.187429 -2.8
      vertex -5.10702e-016 -0.299999 0.0499998
      vertex 0.710738 -0.187429 0.0499998
    endloop
  endfacet
  facet normal -0.156434 0.987688 0
    outer loop
      vertex -5.10702e-016 -0.299999 0.0499998
      vertex 0.710738 -0.187429 -2.8
      vertex -5.10702e-016 -0.299999 -2.8
    endloop
  endfacet
  facet normal 0.45399 0.891007 -0
    outer loop
      vertex -0.710738 -0.187429 -2.8
      vertex -1.35191 0.139261 0.0499998
      vertex -0.710738 -0.187429 0.0499998
    endloop
  endfacet
  facet normal 0.45399 0.891007 0
    outer loop
      vertex -1.35191 0.139261 0.0499998
      vertex -0.710738 -0.187429 -2.8
      vertex -1.35191 0.139261 -2.8
    endloop
  endfacet
  facet normal -0.156434 -0.987688 0
    outer loop
      vertex 5.10702e-016 4.3 -2.8
      vertex 0.710738 4.18743 0.0499998
      vertex 5.10702e-016 4.3 0.0499998
    endloop
  endfacet
  facet normal -0.156434 -0.987688 -0
    outer loop
      vertex 0.710738 4.18743 0.0499998
      vertex 5.10702e-016 4.3 -2.8
      vertex 0.710738 4.18743 -2.8
    endloop
  endfacet
  facet normal -0.987688 -0.156434 0
    outer loop
      vertex 2.3 2 -2.8
      vertex 2.18743 2.71074 0.0499998
      vertex 2.18743 2.71074 -2.8
    endloop
  endfacet
  facet normal -0.987688 -0.156434 0
    outer loop
      vertex 2.18743 2.71074 0.0499998
      vertex 2.3 2 -2.8
      vertex 2.3 2 0.0499998
    endloop
  endfacet
  facet normal -0.707107 -0.707107 0
    outer loop
      vertex 1.86074 3.35191 -2.8
      vertex 1.35191 3.86074 0.0499998
      vertex 1.35191 3.86074 -2.8
    endloop
  endfacet
  facet normal -0.707107 -0.707107 0
    outer loop
      vertex 1.35191 3.86074 0.0499998
      vertex 1.86074 3.35191 -2.8
      vertex 1.86074 3.35191 0.0499998
    endloop
  endfacet
  facet normal -0.891007 0.45399 0
    outer loop
      vertex 1.86074 0.648094 -2.8
      vertex 2.18743 1.28926 0.0499998
      vertex 2.18743 1.28926 -2.8
    endloop
  endfacet
  facet normal -0.891007 0.45399 0
    outer loop
      vertex 2.18743 1.28926 0.0499998
      vertex 1.86074 0.648094 -2.8
      vertex 1.86074 0.648094 0.0499998
    endloop
  endfacet
  facet normal -0.45399 0.891007 0
    outer loop
      vertex 1.35191 0.139261 -2.8
      vertex 0.710738 -0.187429 0.0499998
      vertex 1.35191 0.139261 0.0499998
    endloop
  endfacet
  facet normal -0.45399 0.891007 0
    outer loop
      vertex 0.710738 -0.187429 0.0499998
      vertex 1.35191 0.139261 -2.8
      vertex 0.710738 -0.187429 -2.8
    endloop
  endfacet
  facet normal -0.891007 -0.45399 0
    outer loop
      vertex 2.18743 2.71074 -2.8
      vertex 1.86074 3.35191 0.0499998
      vertex 1.86074 3.35191 -2.8
    endloop
  endfacet
  facet normal -0.891007 -0.45399 0
    outer loop
      vertex 1.86074 3.35191 0.0499998
      vertex 2.18743 2.71074 -2.8
      vertex 2.18743 2.71074 0.0499998
    endloop
  endfacet
  facet normal 0.5 -0.866025 0
    outer loop
      vertex -2.90119 13.675 0.85
      vertex 7.43849e-016 15.35 2.8
      vertex -2.90119 13.675 2.8
    endloop
  endfacet
  facet normal 0.5 -0.866025 0
    outer loop
      vertex 7.43849e-016 15.35 2.8
      vertex -2.90119 13.675 0.85
      vertex 7.43849e-016 15.35 0.85
    endloop
  endfacet
  facet normal 0.5 0.866025 -0
    outer loop
      vertex -7.43849e-016 8.65 0.85
      vertex -2.90119 10.325 2.8
      vertex -7.43849e-016 8.65 2.8
    endloop
  endfacet
  facet normal 0.5 0.866025 0
    outer loop
      vertex -2.90119 10.325 2.8
      vertex -7.43849e-016 8.65 0.85
      vertex -2.90119 10.325 0.85
    endloop
  endfacet
  facet normal 1 -0 0
    outer loop
      vertex -2.90119 10.325 2.8
      vertex -2.90119 13.675 0.85
      vertex -2.90119 13.675 2.8
    endloop
  endfacet
  facet normal 1 0 0
    outer loop
      vertex -2.90119 13.675 0.85
      vertex -2.90119 10.325 2.8
      vertex -2.90119 10.325 0.85
    endloop
  endfacet
  facet normal -0.5 -0.866025 0
    outer loop
      vertex 7.43849e-016 15.35 0.85
      vertex 2.90119 13.675 2.8
      vertex 7.43849e-016 15.35 2.8
    endloop
  endfacet
  facet normal -0.5 -0.866025 -0
    outer loop
      vertex 2.90119 13.675 2.8
      vertex 7.43849e-016 15.35 0.85
      vertex 2.90119 13.675 0.85
    endloop
  endfacet
  facet normal 0 0 1
    outer loop
      vertex 2.90119 13.675 0.85
      vertex 1.975 12 0.85
      vertex 2.90119 10.325 0.85
    endloop
  endfacet
  facet normal 0 0 1
    outer loop
      vertex 2.90119 13.675 0.85
      vertex 1.87834 12.6103 0.85
      vertex 1.975 12 0.85
    endloop
  endfacet
  facet normal 0 0 1
    outer loop
      vertex 2.90119 13.675 0.85
      vertex 1.59781 13.1609 0.85
      vertex 1.87834 12.6103 0.85
    endloop
  endfacet
  facet normal 0 0 1
    outer loop
      vertex 2.90119 13.675 0.85
      vertex 1.16088 13.5978 0.85
      vertex 1.59781 13.1609 0.85
    endloop
  endfacet
  facet normal 0 0 1
    outer loop
      vertex 7.43849e-016 15.35 0.85
      vertex 1.16088 13.5978 0.85
      vertex 2.90119 13.675 0.85
    endloop
  endfacet
  facet normal 0 0 1
    outer loop
      vertex 1.16088 13.5978 0.85
      vertex 7.43849e-016 15.35 0.85
      vertex 0.610308 13.8783 0.85
    endloop
  endfacet
  facet normal 0 0 1
    outer loop
      vertex 7.43849e-016 15.35 0.85
      vertex 4.38538e-016 13.975 0.85
      vertex 0.610308 13.8783 0.85
    endloop
  endfacet
  facet normal 0 0 1
    outer loop
      vertex 7.43849e-016 15.35 0.85
      vertex -0.610308 13.8783 0.85
      vertex 4.38538e-016 13.975 0.85
    endloop
  endfacet
  facet normal 0 0 1
    outer loop
      vertex 7.43849e-016 15.35 0.85
      vertex -1.16088 13.5978 0.85
      vertex -0.610308 13.8783 0.85
    endloop
  endfacet
  facet normal -0 0 1
    outer loop
      vertex -2.90119 13.675 0.85
      vertex -1.16088 13.5978 0.85
      vertex 7.43849e-016 15.35 0.85
    endloop
  endfacet
  facet normal 0 0 1
    outer loop
      vertex -1.87834 12.6103 0.85
      vertex -2.90119 13.675 0.85
      vertex -1.975 12 0.85
    endloop
  endfacet
  facet normal 0 0 1
    outer loop
      vertex -1.59781 13.1609 0.85
      vertex -2.90119 13.675 0.85
      vertex -1.87834 12.6103 0.85
    endloop
  endfacet
  facet normal 0 0 1
    outer loop
      vertex -1.16088 13.5978 0.85
      vertex -2.90119 13.675 0.85
      vertex -1.59781 13.1609 0.85
    endloop
  endfacet
  facet normal -0 0 1
    outer loop
      vertex 1.87834 11.3897 0.85
      vertex 2.90119 10.325 0.85
      vertex 1.975 12 0.85
    endloop
  endfacet
  facet normal -0 0 1
    outer loop
      vertex 1.59781 10.8391 0.85
      vertex 2.90119 10.325 0.85
      vertex 1.87834 11.3897 0.85
    endloop
  endfacet
  facet normal -0 0 1
    outer loop
      vertex 1.16088 10.4022 0.85
      vertex 2.90119 10.325 0.85
      vertex 1.59781 10.8391 0.85
    endloop
  endfacet
  facet normal 0 0 1
    outer loop
      vertex -7.43849e-016 8.65 0.85
      vertex 1.16088 10.4022 0.85
      vertex 0.610308 10.1217 0.85
    endloop
  endfacet
  facet normal 0 0 1
    outer loop
      vertex -7.43849e-016 8.65 0.85
      vertex 0.610308 10.1217 0.85
      vertex -4.38538e-016 10.025 0.85
    endloop
  endfacet
  facet normal 0 0 1
    outer loop
      vertex 1.16088 10.4022 0.85
      vertex -7.43849e-016 8.65 0.85
      vertex 2.90119 10.325 0.85
    endloop
  endfacet
  facet normal 0 0 1
    outer loop
      vertex -0.610308 10.1217 0.85
      vertex -7.43849e-016 8.65 0.85
      vertex -4.38538e-016 10.025 0.85
    endloop
  endfacet
  facet normal 0 0 1
    outer loop
      vertex -1.16088 10.4022 0.85
      vertex -7.43849e-016 8.65 0.85
      vertex -0.610308 10.1217 0.85
    endloop
  endfacet
  facet normal 0 0 1
    outer loop
      vertex -2.90119 10.325 0.85
      vertex -1.16088 10.4022 0.85
      vertex -1.59781 10.8391 0.85
    endloop
  endfacet
  facet normal 0 0 1
    outer loop
      vertex -2.90119 10.325 0.85
      vertex -1.975 12 0.85
      vertex -2.90119 13.675 0.85
    endloop
  endfacet
  facet normal 0 0 1
    outer loop
      vertex -1.16088 10.4022 0.85
      vertex -2.90119 10.325 0.85
      vertex -7.43849e-016 8.65 0.85
    endloop
  endfacet
  facet normal 0 0 1
    outer loop
      vertex -1.87834 11.3897 0.85
      vertex -2.90119 10.325 0.85
      vertex -1.59781 10.8391 0.85
    endloop
  endfacet
  facet normal 0 0 1
    outer loop
      vertex -1.975 12 0.85
      vertex -2.90119 10.325 0.85
      vertex -1.87834 11.3897 0.85
    endloop
  endfacet
  facet normal -1 0 0
    outer loop
      vertex 2.90119 10.325 0.85
      vertex 2.90119 13.675 2.8
      vertex 2.90119 13.675 0.85
    endloop
  endfacet
  facet normal -1 -0 0
    outer loop
      vertex 2.90119 13.675 2.8
      vertex 2.90119 10.325 0.85
      vertex 2.90119 10.325 2.8
    endloop
  endfacet
  facet normal -0.5 0.866025 0
    outer loop
      vertex 2.90119 10.325 0.85
      vertex -7.43849e-016 8.65 2.8
      vertex 2.90119 10.325 2.8
    endloop
  endfacet
  facet normal -0.5 0.866025 0
    outer loop
      vertex -7.43849e-016 8.65 2.8
      vertex 2.90119 10.325 0.85
      vertex -7.43849e-016 8.65 0.85
    endloop
  endfacet
  facet normal 0.156435 -0.987688 0
    outer loop
      vertex -0.610308 13.8783 -2.8
      vertex 4.38538e-016 13.975 0.85
      vertex -0.610308 13.8783 0.85
    endloop
  endfacet
  facet normal 0.156435 -0.987688 0
    outer loop
      vertex 4.38538e-016 13.975 0.85
      vertex -0.610308 13.8783 -2.8
      vertex 4.38538e-016 13.975 -2.8
    endloop
  endfacet
  facet normal 0.156435 0.987688 -0
    outer loop
      vertex -4.38538e-016 10.025 -2.8
      vertex -0.610308 10.1217 0.85
      vertex -4.38538e-016 10.025 0.85
    endloop
  endfacet
  facet normal 0.156435 0.987688 0
    outer loop
      vertex -0.610308 10.1217 0.85
      vertex -4.38538e-016 10.025 -2.8
      vertex -0.610308 10.1217 -2.8
    endloop
  endfacet
  facet normal 0.987688 -0.156435 0
    outer loop
      vertex -1.975 12 0.85
      vertex -1.87834 12.6103 -2.8
      vertex -1.87834 12.6103 0.85
    endloop
  endfacet
  facet normal 0.987688 -0.156435 0
    outer loop
      vertex -1.87834 12.6103 -2.8
      vertex -1.975 12 0.85
      vertex -1.975 12 -2.8
    endloop
  endfacet
  facet normal -0.987688 0.156435 0
    outer loop
      vertex 1.87834 11.3897 -2.8
      vertex 1.975 12 0.85
      vertex 1.975 12 -2.8
    endloop
  endfacet
  facet normal -0.987688 0.156435 0
    outer loop
      vertex 1.975 12 0.85
      vertex 1.87834 11.3897 -2.8
      vertex 1.87834 11.3897 0.85
    endloop
  endfacet
  facet normal 0.707107 -0.707107 0
    outer loop
      vertex -1.59781 13.1609 0.85
      vertex -1.16088 13.5978 -2.8
      vertex -1.16088 13.5978 0.85
    endloop
  endfacet
  facet normal 0.707107 -0.707107 0
    outer loop
      vertex -1.16088 13.5978 -2.8
      vertex -1.59781 13.1609 0.85
      vertex -1.59781 13.1609 -2.8
    endloop
  endfacet
  facet normal 0.45399 -0.891007 0
    outer loop
      vertex -1.16088 13.5978 -2.8
      vertex -0.610308 13.8783 0.85
      vertex -1.16088 13.5978 0.85
    endloop
  endfacet
  facet normal 0.45399 -0.891007 0
    outer loop
      vertex -0.610308 13.8783 0.85
      vertex -1.16088 13.5978 -2.8
      vertex -0.610308 13.8783 -2.8
    endloop
  endfacet
  facet normal 0.891007 -0.45399 0
    outer loop
      vertex -1.87834 12.6103 0.85
      vertex -1.59781 13.1609 -2.8
      vertex -1.59781 13.1609 0.85
    endloop
  endfacet
  facet normal 0.891007 -0.45399 0
    outer loop
      vertex -1.59781 13.1609 -2.8
      vertex -1.87834 12.6103 0.85
      vertex -1.87834 12.6103 -2.8
    endloop
  endfacet
  facet normal 0.891007 0.45399 0
    outer loop
      vertex -1.59781 10.8391 0.85
      vertex -1.87834 11.3897 -2.8
      vertex -1.87834 11.3897 0.85
    endloop
  endfacet
  facet normal 0.891007 0.45399 0
    outer loop
      vertex -1.87834 11.3897 -2.8
      vertex -1.59781 10.8391 0.85
      vertex -1.59781 10.8391 -2.8
    endloop
  endfacet
  facet normal 0.707107 0.707107 0
    outer loop
      vertex -1.16088 10.4022 0.85
      vertex -1.59781 10.8391 -2.8
      vertex -1.59781 10.8391 0.85
    endloop
  endfacet
  facet normal 0.707107 0.707107 0
    outer loop
      vertex -1.59781 10.8391 -2.8
      vertex -1.16088 10.4022 0.85
      vertex -1.16088 10.4022 -2.8
    endloop
  endfacet
  facet normal 0.987688 0.156435 0
    outer loop
      vertex -1.87834 11.3897 0.85
      vertex -1.975 12 -2.8
      vertex -1.975 12 0.85
    endloop
  endfacet
  facet normal 0.987688 0.156435 0
    outer loop
      vertex -1.975 12 -2.8
      vertex -1.87834 11.3897 0.85
      vertex -1.87834 11.3897 -2.8
    endloop
  endfacet
  facet normal -0.45399 -0.891007 0
    outer loop
      vertex 0.610308 13.8783 -2.8
      vertex 1.16088 13.5978 0.85
      vertex 0.610308 13.8783 0.85
    endloop
  endfacet
  facet normal -0.45399 -0.891007 -0
    outer loop
      vertex 1.16088 13.5978 0.85
      vertex 0.610308 13.8783 -2.8
      vertex 1.16088 13.5978 -2.8
    endloop
  endfacet
  facet normal -0.707107 0.707107 0
    outer loop
      vertex 1.16088 10.4022 -2.8
      vertex 1.59781 10.8391 0.85
      vertex 1.59781 10.8391 -2.8
    endloop
  endfacet
  facet normal -0.707107 0.707107 0
    outer loop
      vertex 1.59781 10.8391 0.85
      vertex 1.16088 10.4022 -2.8
      vertex 1.16088 10.4022 0.85
    endloop
  endfacet
  facet normal -0.156435 0.987688 0
    outer loop
      vertex 0.610308 10.1217 -2.8
      vertex -4.38538e-016 10.025 0.85
      vertex 0.610308 10.1217 0.85
    endloop
  endfacet
  facet normal -0.156435 0.987688 0
    outer loop
      vertex -4.38538e-016 10.025 0.85
      vertex 0.610308 10.1217 -2.8
      vertex -4.38538e-016 10.025 -2.8
    endloop
  endfacet
  facet normal 0.45399 0.891007 -0
    outer loop
      vertex -0.610308 10.1217 -2.8
      vertex -1.16088 10.4022 0.85
      vertex -0.610308 10.1217 0.85
    endloop
  endfacet
  facet normal 0.45399 0.891007 0
    outer loop
      vertex -1.16088 10.4022 0.85
      vertex -0.610308 10.1217 -2.8
      vertex -1.16088 10.4022 -2.8
    endloop
  endfacet
  facet normal -0.987688 -0.156435 0
    outer loop
      vertex 1.975 12 -2.8
      vertex 1.87834 12.6103 0.85
      vertex 1.87834 12.6103 -2.8
    endloop
  endfacet
  facet normal -0.987688 -0.156435 0
    outer loop
      vertex 1.87834 12.6103 0.85
      vertex 1.975 12 -2.8
      vertex 1.975 12 0.85
    endloop
  endfacet
  facet normal -0.707107 -0.707107 0
    outer loop
      vertex 1.59781 13.1609 -2.8
      vertex 1.16088 13.5978 0.85
      vertex 1.16088 13.5978 -2.8
    endloop
  endfacet
  facet normal -0.707107 -0.707107 0
    outer loop
      vertex 1.16088 13.5978 0.85
      vertex 1.59781 13.1609 -2.8
      vertex 1.59781 13.1609 0.85
    endloop
  endfacet
  facet normal -0.891007 0.45399 0
    outer loop
      vertex 1.59781 10.8391 -2.8
      vertex 1.87834 11.3897 0.85
      vertex 1.87834 11.3897 -2.8
    endloop
  endfacet
  facet normal -0.891007 0.45399 0
    outer loop
      vertex 1.87834 11.3897 0.85
      vertex 1.59781 10.8391 -2.8
      vertex 1.59781 10.8391 0.85
    endloop
  endfacet
  facet normal -0.45399 0.891007 0
    outer loop
      vertex 1.16088 10.4022 -2.8
      vertex 0.610308 10.1217 0.85
      vertex 1.16088 10.4022 0.85
    endloop
  endfacet
  facet normal -0.45399 0.891007 0
    outer loop
      vertex 0.610308 10.1217 0.85
      vertex 1.16088 10.4022 -2.8
      vertex 0.610308 10.1217 -2.8
    endloop
  endfacet
  facet normal -0.156435 -0.987688 0
    outer loop
      vertex 4.38538e-016 13.975 -2.8
      vertex 0.610308 13.8783 0.85
      vertex 4.38538e-016 13.975 0.85
    endloop
  endfacet
  facet normal -0.156435 -0.987688 -0
    outer loop
      vertex 0.610308 13.8783 0.85
      vertex 4.38538e-016 13.975 -2.8
      vertex 0.610308 13.8783 -2.8
    endloop
  endfacet
  facet normal -0.891007 -0.45399 0
    outer loop
      vertex 1.87834 12.6103 -2.8
      vertex 1.59781 13.1609 0.85
      vertex 1.59781 13.1609 -2.8
    endloop
  endfacet
  facet normal -0.891007 -0.45399 0
    outer loop
      vertex 1.59781 13.1609 0.85
      vertex 1.87834 12.6103 -2.8
      vertex 1.87834 12.6103 0.85
    endloop
  endfacet
  facet normal -1 0 0
    outer loop
      vertex -6 -4 -2.8
      vertex -6 18 2.8
      vertex -6 18 -2.8
    endloop
  endfacet
  facet normal -1 -0 0
    outer loop
      vertex -6 18 2.8
      vertex -6 -4 -2.8
      vertex -6 -4 2.8
    endloop
  endfacet
  facet normal 0 0 1
    outer loop
      vertex 6 18 2.8
      vertex 3.4641 4 2.8
      vertex 6 -4 2.8
    endloop
  endfacet
  facet normal 0 0 1
    outer loop
      vertex 2.90119 10.325 2.8
      vertex 6 18 2.8
      vertex 2.90119 13.675 2.8
    endloop
  endfacet
  facet normal 0 0 1
    outer loop
      vertex 6 18 2.8
      vertex 7.43849e-016 15.35 2.8
      vertex 2.90119 13.675 2.8
    endloop
  endfacet
  facet normal 0 0 1
    outer loop
      vertex -6 18 2.8
      vertex -2.90119 10.325 2.8
      vertex -2.90119 13.675 2.8
    endloop
  endfacet
  facet normal 0 0 1
    outer loop
      vertex -6 -4 2.8
      vertex -3.4641 4 2.8
      vertex -6 18 2.8
    endloop
  endfacet
  facet normal 0 0 1
    outer loop
      vertex -2.90119 10.325 2.8
      vertex -6 18 2.8
      vertex -3.4641 4 2.8
    endloop
  endfacet
  facet normal 0 0 1
    outer loop
      vertex 7.43849e-016 15.35 2.8
      vertex -6 18 2.8
      vertex -2.90119 13.675 2.8
    endloop
  endfacet
  facet normal -0 0 1
    outer loop
      vertex -6 18 2.8
      vertex 7.43849e-016 15.35 2.8
      vertex 6 18 2.8
    endloop
  endfacet
  facet normal -0 0 1
    outer loop
      vertex 3.4641 -7.69185e-016 2.8
      vertex 6 -4 2.8
      vertex 3.4641 4 2.8
    endloop
  endfacet
  facet normal -0 0 1
    outer loop
      vertex -8.88178e-016 -2 2.8
      vertex 6 -4 2.8
      vertex 3.4641 -7.69185e-016 2.8
    endloop
  endfacet
  facet normal 0 0 1
    outer loop
      vertex -8.88178e-016 -2 2.8
      vertex -6 -4 2.8
      vertex 6 -4 2.8
    endloop
  endfacet
  facet normal 0 0 1
    outer loop
      vertex -3.4641 9.53674e-007 2.8
      vertex -6 -4 2.8
      vertex -8.88178e-016 -2 2.8
    endloop
  endfacet
  facet normal 0 0 1
    outer loop
      vertex -3.4641 4 2.8
      vertex -6 -4 2.8
      vertex -3.4641 9.53674e-007 2.8
    endloop
  endfacet
  facet normal 0 0 1
    outer loop
      vertex 6 18 2.8
      vertex 2.90119 10.325 2.8
      vertex 3.4641 4 2.8
    endloop
  endfacet
  facet normal 0 0 1
    outer loop
      vertex 2.90119 10.325 2.8
      vertex 8.88178e-016 6 2.8
      vertex 3.4641 4 2.8
    endloop
  endfacet
  facet normal -0 0 1
    outer loop
      vertex -7.43849e-016 8.65 2.8
      vertex 8.88178e-016 6 2.8
      vertex 2.90119 10.325 2.8
    endloop
  endfacet
  facet normal 0 0 1
    outer loop
      vertex -2.90119 10.325 2.8
      vertex 8.88178e-016 6 2.8
      vertex -7.43849e-016 8.65 2.8
    endloop
  endfacet
  facet normal 0 0 1
    outer loop
      vertex 8.88178e-016 6 2.8
      vertex -2.90119 10.325 2.8
      vertex -3.4641 4 2.8
    endloop
  endfacet
  facet normal 1 -0 0
    outer loop
      vertex 6 -4 2.8
      vertex 6 18 -2.8
      vertex 6 18 2.8
    endloop
  endfacet
  facet normal 1 0 0
    outer loop
      vertex 6 18 -2.8
      vertex 6 -4 2.8
      vertex 6 -4 -2.8
    endloop
  endfacet
  facet normal 0 1 -0
    outer loop
      vertex 6 18 -2.8
      vertex -6 18 2.8
      vertex 6 18 2.8
    endloop
  endfacet
  facet normal 0 1 0
    outer loop
      vertex -6 18 2.8
      vertex 6 18 -2.8
      vertex -6 18 -2.8
    endloop
  endfacet
  facet normal 0 0 -1
    outer loop
      vertex 6 18 -2.8
      vertex 1.87834 11.3897 -2.8
      vertex 1.975 12 -2.8
    endloop
  endfacet
  facet normal 0 0 -1
    outer loop
      vertex 1.86074 3.35191 -2.8
      vertex 1.87834 11.3897 -2.8
      vertex 2.18743 2.71074 -2.8
    endloop
  endfacet
  facet normal 0 0 -1
    outer loop
      vertex 1.86074 3.35191 -2.8
      vertex 1.59781 10.8391 -2.8
      vertex 1.87834 11.3897 -2.8
    endloop
  endfacet
  facet normal 0 0 -1
    outer loop
      vertex 1.35191 3.86074 -2.8
      vertex 1.59781 10.8391 -2.8
      vertex 1.86074 3.35191 -2.8
    endloop
  endfacet
  facet normal 0 0 -1
    outer loop
      vertex 1.35191 3.86074 -2.8
      vertex 1.16088 10.4022 -2.8
      vertex 1.59781 10.8391 -2.8
    endloop
  endfacet
  facet normal 0 0 -1
    outer loop
      vertex 0.710738 4.18743 -2.8
      vertex 1.16088 10.4022 -2.8
      vertex 1.35191 3.86074 -2.8
    endloop
  endfacet
  facet normal 0 0 -1
    outer loop
      vertex 0.710738 4.18743 -2.8
      vertex 0.610308 10.1217 -2.8
      vertex 1.16088 10.4022 -2.8
    endloop
  endfacet
  facet normal 0 0 -1
    outer loop
      vertex 5.10702e-016 4.3 -2.8
      vertex 0.610308 10.1217 -2.8
      vertex 0.710738 4.18743 -2.8
    endloop
  endfacet
  facet normal 0 0 -1
    outer loop
      vertex 5.10702e-016 4.3 -2.8
      vertex -4.38538e-016 10.025 -2.8
      vertex 0.610308 10.1217 -2.8
    endloop
  endfacet
  facet normal 0 0 -1
    outer loop
      vertex 5.10702e-016 4.3 -2.8
      vertex -0.610308 10.1217 -2.8
      vertex -4.38538e-016 10.025 -2.8
    endloop
  endfacet
  facet normal 0 0 -1
    outer loop
      vertex -0.710738 4.18743 -2.8
      vertex -0.610308 10.1217 -2.8
      vertex 5.10702e-016 4.3 -2.8
    endloop
  endfacet
  facet normal 0 0 -1
    outer loop
      vertex -0.710738 4.18743 -2.8
      vertex -1.16088 10.4022 -2.8
      vertex -0.610308 10.1217 -2.8
    endloop
  endfacet
  facet normal 0 0 -1
    outer loop
      vertex -1.35191 3.86074 -2.8
      vertex -1.16088 10.4022 -2.8
      vertex -0.710738 4.18743 -2.8
    endloop
  endfacet
  facet normal 0 0 -1
    outer loop
      vertex -1.35191 3.86074 -2.8
      vertex -1.59781 10.8391 -2.8
      vertex -1.16088 10.4022 -2.8
    endloop
  endfacet
  facet normal 0 0 -1
    outer loop
      vertex -1.86074 3.35191 -2.8
      vertex -1.59781 10.8391 -2.8
      vertex -1.35191 3.86074 -2.8
    endloop
  endfacet
  facet normal 0 0 -1
    outer loop
      vertex -1.86074 3.35191 -2.8
      vertex -1.87834 11.3897 -2.8
      vertex -1.59781 10.8391 -2.8
    endloop
  endfacet
  facet normal 0 0 -1
    outer loop
      vertex -2.18743 2.71074 -2.8
      vertex -1.87834 11.3897 -2.8
      vertex -1.86074 3.35191 -2.8
    endloop
  endfacet
  facet normal 0 0 -1
    outer loop
      vertex -6 18 -2.8
      vertex -1.87834 11.3897 -2.8
      vertex -2.18743 2.71074 -2.8
    endloop
  endfacet
  facet normal 0 0 -1
    outer loop
      vertex 2.18743 2.71074 -2.8
      vertex 6 -4 -2.8
      vertex 2.3 2 -2.8
    endloop
  endfacet
  facet normal 0 0 -1
    outer loop
      vertex 6 -4 -2.8
      vertex 2.18743 1.28926 -2.8
      vertex 2.3 2 -2.8
    endloop
  endfacet
  facet normal 0 0 -1
    outer loop
      vertex 6 -4 -2.8
      vertex 1.86074 0.648094 -2.8
      vertex 2.18743 1.28926 -2.8
    endloop
  endfacet
  facet normal 0 0 -1
    outer loop
      vertex 6 -4 -2.8
      vertex 1.35191 0.139261 -2.8
      vertex 1.86074 0.648094 -2.8
    endloop
  endfacet
  facet normal 0 0 -1
    outer loop
      vertex 6 -4 -2.8
      vertex 0.710738 -0.187429 -2.8
      vertex 1.35191 0.139261 -2.8
    endloop
  endfacet
  facet normal 0 0 -1
    outer loop
      vertex 6 -4 -2.8
      vertex -5.10702e-016 -0.299999 -2.8
      vertex 0.710738 -0.187429 -2.8
    endloop
  endfacet
  facet normal 0 0 -1
    outer loop
      vertex -6 -4 -2.8
      vertex -5.10702e-016 -0.299999 -2.8
      vertex 6 -4 -2.8
    endloop
  endfacet
  facet normal -0 0 -1
    outer loop
      vertex -5.10702e-016 -0.299999 -2.8
      vertex -6 -4 -2.8
      vertex -0.710738 -0.187429 -2.8
    endloop
  endfacet
  facet normal -0 0 -1
    outer loop
      vertex -2.18743 1.28926 -2.8
      vertex -6 -4 -2.8
      vertex -2.3 2 -2.8
    endloop
  endfacet
  facet normal -0 0 -1
    outer loop
      vertex -1.86074 0.648094 -2.8
      vertex -6 -4 -2.8
      vertex -2.18743 1.28926 -2.8
    endloop
  endfacet
  facet normal -0 0 -1
    outer loop
      vertex -1.35191 0.139261 -2.8
      vertex -6 -4 -2.8
      vertex -1.86074 0.648094 -2.8
    endloop
  endfacet
  facet normal -0 0 -1
    outer loop
      vertex -0.710738 -0.187429 -2.8
      vertex -6 -4 -2.8
      vertex -1.35191 0.139261 -2.8
    endloop
  endfacet
  facet normal 0 0 -1
    outer loop
      vertex 6 -4 -2.8
      vertex 2.18743 2.71074 -2.8
      vertex 6 18 -2.8
    endloop
  endfacet
  facet normal 0 0 -1
    outer loop
      vertex 1.87834 11.3897 -2.8
      vertex 6 18 -2.8
      vertex 2.18743 2.71074 -2.8
    endloop
  endfacet
  facet normal 0 0 -1
    outer loop
      vertex 1.87834 12.6103 -2.8
      vertex 6 18 -2.8
      vertex 1.975 12 -2.8
    endloop
  endfacet
  facet normal 0 0 -1
    outer loop
      vertex 1.59781 13.1609 -2.8
      vertex 6 18 -2.8
      vertex 1.87834 12.6103 -2.8
    endloop
  endfacet
  facet normal 0 0 -1
    outer loop
      vertex 1.16088 13.5978 -2.8
      vertex 6 18 -2.8
      vertex 1.59781 13.1609 -2.8
    endloop
  endfacet
  facet normal 0 0 -1
    outer loop
      vertex 0.610308 13.8783 -2.8
      vertex 6 18 -2.8
      vertex 1.16088 13.5978 -2.8
    endloop
  endfacet
  facet normal 0 0 -1
    outer loop
      vertex 4.38538e-016 13.975 -2.8
      vertex 6 18 -2.8
      vertex 0.610308 13.8783 -2.8
    endloop
  endfacet
  facet normal 0 0 -1
    outer loop
      vertex -6 18 -2.8
      vertex 4.38538e-016 13.975 -2.8
      vertex -0.610308 13.8783 -2.8
    endloop
  endfacet
  facet normal 0 0 -1
    outer loop
      vertex -6 18 -2.8
      vertex -0.610308 13.8783 -2.8
      vertex -1.16088 13.5978 -2.8
    endloop
  endfacet
  facet normal 0 0 -1
    outer loop
      vertex -6 -4 -2.8
      vertex -2.18743 2.71074 -2.8
      vertex -2.3 2 -2.8
    endloop
  endfacet
  facet normal -0 0 -1
    outer loop
      vertex -2.18743 2.71074 -2.8
      vertex -6 -4 -2.8
      vertex -6 18 -2.8
    endloop
  endfacet
  facet normal 0 0 -1
    outer loop
      vertex -1.87834 11.3897 -2.8
      vertex -6 18 -2.8
      vertex -1.975 12 -2.8
    endloop
  endfacet
  facet normal 0 0 -1
    outer loop
      vertex 4.38538e-016 13.975 -2.8
      vertex -6 18 -2.8
      vertex 6 18 -2.8
    endloop
  endfacet
  facet normal 0 0 -1
    outer loop
      vertex -1.59781 13.1609 -2.8
      vertex -6 18 -2.8
      vertex -1.16088 13.5978 -2.8
    endloop
  endfacet
  facet normal 0 0 -1
    outer loop
      vertex -1.87834 12.6103 -2.8
      vertex -6 18 -2.8
      vertex -1.59781 13.1609 -2.8
    endloop
  endfacet
  facet normal 0 0 -1
    outer loop
      vertex -1.975 12 -2.8
      vertex -6 18 -2.8
      vertex -1.87834 12.6103 -2.8
    endloop
  endfacet
  facet normal 0 -1 0
    outer loop
      vertex -6 -4 -2.8
      vertex 6 -4 2.8
      vertex -6 -4 2.8
    endloop
  endfacet
  facet normal 0 -1 -0
    outer loop
      vertex 6 -4 2.8
      vertex -6 -4 -2.8
      vertex 6 -4 -2.8
    endloop
  endfacet
  facet normal 0 -0.866025 -0.5
    outer loop
      vertex 10.05 6 3.2
      vertex 12.8 4 6.6641
      vertex 10.05 4 6.6641
    endloop
  endfacet
  facet normal 0 -0.866025 -0.5
    outer loop
      vertex 12.8 4 6.6641
      vertex 10.05 6 3.2
      vertex 12.8 6 3.2
    endloop
  endfacet
  facet normal 0 0.866025 -0.5
    outer loop
      vertex 12.8 -2 3.2
      vertex 10.05 9.53674e-007 6.6641
      vertex 12.8 9.53674e-007 6.6641
    endloop
  endfacet
  facet normal 0 0.866025 -0.5
    outer loop
      vertex 10.05 9.53674e-007 6.6641
      vertex 12.8 -2 3.2
      vertex 10.05 -2 3.2
    endloop
  endfacet
  facet normal 0 0 -1
    outer loop
      vertex 10.05 9.53674e-007 6.6641
      vertex 12.8 4 6.6641
      vertex 12.8 9.53674e-007 6.6641
    endloop
  endfacet
  facet normal -0 0 -1
    outer loop
      vertex 12.8 4 6.6641
      vertex 10.05 9.53674e-007 6.6641
      vertex 10.05 4 6.6641
    endloop
  endfacet
  facet normal 1 0 0
    outer loop
      vertex 10.05 6 3.2
      vertex 10.05 4.18743 3.91074
      vertex 10.05 4.3 3.2
    endloop
  endfacet
  facet normal 1 -0 0
    outer loop
      vertex 10.05 3.86074 4.55191
      vertex 10.05 6 3.2
      vertex 10.05 4 6.6641
    endloop
  endfacet
  facet normal 1 0 0
    outer loop
      vertex 10.05 6 3.2
      vertex 10.05 3.86074 4.55191
      vertex 10.05 4.18743 3.91074
    endloop
  endfacet
  facet normal 1 0 0
    outer loop
      vertex 10.05 4 6.6641
      vertex 10.05 3.35191 5.06074
      vertex 10.05 3.86074 4.55191
    endloop
  endfacet
  facet normal 1 0 0
    outer loop
      vertex 10.05 4 6.6641
      vertex 10.05 2.71074 5.38743
      vertex 10.05 3.35191 5.06074
    endloop
  endfacet
  facet normal 1 0 0
    outer loop
      vertex 10.05 4 6.6641
      vertex 10.05 2 5.5
      vertex 10.05 2.71074 5.38743
    endloop
  endfacet
  facet normal 1 -0 0
    outer loop
      vertex 10.05 9.53674e-007 6.6641
      vertex 10.05 2 5.5
      vertex 10.05 4 6.6641
    endloop
  endfacet
  facet normal 1 0 0
    outer loop
      vertex 10.05 2 5.5
      vertex 10.05 9.53674e-007 6.6641
      vertex 10.05 1.28926 5.38743
    endloop
  endfacet
  facet normal 1 0 0
    outer loop
      vertex 10.05 9.53674e-007 6.6641
      vertex 10.05 0.648094 5.06074
      vertex 10.05 1.28926 5.38743
    endloop
  endfacet
  facet normal 1 0 0
    outer loop
      vertex 10.05 9.53674e-007 6.6641
      vertex 10.05 0.139261 4.55191
      vertex 10.05 0.648094 5.06074
    endloop
  endfacet
  facet normal 1 0 0
    outer loop
      vertex 10.05 -2 3.2
      vertex 10.05 0.139261 4.55191
      vertex 10.05 9.53674e-007 6.6641
    endloop
  endfacet
  facet normal 1 0 0
    outer loop
      vertex 10.05 0.139261 4.55191
      vertex 10.05 -2 3.2
      vertex 10.05 -0.187429 3.91074
    endloop
  endfacet
  facet normal 1 0 0
    outer loop
      vertex 10.05 -0.187429 3.91074
      vertex 10.05 -2 3.2
      vertex 10.05 -0.299999 3.2
    endloop
  endfacet
  facet normal 1 0 0
    outer loop
      vertex 10.05 4.18743 2.48926
      vertex 10.05 6 3.2
      vertex 10.05 4.3 3.2
    endloop
  endfacet
  facet normal 1 0 0
    outer loop
      vertex 10.05 3.86074 1.84809
      vertex 10.05 6 3.2
      vertex 10.05 4.18743 2.48926
    endloop
  endfacet
  facet normal 1 0 0
    outer loop
      vertex 10.05 6 3.2
      vertex 10.05 3.86074 1.84809
      vertex 10.05 4 -0.264101
    endloop
  endfacet
  facet normal 1 -0 0
    outer loop
      vertex 10.05 3.35191 1.33926
      vertex 10.05 4 -0.264101
      vertex 10.05 3.86074 1.84809
    endloop
  endfacet
  facet normal 1 -0 0
    outer loop
      vertex 10.05 2.71074 1.01257
      vertex 10.05 4 -0.264101
      vertex 10.05 3.35191 1.33926
    endloop
  endfacet
  facet normal 1 -0 0
    outer loop
      vertex 10.05 2 0.900001
      vertex 10.05 4 -0.264101
      vertex 10.05 2.71074 1.01257
    endloop
  endfacet
  facet normal 1 0 0
    outer loop
      vertex 10.05 -7.69185e-016 -0.264101
      vertex 10.05 2 0.900001
      vertex 10.05 1.28926 1.01257
    endloop
  endfacet
  facet normal 1 0 0
    outer loop
      vertex 10.05 2 0.900001
      vertex 10.05 -7.69185e-016 -0.264101
      vertex 10.05 4 -0.264101
    endloop
  endfacet
  facet normal 1 0 0
    outer loop
      vertex 10.05 0.648094 1.33926
      vertex 10.05 -7.69185e-016 -0.264101
      vertex 10.05 1.28926 1.01257
    endloop
  endfacet
  facet normal 1 0 0
    outer loop
      vertex 10.05 0.139261 1.84809
      vertex 10.05 -7.69185e-016 -0.264101
      vertex 10.05 0.648094 1.33926
    endloop
  endfacet
  facet normal 1 0 0
    outer loop
      vertex 10.05 -2 3.2
      vertex 10.05 0.139261 1.84809
      vertex 10.05 -0.187429 2.48926
    endloop
  endfacet
  facet normal 1 -0 0
    outer loop
      vertex 10.05 -2 3.2
      vertex 10.05 -0.187429 2.48926
      vertex 10.05 -0.299999 3.2
    endloop
  endfacet
  facet normal 1 0 0
    outer loop
      vertex 10.05 0.139261 1.84809
      vertex 10.05 -2 3.2
      vertex 10.05 -7.69185e-016 -0.264101
    endloop
  endfacet
  facet normal -0 0 1
    outer loop
      vertex 10.05 4 -0.264101
      vertex 12.8 -7.69185e-016 -0.264101
      vertex 12.8 4 -0.264101
    endloop
  endfacet
  facet normal 0 0 1
    outer loop
      vertex 12.8 -7.69185e-016 -0.264101
      vertex 10.05 4 -0.264101
      vertex 10.05 -7.69185e-016 -0.264101
    endloop
  endfacet
  facet normal 0 0.866025 0.5
    outer loop
      vertex 12.8 -7.69185e-016 -0.264101
      vertex 10.05 -2 3.2
      vertex 12.8 -2 3.2
    endloop
  endfacet
  facet normal 0 0.866025 0.5
    outer loop
      vertex 10.05 -2 3.2
      vertex 12.8 -7.69185e-016 -0.264101
      vertex 10.05 -7.69185e-016 -0.264101
    endloop
  endfacet
  facet normal 0 -0.866025 0.5
    outer loop
      vertex 10.05 4 -0.264101
      vertex 12.8 6 3.2
      vertex 10.05 6 3.2
    endloop
  endfacet
  facet normal 0 -0.866025 0.5
    outer loop
      vertex 12.8 6 3.2
      vertex 10.05 4 -0.264101
      vertex 12.8 4 -0.264101
    endloop
  endfacet
  facet normal 0 -0.987688 -0.156434
    outer loop
      vertex 7.2 4.3 3.2
      vertex 10.05 4.18743 3.91074
      vertex 7.2 4.18743 3.91074
    endloop
  endfacet
  facet normal 0 -0.987688 -0.156434
    outer loop
      vertex 10.05 4.18743 3.91074
      vertex 7.2 4.3 3.2
      vertex 10.05 4.3 3.2
    endloop
  endfacet
  facet normal 0 0.987688 -0.156434
    outer loop
      vertex 10.05 -0.299999 3.2
      vertex 7.2 -0.187429 3.91074
      vertex 10.05 -0.187429 3.91074
    endloop
  endfacet
  facet normal 0 0.987688 -0.156434
    outer loop
      vertex 7.2 -0.187429 3.91074
      vertex 10.05 -0.299999 3.2
      vertex 7.2 -0.299999 3.2
    endloop
  endfacet
  facet normal 0 -0.156434 -0.987688
    outer loop
      vertex 7.2 2 5.5
      vertex 10.05 2.71074 5.38743
      vertex 10.05 2 5.5
    endloop
  endfacet
  facet normal -0 -0.156434 -0.987688
    outer loop
      vertex 10.05 2.71074 5.38743
      vertex 7.2 2 5.5
      vertex 7.2 2.71074 5.38743
    endloop
  endfacet
  facet normal -0 0.156434 0.987688
    outer loop
      vertex 7.2 2 0.900001
      vertex 10.05 1.28926 1.01257
      vertex 10.05 2 0.900001
    endloop
  endfacet
  facet normal 0 0.156434 0.987688
    outer loop
      vertex 10.05 1.28926 1.01257
      vertex 7.2 2 0.900001
      vertex 7.2 1.28926 1.01257
    endloop
  endfacet
  facet normal 0 -0.707107 -0.707107
    outer loop
      vertex 7.2 3.86074 4.55191
      vertex 10.05 3.35191 5.06074
      vertex 7.2 3.35191 5.06074
    endloop
  endfacet
  facet normal 0 -0.707107 -0.707107
    outer loop
      vertex 10.05 3.35191 5.06074
      vertex 7.2 3.86074 4.55191
      vertex 10.05 3.86074 4.55191
    endloop
  endfacet
  facet normal 0 -0.891007 -0.45399
    outer loop
      vertex 7.2 4.18743 3.91074
      vertex 10.05 3.86074 4.55191
      vertex 7.2 3.86074 4.55191
    endloop
  endfacet
  facet normal 0 -0.891007 -0.45399
    outer loop
      vertex 10.05 3.86074 4.55191
      vertex 7.2 4.18743 3.91074
      vertex 10.05 4.18743 3.91074
    endloop
  endfacet
  facet normal 0 -0.45399 -0.891007
    outer loop
      vertex 7.2 2.71074 5.38743
      vertex 10.05 3.35191 5.06074
      vertex 10.05 2.71074 5.38743
    endloop
  endfacet
  facet normal -0 -0.45399 -0.891007
    outer loop
      vertex 10.05 3.35191 5.06074
      vertex 7.2 2.71074 5.38743
      vertex 7.2 3.35191 5.06074
    endloop
  endfacet
  facet normal 0 0.45399 -0.891007
    outer loop
      vertex 7.2 0.648094 5.06074
      vertex 10.05 1.28926 5.38743
      vertex 10.05 0.648094 5.06074
    endloop
  endfacet
  facet normal 0 0.45399 -0.891007
    outer loop
      vertex 10.05 1.28926 5.38743
      vertex 7.2 0.648094 5.06074
      vertex 7.2 1.28926 5.38743
    endloop
  endfacet
  facet normal 0 0.707107 -0.707107
    outer loop
      vertex 10.05 0.139261 4.55191
      vertex 7.2 0.648094 5.06074
      vertex 10.05 0.648094 5.06074
    endloop
  endfacet
  facet normal 0 0.707107 -0.707107
    outer loop
      vertex 7.2 0.648094 5.06074
      vertex 10.05 0.139261 4.55191
      vertex 7.2 0.139261 4.55191
    endloop
  endfacet
  facet normal 0 0.156434 -0.987688
    outer loop
      vertex 7.2 1.28926 5.38743
      vertex 10.05 2 5.5
      vertex 10.05 1.28926 5.38743
    endloop
  endfacet
  facet normal 0 0.156434 -0.987688
    outer loop
      vertex 10.05 2 5.5
      vertex 7.2 1.28926 5.38743
      vertex 7.2 2 5.5
    endloop
  endfacet
  facet normal 0 -0.891007 0.45399
    outer loop
      vertex 7.2 3.86074 1.84809
      vertex 10.05 4.18743 2.48926
      vertex 7.2 4.18743 2.48926
    endloop
  endfacet
  facet normal 0 -0.891007 0.45399
    outer loop
      vertex 10.05 4.18743 2.48926
      vertex 7.2 3.86074 1.84809
      vertex 10.05 3.86074 1.84809
    endloop
  endfacet
  facet normal 0 0.707107 0.707107
    outer loop
      vertex 10.05 0.648094 1.33926
      vertex 7.2 0.139261 1.84809
      vertex 10.05 0.139261 1.84809
    endloop
  endfacet
  facet normal 0 0.707107 0.707107
    outer loop
      vertex 7.2 0.139261 1.84809
      vertex 10.05 0.648094 1.33926
      vertex 7.2 0.648094 1.33926
    endloop
  endfacet
  facet normal 0 0.987688 0.156434
    outer loop
      vertex 10.05 -0.187429 2.48926
      vertex 7.2 -0.299999 3.2
      vertex 10.05 -0.299999 3.2
    endloop
  endfacet
  facet normal 0 0.987688 0.156434
    outer loop
      vertex 7.2 -0.299999 3.2
      vertex 10.05 -0.187429 2.48926
      vertex 7.2 -0.187429 2.48926
    endloop
  endfacet
  facet normal 0 0.891007 -0.45399
    outer loop
      vertex 10.05 -0.187429 3.91074
      vertex 7.2 0.139261 4.55191
      vertex 10.05 0.139261 4.55191
    endloop
  endfacet
  facet normal 0 0.891007 -0.45399
    outer loop
      vertex 7.2 0.139261 4.55191
      vertex 10.05 -0.187429 3.91074
      vertex 7.2 -0.187429 3.91074
    endloop
  endfacet
  facet normal 0 -0.987688 0.156434
    outer loop
      vertex 7.2 4.18743 2.48926
      vertex 10.05 4.3 3.2
      vertex 7.2 4.3 3.2
    endloop
  endfacet
  facet normal 0 -0.987688 0.156434
    outer loop
      vertex 10.05 4.3 3.2
      vertex 7.2 4.18743 2.48926
      vertex 10.05 4.18743 2.48926
    endloop
  endfacet
  facet normal 0 -0.156434 0.987688
    outer loop
      vertex 7.2 2.71074 1.01257
      vertex 10.05 2 0.900001
      vertex 10.05 2.71074 1.01257
    endloop
  endfacet
  facet normal 0 -0.156434 0.987688
    outer loop
      vertex 10.05 2 0.900001
      vertex 7.2 2.71074 1.01257
      vertex 7.2 2 0.900001
    endloop
  endfacet
  facet normal 0 -0.707107 0.707107
    outer loop
      vertex 7.2 3.35191 1.33926
      vertex 10.05 3.86074 1.84809
      vertex 7.2 3.86074 1.84809
    endloop
  endfacet
  facet normal 0 -0.707107 0.707107
    outer loop
      vertex 10.05 3.86074 1.84809
      vertex 7.2 3.35191 1.33926
      vertex 10.05 3.35191 1.33926
    endloop
  endfacet
  facet normal -0 0.45399 0.891007
    outer loop
      vertex 7.2 1.28926 1.01257
      vertex 10.05 0.648094 1.33926
      vertex 10.05 1.28926 1.01257
    endloop
  endfacet
  facet normal 0 0.45399 0.891007
    outer loop
      vertex 10.05 0.648094 1.33926
      vertex 7.2 1.28926 1.01257
      vertex 7.2 0.648094 1.33926
    endloop
  endfacet
  facet normal 0 0.891007 0.45399
    outer loop
      vertex 10.05 0.139261 1.84809
      vertex 7.2 -0.187429 2.48926
      vertex 10.05 -0.187429 2.48926
    endloop
  endfacet
  facet normal 0 0.891007 0.45399
    outer loop
      vertex 7.2 -0.187429 2.48926
      vertex 10.05 0.139261 1.84809
      vertex 7.2 0.139261 1.84809
    endloop
  endfacet
  facet normal 0 -0.45399 0.891007
    outer loop
      vertex 7.2 3.35191 1.33926
      vertex 10.05 2.71074 1.01257
      vertex 10.05 3.35191 1.33926
    endloop
  endfacet
  facet normal 0 -0.45399 0.891007
    outer loop
      vertex 10.05 2.71074 1.01257
      vertex 7.2 3.35191 1.33926
      vertex 7.2 2.71074 1.01257
    endloop
  endfacet
  facet normal 0 -0.866025 -0.5
    outer loop
      vertex 10.85 15.35 3.2
      vertex 12.8 13.675 6.10118
      vertex 10.85 13.675 6.10118
    endloop
  endfacet
  facet normal 0 -0.866025 -0.5
    outer loop
      vertex 12.8 13.675 6.10118
      vertex 10.85 15.35 3.2
      vertex 12.8 15.35 3.2
    endloop
  endfacet
  facet normal 0 0.866025 -0.5
    outer loop
      vertex 12.8 8.65 3.2
      vertex 10.85 10.325 6.10118
      vertex 12.8 10.325 6.10118
    endloop
  endfacet
  facet normal 0 0.866025 -0.5
    outer loop
      vertex 10.85 10.325 6.10118
      vertex 12.8 8.65 3.2
      vertex 10.85 8.65 3.2
    endloop
  endfacet
  facet normal 0 0 -1
    outer loop
      vertex 10.85 10.325 6.10118
      vertex 12.8 13.675 6.10118
      vertex 12.8 10.325 6.10118
    endloop
  endfacet
  facet normal -0 0 -1
    outer loop
      vertex 12.8 13.675 6.10118
      vertex 10.85 10.325 6.10118
      vertex 10.85 13.675 6.10118
    endloop
  endfacet
  facet normal 0 -0.866025 0.5
    outer loop
      vertex 10.85 13.675 0.298815
      vertex 12.8 15.35 3.2
      vertex 10.85 15.35 3.2
    endloop
  endfacet
  facet normal 0 -0.866025 0.5
    outer loop
      vertex 12.8 15.35 3.2
      vertex 10.85 13.675 0.298815
      vertex 12.8 13.675 0.298815
    endloop
  endfacet
  facet normal 1 0 0
    outer loop
      vertex 10.85 15.35 3.2
      vertex 10.85 13.8783 3.81031
      vertex 10.85 13.975 3.2
    endloop
  endfacet
  facet normal 1 -0 0
    outer loop
      vertex 10.85 13.5978 4.36088
      vertex 10.85 15.35 3.2
      vertex 10.85 13.675 6.10118
    endloop
  endfacet
  facet normal 1 0 0
    outer loop
      vertex 10.85 15.35 3.2
      vertex 10.85 13.5978 4.36088
      vertex 10.85 13.8783 3.81031
    endloop
  endfacet
  facet normal 1 0 0
    outer loop
      vertex 10.85 13.675 6.10118
      vertex 10.85 13.1609 4.79781
      vertex 10.85 13.5978 4.36088
    endloop
  endfacet
  facet normal 1 0 0
    outer loop
      vertex 10.85 13.675 6.10118
      vertex 10.85 12.6103 5.07834
      vertex 10.85 13.1609 4.79781
    endloop
  endfacet
  facet normal 1 0 0
    outer loop
      vertex 10.85 13.675 6.10118
      vertex 10.85 12 5.175
      vertex 10.85 12.6103 5.07834
    endloop
  endfacet
  facet normal 1 -0 0
    outer loop
      vertex 10.85 10.325 6.10118
      vertex 10.85 12 5.175
      vertex 10.85 13.675 6.10118
    endloop
  endfacet
  facet normal 1 0 0
    outer loop
      vertex 10.85 12 5.175
      vertex 10.85 10.325 6.10118
      vertex 10.85 11.3897 5.07834
    endloop
  endfacet
  facet normal 1 0 0
    outer loop
      vertex 10.85 10.325 6.10118
      vertex 10.85 10.8391 4.79781
      vertex 10.85 11.3897 5.07834
    endloop
  endfacet
  facet normal 1 0 0
    outer loop
      vertex 10.85 10.325 6.10118
      vertex 10.85 10.4022 4.36088
      vertex 10.85 10.8391 4.79781
    endloop
  endfacet
  facet normal 1 0 0
    outer loop
      vertex 10.85 8.65 3.2
      vertex 10.85 10.4022 4.36088
      vertex 10.85 10.325 6.10118
    endloop
  endfacet
  facet normal 1 0 0
    outer loop
      vertex 10.85 10.4022 4.36088
      vertex 10.85 8.65 3.2
      vertex 10.85 10.1217 3.81031
    endloop
  endfacet
  facet normal 1 0 0
    outer loop
      vertex 10.85 10.1217 3.81031
      vertex 10.85 8.65 3.2
      vertex 10.85 10.025 3.2
    endloop
  endfacet
  facet normal 1 0 0
    outer loop
      vertex 10.85 13.8783 2.58969
      vertex 10.85 15.35 3.2
      vertex 10.85 13.975 3.2
    endloop
  endfacet
  facet normal 1 0 0
    outer loop
      vertex 10.85 13.5978 2.03912
      vertex 10.85 15.35 3.2
      vertex 10.85 13.8783 2.58969
    endloop
  endfacet
  facet normal 1 0 0
    outer loop
      vertex 10.85 15.35 3.2
      vertex 10.85 13.5978 2.03912
      vertex 10.85 13.675 0.298815
    endloop
  endfacet
  facet normal 1 -0 0
    outer loop
      vertex 10.85 13.1609 1.60219
      vertex 10.85 13.675 0.298815
      vertex 10.85 13.5978 2.03912
    endloop
  endfacet
  facet normal 1 -0 0
    outer loop
      vertex 10.85 12.6103 1.32166
      vertex 10.85 13.675 0.298815
      vertex 10.85 13.1609 1.60219
    endloop
  endfacet
  facet normal 1 -0 0
    outer loop
      vertex 10.85 12 1.225
      vertex 10.85 13.675 0.298815
      vertex 10.85 12.6103 1.32166
    endloop
  endfacet
  facet normal 1 0 0
    outer loop
      vertex 10.85 10.325 0.298815
      vertex 10.85 12 1.225
      vertex 10.85 11.3897 1.32166
    endloop
  endfacet
  facet normal 1 0 0
    outer loop
      vertex 10.85 12 1.225
      vertex 10.85 10.325 0.298815
      vertex 10.85 13.675 0.298815
    endloop
  endfacet
  facet normal 1 0 0
    outer loop
      vertex 10.85 10.8391 1.60219
      vertex 10.85 10.325 0.298815
      vertex 10.85 11.3897 1.32166
    endloop
  endfacet
  facet normal 1 0 0
    outer loop
      vertex 10.85 10.4022 2.03912
      vertex 10.85 10.325 0.298815
      vertex 10.85 10.8391 1.60219
    endloop
  endfacet
  facet normal 1 0 0
    outer loop
      vertex 10.85 8.65 3.2
      vertex 10.85 10.4022 2.03912
      vertex 10.85 10.1217 2.58969
    endloop
  endfacet
  facet normal 1 -0 0
    outer loop
      vertex 10.85 8.65 3.2
      vertex 10.85 10.1217 2.58969
      vertex 10.85 10.025 3.2
    endloop
  endfacet
  facet normal 1 0 0
    outer loop
      vertex 10.85 10.4022 2.03912
      vertex 10.85 8.65 3.2
      vertex 10.85 10.325 0.298815
    endloop
  endfacet
  facet normal -0 0 1
    outer loop
      vertex 10.85 13.675 0.298815
      vertex 12.8 10.325 0.298815
      vertex 12.8 13.675 0.298815
    endloop
  endfacet
  facet normal 0 0 1
    outer loop
      vertex 12.8 10.325 0.298815
      vertex 10.85 13.675 0.298815
      vertex 10.85 10.325 0.298815
    endloop
  endfacet
  facet normal 0 0.866025 0.5
    outer loop
      vertex 12.8 10.325 0.298815
      vertex 10.85 8.65 3.2
      vertex 12.8 8.65 3.2
    endloop
  endfacet
  facet normal 0 0.866025 0.5
    outer loop
      vertex 10.85 8.65 3.2
      vertex 12.8 10.325 0.298815
      vertex 10.85 10.325 0.298815
    endloop
  endfacet
  facet normal 0 -0.987688 -0.156435
    outer loop
      vertex 7.2 13.975 3.2
      vertex 10.85 13.8783 3.81031
      vertex 7.2 13.8783 3.81031
    endloop
  endfacet
  facet normal 0 -0.987688 -0.156435
    outer loop
      vertex 10.85 13.8783 3.81031
      vertex 7.2 13.975 3.2
      vertex 10.85 13.975 3.2
    endloop
  endfacet
  facet normal 0 0.987688 -0.156435
    outer loop
      vertex 10.85 10.025 3.2
      vertex 7.2 10.1217 3.81031
      vertex 10.85 10.1217 3.81031
    endloop
  endfacet
  facet normal 0 0.987688 -0.156435
    outer loop
      vertex 7.2 10.1217 3.81031
      vertex 10.85 10.025 3.2
      vertex 7.2 10.025 3.2
    endloop
  endfacet
  facet normal 0 -0.156435 -0.987688
    outer loop
      vertex 7.2 12 5.175
      vertex 10.85 12.6103 5.07834
      vertex 10.85 12 5.175
    endloop
  endfacet
  facet normal -0 -0.156435 -0.987688
    outer loop
      vertex 10.85 12.6103 5.07834
      vertex 7.2 12 5.175
      vertex 7.2 12.6103 5.07834
    endloop
  endfacet
  facet normal -0 0.156435 0.987688
    outer loop
      vertex 7.2 12 1.225
      vertex 10.85 11.3897 1.32166
      vertex 10.85 12 1.225
    endloop
  endfacet
  facet normal 0 0.156435 0.987688
    outer loop
      vertex 10.85 11.3897 1.32166
      vertex 7.2 12 1.225
      vertex 7.2 11.3897 1.32166
    endloop
  endfacet
  facet normal 0 -0.707107 -0.707107
    outer loop
      vertex 7.2 13.5978 4.36088
      vertex 10.85 13.1609 4.79781
      vertex 7.2 13.1609 4.79781
    endloop
  endfacet
  facet normal 0 -0.707107 -0.707107
    outer loop
      vertex 10.85 13.1609 4.79781
      vertex 7.2 13.5978 4.36088
      vertex 10.85 13.5978 4.36088
    endloop
  endfacet
  facet normal 0 -0.891007 -0.45399
    outer loop
      vertex 7.2 13.8783 3.81031
      vertex 10.85 13.5978 4.36088
      vertex 7.2 13.5978 4.36088
    endloop
  endfacet
  facet normal 0 -0.891007 -0.45399
    outer loop
      vertex 10.85 13.5978 4.36088
      vertex 7.2 13.8783 3.81031
      vertex 10.85 13.8783 3.81031
    endloop
  endfacet
  facet normal 0 -0.45399 -0.891007
    outer loop
      vertex 7.2 12.6103 5.07834
      vertex 10.85 13.1609 4.79781
      vertex 10.85 12.6103 5.07834
    endloop
  endfacet
  facet normal -0 -0.45399 -0.891007
    outer loop
      vertex 10.85 13.1609 4.79781
      vertex 7.2 12.6103 5.07834
      vertex 7.2 13.1609 4.79781
    endloop
  endfacet
  facet normal 0 0.45399 -0.891007
    outer loop
      vertex 7.2 10.8391 4.79781
      vertex 10.85 11.3897 5.07834
      vertex 10.85 10.8391 4.79781
    endloop
  endfacet
  facet normal 0 0.45399 -0.891007
    outer loop
      vertex 10.85 11.3897 5.07834
      vertex 7.2 10.8391 4.79781
      vertex 7.2 11.3897 5.07834
    endloop
  endfacet
  facet normal 0 0.707107 -0.707107
    outer loop
      vertex 10.85 10.4022 4.36088
      vertex 7.2 10.8391 4.79781
      vertex 10.85 10.8391 4.79781
    endloop
  endfacet
  facet normal 0 0.707107 -0.707107
    outer loop
      vertex 7.2 10.8391 4.79781
      vertex 10.85 10.4022 4.36088
      vertex 7.2 10.4022 4.36088
    endloop
  endfacet
  facet normal 0 0.156435 -0.987688
    outer loop
      vertex 7.2 11.3897 5.07834
      vertex 10.85 12 5.175
      vertex 10.85 11.3897 5.07834
    endloop
  endfacet
  facet normal 0 0.156435 -0.987688
    outer loop
      vertex 10.85 12 5.175
      vertex 7.2 11.3897 5.07834
      vertex 7.2 12 5.175
    endloop
  endfacet
  facet normal 0 -0.891007 0.45399
    outer loop
      vertex 7.2 13.5978 2.03912
      vertex 10.85 13.8783 2.58969
      vertex 7.2 13.8783 2.58969
    endloop
  endfacet
  facet normal 0 -0.891007 0.45399
    outer loop
      vertex 10.85 13.8783 2.58969
      vertex 7.2 13.5978 2.03912
      vertex 10.85 13.5978 2.03912
    endloop
  endfacet
  facet normal 0 0.707107 0.707107
    outer loop
      vertex 10.85 10.8391 1.60219
      vertex 7.2 10.4022 2.03912
      vertex 10.85 10.4022 2.03912
    endloop
  endfacet
  facet normal 0 0.707107 0.707107
    outer loop
      vertex 7.2 10.4022 2.03912
      vertex 10.85 10.8391 1.60219
      vertex 7.2 10.8391 1.60219
    endloop
  endfacet
  facet normal 0 0.987688 0.156435
    outer loop
      vertex 10.85 10.1217 2.58969
      vertex 7.2 10.025 3.2
      vertex 10.85 10.025 3.2
    endloop
  endfacet
  facet normal 0 0.987688 0.156435
    outer loop
      vertex 7.2 10.025 3.2
      vertex 10.85 10.1217 2.58969
      vertex 7.2 10.1217 2.58969
    endloop
  endfacet
  facet normal 0 0.891007 -0.45399
    outer loop
      vertex 10.85 10.1217 3.81031
      vertex 7.2 10.4022 4.36088
      vertex 10.85 10.4022 4.36088
    endloop
  endfacet
  facet normal 0 0.891007 -0.45399
    outer loop
      vertex 7.2 10.4022 4.36088
      vertex 10.85 10.1217 3.81031
      vertex 7.2 10.1217 3.81031
    endloop
  endfacet
  facet normal 0 -0.156435 0.987688
    outer loop
      vertex 7.2 12.6103 1.32166
      vertex 10.85 12 1.225
      vertex 10.85 12.6103 1.32166
    endloop
  endfacet
  facet normal 0 -0.156435 0.987688
    outer loop
      vertex 10.85 12 1.225
      vertex 7.2 12.6103 1.32166
      vertex 7.2 12 1.225
    endloop
  endfacet
  facet normal 0 -0.707107 0.707107
    outer loop
      vertex 7.2 13.1609 1.60219
      vertex 10.85 13.5978 2.03912
      vertex 7.2 13.5978 2.03912
    endloop
  endfacet
  facet normal 0 -0.707107 0.707107
    outer loop
      vertex 10.85 13.5978 2.03912
      vertex 7.2 13.1609 1.60219
      vertex 10.85 13.1609 1.60219
    endloop
  endfacet
  facet normal -0 0.45399 0.891007
    outer loop
      vertex 7.2 11.3897 1.32166
      vertex 10.85 10.8391 1.60219
      vertex 10.85 11.3897 1.32166
    endloop
  endfacet
  facet normal 0 0.45399 0.891007
    outer loop
      vertex 10.85 10.8391 1.60219
      vertex 7.2 11.3897 1.32166
      vertex 7.2 10.8391 1.60219
    endloop
  endfacet
  facet normal 0 0.891007 0.45399
    outer loop
      vertex 10.85 10.4022 2.03912
      vertex 7.2 10.1217 2.58969
      vertex 10.85 10.1217 2.58969
    endloop
  endfacet
  facet normal 0 0.891007 0.45399
    outer loop
      vertex 7.2 10.1217 2.58969
      vertex 10.85 10.4022 2.03912
      vertex 7.2 10.4022 2.03912
    endloop
  endfacet
  facet normal 0 -0.987688 0.156435
    outer loop
      vertex 7.2 13.8783 2.58969
      vertex 10.85 13.975 3.2
      vertex 7.2 13.975 3.2
    endloop
  endfacet
  facet normal 0 -0.987688 0.156435
    outer loop
      vertex 10.85 13.975 3.2
      vertex 7.2 13.8783 2.58969
      vertex 10.85 13.8783 2.58969
    endloop
  endfacet
  facet normal 0 -0.45399 0.891007
    outer loop
      vertex 7.2 13.1609 1.60219
      vertex 10.85 12.6103 1.32166
      vertex 10.85 13.1609 1.60219
    endloop
  endfacet
  facet normal 0 -0.45399 0.891007
    outer loop
      vertex 10.85 12.6103 1.32166
      vertex 7.2 13.1609 1.60219
      vertex 7.2 12.6103 1.32166
    endloop
  endfacet
  facet normal -0 0 1
    outer loop
      vertex 7.2 18 9.2
      vertex 12.8 -4 9.2
      vertex 12.8 18 9.2
    endloop
  endfacet
  facet normal 0 0 1
    outer loop
      vertex 12.8 -4 9.2
      vertex 7.2 18 9.2
      vertex 7.2 -4 9.2
    endloop
  endfacet
  facet normal 1 0 0
    outer loop
      vertex 12.8 18 9.2
      vertex 12.8 15.35 3.2
      vertex 12.8 18 -2.8
    endloop
  endfacet
  facet normal 1 0 0
    outer loop
      vertex 12.8 18 9.2
      vertex 12.8 13.675 6.10118
      vertex 12.8 15.35 3.2
    endloop
  endfacet
  facet normal 1 0 0
    outer loop
      vertex 12.8 18 9.2
      vertex 12.8 10.325 6.10118
      vertex 12.8 13.675 6.10118
    endloop
  endfacet
  facet normal 1 0 0
    outer loop
      vertex 12.8 10.325 6.10118
      vertex 12.8 6 3.2
      vertex 12.8 8.65 3.2
    endloop
  endfacet
  facet normal 1 0 0
    outer loop
      vertex 12.8 10.325 6.10118
      vertex 12.8 4 6.6641
      vertex 12.8 6 3.2
    endloop
  endfacet
  facet normal 1 0 0
    outer loop
      vertex 12.8 18 9.2
      vertex 12.8 4 6.6641
      vertex 12.8 10.325 6.10118
    endloop
  endfacet
  facet normal 1 -0 0
    outer loop
      vertex 12.8 -4 9.2
      vertex 12.8 4 6.6641
      vertex 12.8 18 9.2
    endloop
  endfacet
  facet normal 1 0 0
    outer loop
      vertex 12.8 9.53674e-007 6.6641
      vertex 12.8 -4 9.2
      vertex 12.8 -2 3.2
    endloop
  endfacet
  facet normal 1 0 0
    outer loop
      vertex 12.8 4 6.6641
      vertex 12.8 -4 9.2
      vertex 12.8 9.53674e-007 6.6641
    endloop
  endfacet
  facet normal 1 -0 0
    outer loop
      vertex 12.8 13.675 0.298815
      vertex 12.8 18 -2.8
      vertex 12.8 15.35 3.2
    endloop
  endfacet
  facet normal 1 -0 0
    outer loop
      vertex 12.8 10.325 0.298815
      vertex 12.8 18 -2.8
      vertex 12.8 13.675 0.298815
    endloop
  endfacet
  facet normal 1 -0 0
    outer loop
      vertex 12.8 6 3.2
      vertex 12.8 10.325 0.298815
      vertex 12.8 8.65 3.2
    endloop
  endfacet
  facet normal 1 0 0
    outer loop
      vertex 12.8 4 -0.264101
      vertex 12.8 10.325 0.298815
      vertex 12.8 6 3.2
    endloop
  endfacet
  facet normal 1 -0 0
    outer loop
      vertex 12.8 4 -0.264101
      vertex 12.8 18 -2.8
      vertex 12.8 10.325 0.298815
    endloop
  endfacet
  facet normal 1 0 0
    outer loop
      vertex 12.8 -4 -2.8
      vertex 12.8 4 -0.264101
      vertex 12.8 -7.69185e-016 -0.264101
    endloop
  endfacet
  facet normal 1 0 0
    outer loop
      vertex 12.8 4 -0.264101
      vertex 12.8 -4 -2.8
      vertex 12.8 18 -2.8
    endloop
  endfacet
  facet normal 1 0 0
    outer loop
      vertex 12.8 -2 3.2
      vertex 12.8 -4 -2.8
      vertex 12.8 -7.69185e-016 -0.264101
    endloop
  endfacet
  facet normal 1 0 0
    outer loop
      vertex 12.8 -4 -2.8
      vertex 12.8 -2 3.2
      vertex 12.8 -4 9.2
    endloop
  endfacet
  facet normal 0 0 -1
    outer loop
      vertex 7.2 -4 -2.8
      vertex 12.8 18 -2.8
      vertex 12.8 -4 -2.8
    endloop
  endfacet
  facet normal -0 0 -1
    outer loop
      vertex 12.8 18 -2.8
      vertex 7.2 -4 -2.8
      vertex 7.2 18 -2.8
    endloop
  endfacet
  facet normal 0 1 -0
    outer loop
      vertex 12.8 18 -2.8
      vertex 7.2 18 9.2
      vertex 12.8 18 9.2
    endloop
  endfacet
  facet normal 0 1 0
    outer loop
      vertex 7.2 18 9.2
      vertex 12.8 18 -2.8
      vertex 7.2 18 -2.8
    endloop
  endfacet
  facet normal -1 0 0
    outer loop
      vertex 7.2 18 -2.8
      vertex 7.2 13.975 3.2
      vertex 7.2 18 9.2
    endloop
  endfacet
  facet normal -1 0 0
    outer loop
      vertex 7.2 18 -2.8
      vertex 7.2 13.8783 2.58969
      vertex 7.2 13.975 3.2
    endloop
  endfacet
  facet normal -1 0 0
    outer loop
      vertex 7.2 18 -2.8
      vertex 7.2 13.5978 2.03912
      vertex 7.2 13.8783 2.58969
    endloop
  endfacet
  facet normal -1 0 0
    outer loop
      vertex 7.2 18 -2.8
      vertex 7.2 13.1609 1.60219
      vertex 7.2 13.5978 2.03912
    endloop
  endfacet
  facet normal -1 0 0
    outer loop
      vertex 7.2 18 -2.8
      vertex 7.2 12.6103 1.32166
      vertex 7.2 13.1609 1.60219
    endloop
  endfacet
  facet normal -1 0 0
    outer loop
      vertex 7.2 18 -2.8
      vertex 7.2 12 1.225
      vertex 7.2 12.6103 1.32166
    endloop
  endfacet
  facet normal -1 0 0
    outer loop
      vertex 7.2 18 -2.8
      vertex 7.2 11.3897 1.32166
      vertex 7.2 12 1.225
    endloop
  endfacet
  facet normal -1 0 0
    outer loop
      vertex 7.2 2.71074 1.01257
      vertex 7.2 11.3897 1.32166
      vertex 7.2 18 -2.8
    endloop
  endfacet
  facet normal -1 0 0
    outer loop
      vertex 7.2 10.1217 2.58969
      vertex 7.2 4.3 3.2
      vertex 7.2 10.025 3.2
    endloop
  endfacet
  facet normal -1 0 0
    outer loop
      vertex 7.2 4.18743 2.48926
      vertex 7.2 10.1217 2.58969
      vertex 7.2 10.4022 2.03912
    endloop
  endfacet
  facet normal -1 0 0
    outer loop
      vertex 7.2 3.86074 1.84809
      vertex 7.2 10.4022 2.03912
      vertex 7.2 10.8391 1.60219
    endloop
  endfacet
  facet normal -1 0 -0
    outer loop
      vertex 7.2 3.35191 1.33926
      vertex 7.2 11.3897 1.32166
      vertex 7.2 2.71074 1.01257
    endloop
  endfacet
  facet normal -1 -0 0
    outer loop
      vertex 7.2 10.1217 2.58969
      vertex 7.2 4.18743 2.48926
      vertex 7.2 4.3 3.2
    endloop
  endfacet
  facet normal -1 -0 0
    outer loop
      vertex 7.2 10.4022 2.03912
      vertex 7.2 3.86074 1.84809
      vertex 7.2 4.18743 2.48926
    endloop
  endfacet
  facet normal -1 -0 0
    outer loop
      vertex 7.2 10.8391 1.60219
      vertex 7.2 3.35191 1.33926
      vertex 7.2 3.86074 1.84809
    endloop
  endfacet
  facet normal -1 0 0
    outer loop
      vertex 7.2 11.3897 1.32166
      vertex 7.2 3.35191 1.33926
      vertex 7.2 10.8391 1.60219
    endloop
  endfacet
  facet normal -1 0 0
    outer loop
      vertex 7.2 -4 -2.8
      vertex 7.2 2.71074 1.01257
      vertex 7.2 18 -2.8
    endloop
  endfacet
  facet normal -1 0 0
    outer loop
      vertex 7.2 2.71074 1.01257
      vertex 7.2 -4 -2.8
      vertex 7.2 2 0.900001
    endloop
  endfacet
  facet normal -1 -0 0
    outer loop
      vertex 7.2 -0.187429 2.48926
      vertex 7.2 -4 -2.8
      vertex 7.2 -0.299999 3.2
    endloop
  endfacet
  facet normal -1 -0 0
    outer loop
      vertex 7.2 0.139261 1.84809
      vertex 7.2 -4 -2.8
      vertex 7.2 -0.187429 2.48926
    endloop
  endfacet
  facet normal -1 -0 0
    outer loop
      vertex 7.2 0.648094 1.33926
      vertex 7.2 -4 -2.8
      vertex 7.2 0.139261 1.84809
    endloop
  endfacet
  facet normal -1 -0 0
    outer loop
      vertex 7.2 1.28926 1.01257
      vertex 7.2 -4 -2.8
      vertex 7.2 0.648094 1.33926
    endloop
  endfacet
  facet normal -1 -0 0
    outer loop
      vertex 7.2 2 0.900001
      vertex 7.2 -4 -2.8
      vertex 7.2 1.28926 1.01257
    endloop
  endfacet
  facet normal -1 0 0
    outer loop
      vertex 7.2 13.8783 3.81031
      vertex 7.2 18 9.2
      vertex 7.2 13.975 3.2
    endloop
  endfacet
  facet normal -1 0 0
    outer loop
      vertex 7.2 13.5978 4.36088
      vertex 7.2 18 9.2
      vertex 7.2 13.8783 3.81031
    endloop
  endfacet
  facet normal -1 0 0
    outer loop
      vertex 7.2 13.1609 4.79781
      vertex 7.2 18 9.2
      vertex 7.2 13.5978 4.36088
    endloop
  endfacet
  facet normal -1 0 0
    outer loop
      vertex 7.2 12.6103 5.07834
      vertex 7.2 18 9.2
      vertex 7.2 13.1609 4.79781
    endloop
  endfacet
  facet normal -1 0 0
    outer loop
      vertex 7.2 12 5.175
      vertex 7.2 18 9.2
      vertex 7.2 12.6103 5.07834
    endloop
  endfacet
  facet normal -1 0 0
    outer loop
      vertex 7.2 11.3897 5.07834
      vertex 7.2 18 9.2
      vertex 7.2 12 5.175
    endloop
  endfacet
  facet normal -1 0 0
    outer loop
      vertex 7.2 3.35191 5.06074
      vertex 7.2 11.3897 5.07834
      vertex 7.2 10.8391 4.79781
    endloop
  endfacet
  facet normal -1 0 0
    outer loop
      vertex 7.2 4.3 3.2
      vertex 7.2 10.1217 3.81031
      vertex 7.2 10.025 3.2
    endloop
  endfacet
  facet normal -1 0 0
    outer loop
      vertex 7.2 4.18743 3.91074
      vertex 7.2 10.1217 3.81031
      vertex 7.2 4.3 3.2
    endloop
  endfacet
  facet normal -1 0 0
    outer loop
      vertex 7.2 10.1217 3.81031
      vertex 7.2 4.18743 3.91074
      vertex 7.2 10.4022 4.36088
    endloop
  endfacet
  facet normal -1 0 0
    outer loop
      vertex 7.2 3.86074 4.55191
      vertex 7.2 10.4022 4.36088
      vertex 7.2 4.18743 3.91074
    endloop
  endfacet
  facet normal -1 0 0
    outer loop
      vertex 7.2 10.4022 4.36088
      vertex 7.2 3.86074 4.55191
      vertex 7.2 10.8391 4.79781
    endloop
  endfacet
  facet normal -1 0 0
    outer loop
      vertex 7.2 3.35191 5.06074
      vertex 7.2 10.8391 4.79781
      vertex 7.2 3.86074 4.55191
    endloop
  endfacet
  facet normal -1 -0 0
    outer loop
      vertex 7.2 11.3897 5.07834
      vertex 7.2 3.35191 5.06074
      vertex 7.2 2.71074 5.38743
    endloop
  endfacet
  facet normal -1 0 0
    outer loop
      vertex 7.2 11.3897 5.07834
      vertex 7.2 2.71074 5.38743
      vertex 7.2 18 9.2
    endloop
  endfacet
  facet normal -1 0 0
    outer loop
      vertex 7.2 -4 9.2
      vertex 7.2 2.71074 5.38743
      vertex 7.2 2 5.5
    endloop
  endfacet
  facet normal -1 0 0
    outer loop
      vertex 7.2 -4 9.2
      vertex 7.2 2 5.5
      vertex 7.2 1.28926 5.38743
    endloop
  endfacet
  facet normal -1 0 0
    outer loop
      vertex 7.2 -4 9.2
      vertex 7.2 -0.299999 3.2
      vertex 7.2 -4 -2.8
    endloop
  endfacet
  facet normal -1 0 0
    outer loop
      vertex 7.2 -0.299999 3.2
      vertex 7.2 -4 9.2
      vertex 7.2 -0.187429 3.91074
    endloop
  endfacet
  facet normal -1 0 0
    outer loop
      vertex 7.2 2.71074 5.38743
      vertex 7.2 -4 9.2
      vertex 7.2 18 9.2
    endloop
  endfacet
  facet normal -1 0 0
    outer loop
      vertex 7.2 0.648094 5.06074
      vertex 7.2 -4 9.2
      vertex 7.2 1.28926 5.38743
    endloop
  endfacet
  facet normal -1 0 0
    outer loop
      vertex 7.2 0.139261 4.55191
      vertex 7.2 -4 9.2
      vertex 7.2 0.648094 5.06074
    endloop
  endfacet
  facet normal -1 0 0
    outer loop
      vertex 7.2 -0.187429 3.91074
      vertex 7.2 -4 9.2
      vertex 7.2 0.139261 4.55191
    endloop
  endfacet
  facet normal 0 -1 0
    outer loop
      vertex 7.2 -4 -2.8
      vertex 12.8 -4 9.2
      vertex 7.2 -4 9.2
    endloop
  endfacet
  facet normal 0 -1 -0
    outer loop
      vertex 12.8 -4 9.2
      vertex 7.2 -4 -2.8
      vertex 12.8 -4 -2.8
    endloop
  endfacet
endsolid OpenSCAD_Model
