solid OpenSCAD_Model
  facet normal -0.866025 -0.5 0
    outer loop
      vertex 6 1 0.0499996
      vertex 3 6.19615 5
      vertex 3 6.19615 0.0499996
    endloop
  endfacet
  facet normal -0.866025 -0.5 0
    outer loop
      vertex 3 6.19615 5
      vertex 6 1 0.0499996
      vertex 6 1 5
    endloop
  endfacet
  facet normal 0.866025 -0.5 0
    outer loop
      vertex -6 1 5
      vertex -3 6.19615 0.0499996
      vertex -3 6.19615 5
    endloop
  endfacet
  facet normal 0.866025 -0.5 0
    outer loop
      vertex -3 6.19615 0.0499996
      vertex -6 1 5
      vertex -6 1 0.0499996
    endloop
  endfacet
  facet normal 0 -1 0
    outer loop
      vertex -3 6.19615 0.0499996
      vertex 3 6.19615 5
      vertex -3 6.19615 5
    endloop
  endfacet
  facet normal 0 -1 -0
    outer loop
      vertex 3 6.19615 5
      vertex -3 6.19615 0.0499996
      vertex 3 6.19615 0.0499996
    endloop
  endfacet
  facet normal -0.866025 0.5 0
    outer loop
      vertex 3 -4.19615 0.0499996
      vertex 6 1 5
      vertex 6 1 0.0499996
    endloop
  endfacet
  facet normal -0.866025 0.5 0
    outer loop
      vertex 6 1 5
      vertex 3 -4.19615 0.0499996
      vertex 3 -4.19615 5
    endloop
  endfacet
  facet normal 0 0 1
    outer loop
      vertex 6 1 0.0499996
      vertex 3.09093 2.0043 0.0499996
      vertex 3.25 1 0.0499996
    endloop
  endfacet
  facet normal -0 0 1
    outer loop
      vertex 2.6293 2.9103 0.0499996
      vertex 6 1 0.0499996
      vertex 3 6.19615 0.0499996
    endloop
  endfacet
  facet normal 0 0 1
    outer loop
      vertex 6 1 0.0499996
      vertex 2.6293 2.9103 0.0499996
      vertex 3.09093 2.0043 0.0499996
    endloop
  endfacet
  facet normal 0 0 1
    outer loop
      vertex 3 6.19615 0.0499996
      vertex 1.9103 3.6293 0.0499996
      vertex 2.6293 2.9103 0.0499996
    endloop
  endfacet
  facet normal 0 0 1
    outer loop
      vertex 3 6.19615 0.0499996
      vertex 1.0043 4.09093 0.0499996
      vertex 1.9103 3.6293 0.0499996
    endloop
  endfacet
  facet normal 0 0 1
    outer loop
      vertex 3 6.19615 0.0499996
      vertex 0 4.25 0.0499996
      vertex 1.0043 4.09093 0.0499996
    endloop
  endfacet
  facet normal -0 0 1
    outer loop
      vertex -3 6.19615 0.0499996
      vertex 0 4.25 0.0499996
      vertex 3 6.19615 0.0499996
    endloop
  endfacet
  facet normal 0 0 1
    outer loop
      vertex 0 4.25 0.0499996
      vertex -3 6.19615 0.0499996
      vertex -1.0043 4.09093 0.0499996
    endloop
  endfacet
  facet normal 0 0 1
    outer loop
      vertex -1.0043 4.09093 0.0499996
      vertex -3 6.19615 0.0499996
      vertex -1.9103 3.6293 0.0499996
    endloop
  endfacet
  facet normal 0 0 1
    outer loop
      vertex -3 6.19615 0.0499996
      vertex -2.6293 2.9103 0.0499996
      vertex -1.9103 3.6293 0.0499996
    endloop
  endfacet
  facet normal 0 0 1
    outer loop
      vertex -6 1 0.0499996
      vertex -2.6293 2.9103 0.0499996
      vertex -3 6.19615 0.0499996
    endloop
  endfacet
  facet normal 0 0 1
    outer loop
      vertex -2.6293 2.9103 0.0499996
      vertex -6 1 0.0499996
      vertex -3.09093 2.0043 0.0499996
    endloop
  endfacet
  facet normal 0 0 1
    outer loop
      vertex -3.09093 2.0043 0.0499996
      vertex -6 1 0.0499996
      vertex -3.25 1 0.0499996
    endloop
  endfacet
  facet normal 0 0 1
    outer loop
      vertex 3.09093 -0.00430489 0.0499996
      vertex 6 1 0.0499996
      vertex 3.25 1 0.0499996
    endloop
  endfacet
  facet normal 0 0 1
    outer loop
      vertex 2.6293 -0.910301 0.0499996
      vertex 6 1 0.0499996
      vertex 3.09093 -0.00430489 0.0499996
    endloop
  endfacet
  facet normal 0 0 1
    outer loop
      vertex 6 1 0.0499996
      vertex 2.6293 -0.910301 0.0499996
      vertex 3 -4.19615 0.0499996
    endloop
  endfacet
  facet normal -0 0 1
    outer loop
      vertex 1.9103 -1.6293 0.0499996
      vertex 3 -4.19615 0.0499996
      vertex 2.6293 -0.910301 0.0499996
    endloop
  endfacet
  facet normal -0 0 1
    outer loop
      vertex 1.0043 -2.09093 0.0499996
      vertex 3 -4.19615 0.0499996
      vertex 1.9103 -1.6293 0.0499996
    endloop
  endfacet
  facet normal -0 0 1
    outer loop
      vertex 0 -2.25 0.0499996
      vertex 3 -4.19615 0.0499996
      vertex 1.0043 -2.09093 0.0499996
    endloop
  endfacet
  facet normal 0 0 1
    outer loop
      vertex -3 -4.19615 0.0499996
      vertex 0 -2.25 0.0499996
      vertex -1.0043 -2.09093 0.0499996
    endloop
  endfacet
  facet normal 0 0 1
    outer loop
      vertex -3 -4.19615 0.0499996
      vertex -1.0043 -2.09093 0.0499996
      vertex -1.9103 -1.6293 0.0499996
    endloop
  endfacet
  facet normal 0 0 1
    outer loop
      vertex 0 -2.25 0.0499996
      vertex -3 -4.19615 0.0499996
      vertex 3 -4.19615 0.0499996
    endloop
  endfacet
  facet normal 0 0 1
    outer loop
      vertex -2.6293 -0.910301 0.0499996
      vertex -3 -4.19615 0.0499996
      vertex -1.9103 -1.6293 0.0499996
    endloop
  endfacet
  facet normal 0 0 1
    outer loop
      vertex -6 1 0.0499996
      vertex -2.6293 -0.910301 0.0499996
      vertex -3.09093 -0.00430489 0.0499996
    endloop
  endfacet
  facet normal -0 0 1
    outer loop
      vertex -6 1 0.0499996
      vertex -3.09093 -0.00430489 0.0499996
      vertex -3.25 1 0.0499996
    endloop
  endfacet
  facet normal 0 0 1
    outer loop
      vertex -2.6293 -0.910301 0.0499996
      vertex -6 1 0.0499996
      vertex -3 -4.19615 0.0499996
    endloop
  endfacet
  facet normal 0 1 -0
    outer loop
      vertex 3 -4.19615 0.0499996
      vertex -3 -4.19615 5
      vertex 3 -4.19615 5
    endloop
  endfacet
  facet normal 0 1 0
    outer loop
      vertex -3 -4.19615 5
      vertex 3 -4.19615 0.0499996
      vertex -3 -4.19615 0.0499996
    endloop
  endfacet
  facet normal 0.866025 0.5 0
    outer loop
      vertex -3 -4.19615 5
      vertex -6 1 0.0499996
      vertex -6 1 5
    endloop
  endfacet
  facet normal 0.866025 0.5 0
    outer loop
      vertex -6 1 0.0499996
      vertex -3 -4.19615 5
      vertex -3 -4.19615 0.0499996
    endloop
  endfacet
  facet normal -0.987688 -0.156435 0
    outer loop
      vertex 3.25 1 -5
      vertex 3.09093 2.0043 0.0499996
      vertex 3.09093 2.0043 -5
    endloop
  endfacet
  facet normal -0.987688 -0.156435 0
    outer loop
      vertex 3.09093 2.0043 0.0499996
      vertex 3.25 1 -5
      vertex 3.25 1 0.0499996
    endloop
  endfacet
  facet normal 0.987688 -0.156435 0
    outer loop
      vertex -3.25 1 0.0499996
      vertex -3.09093 2.0043 -5
      vertex -3.09093 2.0043 0.0499996
    endloop
  endfacet
  facet normal 0.987688 -0.156435 0
    outer loop
      vertex -3.09093 2.0043 -5
      vertex -3.25 1 0.0499996
      vertex -3.25 1 -5
    endloop
  endfacet
  facet normal -0.156435 -0.987688 0
    outer loop
      vertex 0 4.25 -5
      vertex 1.0043 4.09093 0.0499996
      vertex 0 4.25 0.0499996
    endloop
  endfacet
  facet normal -0.156435 -0.987688 -0
    outer loop
      vertex 1.0043 4.09093 0.0499996
      vertex 0 4.25 -5
      vertex 1.0043 4.09093 -5
    endloop
  endfacet
  facet normal 0.156435 0.987688 -0
    outer loop
      vertex 0 -2.25 -5
      vertex -1.0043 -2.09093 0.0499996
      vertex 0 -2.25 0.0499996
    endloop
  endfacet
  facet normal 0.156435 0.987688 0
    outer loop
      vertex -1.0043 -2.09093 0.0499996
      vertex 0 -2.25 -5
      vertex -1.0043 -2.09093 -5
    endloop
  endfacet
  facet normal -0.707107 -0.707107 0
    outer loop
      vertex 2.6293 2.9103 -5
      vertex 1.9103 3.6293 0.0499996
      vertex 1.9103 3.6293 -5
    endloop
  endfacet
  facet normal -0.707107 -0.707107 0
    outer loop
      vertex 1.9103 3.6293 0.0499996
      vertex 2.6293 2.9103 -5
      vertex 2.6293 2.9103 0.0499996
    endloop
  endfacet
  facet normal -0.891007 -0.45399 0
    outer loop
      vertex 3.09093 2.0043 -5
      vertex 2.6293 2.9103 0.0499996
      vertex 2.6293 2.9103 -5
    endloop
  endfacet
  facet normal -0.891007 -0.45399 0
    outer loop
      vertex 2.6293 2.9103 0.0499996
      vertex 3.09093 2.0043 -5
      vertex 3.09093 2.0043 0.0499996
    endloop
  endfacet
  facet normal -0.45399 -0.891007 0
    outer loop
      vertex 1.0043 4.09093 -5
      vertex 1.9103 3.6293 0.0499996
      vertex 1.0043 4.09093 0.0499996
    endloop
  endfacet
  facet normal -0.45399 -0.891007 -0
    outer loop
      vertex 1.9103 3.6293 0.0499996
      vertex 1.0043 4.09093 -5
      vertex 1.9103 3.6293 -5
    endloop
  endfacet
  facet normal 0.45399 -0.891007 0
    outer loop
      vertex -1.9103 3.6293 -5
      vertex -1.0043 4.09093 0.0499996
      vertex -1.9103 3.6293 0.0499996
    endloop
  endfacet
  facet normal 0.45399 -0.891007 0
    outer loop
      vertex -1.0043 4.09093 0.0499996
      vertex -1.9103 3.6293 -5
      vertex -1.0043 4.09093 -5
    endloop
  endfacet
  facet normal 0.707107 -0.707107 0
    outer loop
      vertex -2.6293 2.9103 0.0499996
      vertex -1.9103 3.6293 -5
      vertex -1.9103 3.6293 0.0499996
    endloop
  endfacet
  facet normal 0.707107 -0.707107 0
    outer loop
      vertex -1.9103 3.6293 -5
      vertex -2.6293 2.9103 0.0499996
      vertex -2.6293 2.9103 -5
    endloop
  endfacet
  facet normal 0.156435 -0.987688 0
    outer loop
      vertex -1.0043 4.09093 -5
      vertex 0 4.25 0.0499996
      vertex -1.0043 4.09093 0.0499996
    endloop
  endfacet
  facet normal 0.156435 -0.987688 0
    outer loop
      vertex 0 4.25 0.0499996
      vertex -1.0043 4.09093 -5
      vertex 0 4.25 -5
    endloop
  endfacet
  facet normal -0.891007 0.45399 0
    outer loop
      vertex 2.6293 -0.910301 -5
      vertex 3.09093 -0.00430489 0.0499996
      vertex 3.09093 -0.00430489 -5
    endloop
  endfacet
  facet normal -0.891007 0.45399 0
    outer loop
      vertex 3.09093 -0.00430489 0.0499996
      vertex 2.6293 -0.910301 -5
      vertex 2.6293 -0.910301 0.0499996
    endloop
  endfacet
  facet normal 0.707107 0.707107 0
    outer loop
      vertex -1.9103 -1.6293 0.0499996
      vertex -2.6293 -0.910301 -5
      vertex -2.6293 -0.910301 0.0499996
    endloop
  endfacet
  facet normal 0.707107 0.707107 0
    outer loop
      vertex -2.6293 -0.910301 -5
      vertex -1.9103 -1.6293 0.0499996
      vertex -1.9103 -1.6293 -5
    endloop
  endfacet
  facet normal 0.987688 0.156435 0
    outer loop
      vertex -3.09093 -0.00430489 0.0499996
      vertex -3.25 1 -5
      vertex -3.25 1 0.0499996
    endloop
  endfacet
  facet normal 0.987688 0.156435 0
    outer loop
      vertex -3.25 1 -5
      vertex -3.09093 -0.00430489 0.0499996
      vertex -3.09093 -0.00430489 -5
    endloop
  endfacet
  facet normal 0.891007 -0.45399 0
    outer loop
      vertex -3.09093 2.0043 0.0499996
      vertex -2.6293 2.9103 -5
      vertex -2.6293 2.9103 0.0499996
    endloop
  endfacet
  facet normal 0.891007 -0.45399 0
    outer loop
      vertex -2.6293 2.9103 -5
      vertex -3.09093 2.0043 0.0499996
      vertex -3.09093 2.0043 -5
    endloop
  endfacet
  facet normal -0.987688 0.156435 0
    outer loop
      vertex 3.09093 -0.00430489 -5
      vertex 3.25 1 0.0499996
      vertex 3.25 1 -5
    endloop
  endfacet
  facet normal -0.987688 0.156435 0
    outer loop
      vertex 3.25 1 0.0499996
      vertex 3.09093 -0.00430489 -5
      vertex 3.09093 -0.00430489 0.0499996
    endloop
  endfacet
  facet normal -0.156435 0.987688 0
    outer loop
      vertex 1.0043 -2.09093 -5
      vertex 0 -2.25 0.0499996
      vertex 1.0043 -2.09093 0.0499996
    endloop
  endfacet
  facet normal -0.156435 0.987688 0
    outer loop
      vertex 0 -2.25 0.0499996
      vertex 1.0043 -2.09093 -5
      vertex 0 -2.25 -5
    endloop
  endfacet
  facet normal -0.707107 0.707107 0
    outer loop
      vertex 1.9103 -1.6293 -5
      vertex 2.6293 -0.910301 0.0499996
      vertex 2.6293 -0.910301 -5
    endloop
  endfacet
  facet normal -0.707107 0.707107 0
    outer loop
      vertex 2.6293 -0.910301 0.0499996
      vertex 1.9103 -1.6293 -5
      vertex 1.9103 -1.6293 0.0499996
    endloop
  endfacet
  facet normal 0.45399 0.891007 -0
    outer loop
      vertex -1.0043 -2.09093 -5
      vertex -1.9103 -1.6293 0.0499996
      vertex -1.0043 -2.09093 0.0499996
    endloop
  endfacet
  facet normal 0.45399 0.891007 0
    outer loop
      vertex -1.9103 -1.6293 0.0499996
      vertex -1.0043 -2.09093 -5
      vertex -1.9103 -1.6293 -5
    endloop
  endfacet
  facet normal 0.891007 0.45399 0
    outer loop
      vertex -2.6293 -0.910301 0.0499996
      vertex -3.09093 -0.00430489 -5
      vertex -3.09093 -0.00430489 0.0499996
    endloop
  endfacet
  facet normal 0.891007 0.45399 0
    outer loop
      vertex -3.09093 -0.00430489 -5
      vertex -2.6293 -0.910301 0.0499996
      vertex -2.6293 -0.910301 -5
    endloop
  endfacet
  facet normal -0.45399 0.891007 0
    outer loop
      vertex 1.9103 -1.6293 -5
      vertex 1.0043 -2.09093 0.0499996
      vertex 1.9103 -1.6293 0.0499996
    endloop
  endfacet
  facet normal -0.45399 0.891007 0
    outer loop
      vertex 1.0043 -2.09093 0.0499996
      vertex 1.9103 -1.6293 -5
      vertex 1.0043 -2.09093 -5
    endloop
  endfacet
  facet normal -0.866025 -0.5 0
    outer loop
      vertex 5.125 15 0.55
      vertex 2.5625 19.4384 5
      vertex 2.5625 19.4384 0.55
    endloop
  endfacet
  facet normal -0.866025 -0.5 0
    outer loop
      vertex 2.5625 19.4384 5
      vertex 5.125 15 0.55
      vertex 5.125 15 5
    endloop
  endfacet
  facet normal 0.866025 -0.5 0
    outer loop
      vertex -5.125 15 5
      vertex -2.5625 19.4384 0.55
      vertex -2.5625 19.4384 5
    endloop
  endfacet
  facet normal 0.866025 -0.5 0
    outer loop
      vertex -2.5625 19.4384 0.55
      vertex -5.125 15 5
      vertex -5.125 15 0.55
    endloop
  endfacet
  facet normal 0 -1 0
    outer loop
      vertex -2.5625 19.4384 0.55
      vertex 2.5625 19.4384 5
      vertex -2.5625 19.4384 5
    endloop
  endfacet
  facet normal 0 -1 -0
    outer loop
      vertex 2.5625 19.4384 5
      vertex -2.5625 19.4384 0.55
      vertex 2.5625 19.4384 0.55
    endloop
  endfacet
  facet normal -0.866025 0.5 0
    outer loop
      vertex 2.5625 10.5616 0.55
      vertex 5.125 15 5
      vertex 5.125 15 0.55
    endloop
  endfacet
  facet normal -0.866025 0.5 0
    outer loop
      vertex 5.125 15 5
      vertex 2.5625 10.5616 0.55
      vertex 2.5625 10.5616 5
    endloop
  endfacet
  facet normal 0 0 1
    outer loop
      vertex 5.125 15 0.55
      vertex 2.80562 15.9116 0.55
      vertex 2.95 15 0.55
    endloop
  endfacet
  facet normal -0 0 1
    outer loop
      vertex 2.3866 16.734 0.55
      vertex 5.125 15 0.55
      vertex 2.5625 19.4384 0.55
    endloop
  endfacet
  facet normal 0 0 1
    outer loop
      vertex 5.125 15 0.55
      vertex 2.3866 16.734 0.55
      vertex 2.80562 15.9116 0.55
    endloop
  endfacet
  facet normal 0 0 1
    outer loop
      vertex 2.5625 19.4384 0.55
      vertex 1.73397 17.3866 0.55
      vertex 2.3866 16.734 0.55
    endloop
  endfacet
  facet normal 0 0 1
    outer loop
      vertex 2.5625 19.4384 0.55
      vertex 0.9116 17.8056 0.55
      vertex 1.73397 17.3866 0.55
    endloop
  endfacet
  facet normal 0 0 1
    outer loop
      vertex 2.5625 19.4384 0.55
      vertex 0 17.95 0.55
      vertex 0.9116 17.8056 0.55
    endloop
  endfacet
  facet normal -0 0 1
    outer loop
      vertex -2.5625 19.4384 0.55
      vertex 0 17.95 0.55
      vertex 2.5625 19.4384 0.55
    endloop
  endfacet
  facet normal 0 0 1
    outer loop
      vertex 0 17.95 0.55
      vertex -2.5625 19.4384 0.55
      vertex -0.9116 17.8056 0.55
    endloop
  endfacet
  facet normal 0 0 1
    outer loop
      vertex -2.5625 19.4384 0.55
      vertex -1.73397 17.3866 0.55
      vertex -0.9116 17.8056 0.55
    endloop
  endfacet
  facet normal 0 0 1
    outer loop
      vertex -2.5625 19.4384 0.55
      vertex -2.3866 16.734 0.55
      vertex -1.73397 17.3866 0.55
    endloop
  endfacet
  facet normal 0 0 1
    outer loop
      vertex -5.125 15 0.55
      vertex -2.3866 16.734 0.55
      vertex -2.5625 19.4384 0.55
    endloop
  endfacet
  facet normal 0 0 1
    outer loop
      vertex -2.3866 16.734 0.55
      vertex -5.125 15 0.55
      vertex -2.80562 15.9116 0.55
    endloop
  endfacet
  facet normal 0 0 1
    outer loop
      vertex -2.80562 15.9116 0.55
      vertex -5.125 15 0.55
      vertex -2.95 15 0.55
    endloop
  endfacet
  facet normal 0 0 1
    outer loop
      vertex 2.80562 14.0884 0.55
      vertex 5.125 15 0.55
      vertex 2.95 15 0.55
    endloop
  endfacet
  facet normal 0 0 1
    outer loop
      vertex 2.3866 13.266 0.55
      vertex 5.125 15 0.55
      vertex 2.80562 14.0884 0.55
    endloop
  endfacet
  facet normal 0 0 1
    outer loop
      vertex 5.125 15 0.55
      vertex 2.3866 13.266 0.55
      vertex 2.5625 10.5616 0.55
    endloop
  endfacet
  facet normal -0 0 1
    outer loop
      vertex 1.73397 12.6134 0.55
      vertex 2.5625 10.5616 0.55
      vertex 2.3866 13.266 0.55
    endloop
  endfacet
  facet normal -0 0 1
    outer loop
      vertex 0.9116 12.1944 0.55
      vertex 2.5625 10.5616 0.55
      vertex 1.73397 12.6134 0.55
    endloop
  endfacet
  facet normal -0 0 1
    outer loop
      vertex 0 12.05 0.55
      vertex 2.5625 10.5616 0.55
      vertex 0.9116 12.1944 0.55
    endloop
  endfacet
  facet normal 0 0 1
    outer loop
      vertex -2.5625 10.5616 0.55
      vertex 0 12.05 0.55
      vertex -0.9116 12.1944 0.55
    endloop
  endfacet
  facet normal 0 0 1
    outer loop
      vertex 0 12.05 0.55
      vertex -2.5625 10.5616 0.55
      vertex 2.5625 10.5616 0.55
    endloop
  endfacet
  facet normal 0 0 1
    outer loop
      vertex -1.73397 12.6134 0.55
      vertex -2.5625 10.5616 0.55
      vertex -0.9116 12.1944 0.55
    endloop
  endfacet
  facet normal 0 0 1
    outer loop
      vertex -2.3866 13.266 0.55
      vertex -2.5625 10.5616 0.55
      vertex -1.73397 12.6134 0.55
    endloop
  endfacet
  facet normal 0 0 1
    outer loop
      vertex -5.125 15 0.55
      vertex -2.3866 13.266 0.55
      vertex -2.80562 14.0884 0.55
    endloop
  endfacet
  facet normal -0 0 1
    outer loop
      vertex -5.125 15 0.55
      vertex -2.80562 14.0884 0.55
      vertex -2.95 15 0.55
    endloop
  endfacet
  facet normal 0 0 1
    outer loop
      vertex -2.3866 13.266 0.55
      vertex -5.125 15 0.55
      vertex -2.5625 10.5616 0.55
    endloop
  endfacet
  facet normal 0 1 -0
    outer loop
      vertex 2.5625 10.5616 0.55
      vertex -2.5625 10.5616 5
      vertex 2.5625 10.5616 5
    endloop
  endfacet
  facet normal 0 1 0
    outer loop
      vertex -2.5625 10.5616 5
      vertex 2.5625 10.5616 0.55
      vertex -2.5625 10.5616 0.55
    endloop
  endfacet
  facet normal 0.866025 0.5 0
    outer loop
      vertex -2.5625 10.5616 5
      vertex -5.125 15 0.55
      vertex -5.125 15 5
    endloop
  endfacet
  facet normal 0.866025 0.5 0
    outer loop
      vertex -5.125 15 0.55
      vertex -2.5625 10.5616 5
      vertex -2.5625 10.5616 0.55
    endloop
  endfacet
  facet normal -0.987688 -0.156435 0
    outer loop
      vertex 2.95 15 -5
      vertex 2.80562 15.9116 0.55
      vertex 2.80562 15.9116 -5
    endloop
  endfacet
  facet normal -0.987688 -0.156435 0
    outer loop
      vertex 2.80562 15.9116 0.55
      vertex 2.95 15 -5
      vertex 2.95 15 0.55
    endloop
  endfacet
  facet normal 0.987688 -0.156435 0
    outer loop
      vertex -2.95 15 0.55
      vertex -2.80562 15.9116 -5
      vertex -2.80562 15.9116 0.55
    endloop
  endfacet
  facet normal 0.987688 -0.156435 0
    outer loop
      vertex -2.80562 15.9116 -5
      vertex -2.95 15 0.55
      vertex -2.95 15 -5
    endloop
  endfacet
  facet normal -0.156436 -0.987688 0
    outer loop
      vertex 0 17.95 -5
      vertex 0.9116 17.8056 0.55
      vertex 0 17.95 0.55
    endloop
  endfacet
  facet normal -0.156436 -0.987688 -0
    outer loop
      vertex 0.9116 17.8056 0.55
      vertex 0 17.95 -5
      vertex 0.9116 17.8056 -5
    endloop
  endfacet
  facet normal -0.707107 -0.707107 0
    outer loop
      vertex 2.3866 16.734 -5
      vertex 1.73397 17.3866 0.55
      vertex 1.73397 17.3866 -5
    endloop
  endfacet
  facet normal -0.707107 -0.707107 0
    outer loop
      vertex 1.73397 17.3866 0.55
      vertex 2.3866 16.734 -5
      vertex 2.3866 16.734 0.55
    endloop
  endfacet
  facet normal -0.891006 -0.453991 0
    outer loop
      vertex 2.80562 15.9116 -5
      vertex 2.3866 16.734 0.55
      vertex 2.3866 16.734 -5
    endloop
  endfacet
  facet normal -0.891006 -0.453991 0
    outer loop
      vertex 2.3866 16.734 0.55
      vertex 2.80562 15.9116 -5
      vertex 2.80562 15.9116 0.55
    endloop
  endfacet
  facet normal -0.45399 -0.891007 0
    outer loop
      vertex 0.9116 17.8056 -5
      vertex 1.73397 17.3866 0.55
      vertex 0.9116 17.8056 0.55
    endloop
  endfacet
  facet normal -0.45399 -0.891007 -0
    outer loop
      vertex 1.73397 17.3866 0.55
      vertex 0.9116 17.8056 -5
      vertex 1.73397 17.3866 -5
    endloop
  endfacet
  facet normal 0.45399 -0.891007 0
    outer loop
      vertex -1.73397 17.3866 -5
      vertex -0.9116 17.8056 0.55
      vertex -1.73397 17.3866 0.55
    endloop
  endfacet
  facet normal 0.45399 -0.891007 0
    outer loop
      vertex -0.9116 17.8056 0.55
      vertex -1.73397 17.3866 -5
      vertex -0.9116 17.8056 -5
    endloop
  endfacet
  facet normal 0.156436 -0.987688 0
    outer loop
      vertex -0.9116 17.8056 -5
      vertex 0 17.95 0.55
      vertex -0.9116 17.8056 0.55
    endloop
  endfacet
  facet normal 0.156436 -0.987688 0
    outer loop
      vertex 0 17.95 0.55
      vertex -0.9116 17.8056 -5
      vertex 0 17.95 -5
    endloop
  endfacet
  facet normal 0.987688 0.156435 0
    outer loop
      vertex -2.80562 14.0884 0.55
      vertex -2.95 15 -5
      vertex -2.95 15 0.55
    endloop
  endfacet
  facet normal 0.987688 0.156435 0
    outer loop
      vertex -2.95 15 -5
      vertex -2.80562 14.0884 0.55
      vertex -2.80562 14.0884 -5
    endloop
  endfacet
  facet normal 0.707107 -0.707107 0
    outer loop
      vertex -2.3866 16.734 0.55
      vertex -1.73397 17.3866 -5
      vertex -1.73397 17.3866 0.55
    endloop
  endfacet
  facet normal 0.707107 -0.707107 0
    outer loop
      vertex -1.73397 17.3866 -5
      vertex -2.3866 16.734 0.55
      vertex -2.3866 16.734 -5
    endloop
  endfacet
  facet normal 0.891006 -0.453991 0
    outer loop
      vertex -2.80562 15.9116 0.55
      vertex -2.3866 16.734 -5
      vertex -2.3866 16.734 0.55
    endloop
  endfacet
  facet normal 0.891006 -0.453991 0
    outer loop
      vertex -2.3866 16.734 -5
      vertex -2.80562 15.9116 0.55
      vertex -2.80562 15.9116 -5
    endloop
  endfacet
  facet normal -0.987688 0.156435 0
    outer loop
      vertex 2.80562 14.0884 -5
      vertex 2.95 15 0.55
      vertex 2.95 15 -5
    endloop
  endfacet
  facet normal -0.987688 0.156435 0
    outer loop
      vertex 2.95 15 0.55
      vertex 2.80562 14.0884 -5
      vertex 2.80562 14.0884 0.55
    endloop
  endfacet
  facet normal -0.156435 0.987688 0
    outer loop
      vertex 0.9116 12.1944 -5
      vertex 0 12.05 0.55
      vertex 0.9116 12.1944 0.55
    endloop
  endfacet
  facet normal -0.156435 0.987688 0
    outer loop
      vertex 0 12.05 0.55
      vertex 0.9116 12.1944 -5
      vertex 0 12.05 -5
    endloop
  endfacet
  facet normal -0.891006 0.453991 0
    outer loop
      vertex 2.3866 13.266 -5
      vertex 2.80562 14.0884 0.55
      vertex 2.80562 14.0884 -5
    endloop
  endfacet
  facet normal -0.891006 0.453991 0
    outer loop
      vertex 2.80562 14.0884 0.55
      vertex 2.3866 13.266 -5
      vertex 2.3866 13.266 0.55
    endloop
  endfacet
  facet normal 0.707107 0.707107 0
    outer loop
      vertex -1.73397 12.6134 0.55
      vertex -2.3866 13.266 -5
      vertex -2.3866 13.266 0.55
    endloop
  endfacet
  facet normal 0.707107 0.707107 0
    outer loop
      vertex -2.3866 13.266 -5
      vertex -1.73397 12.6134 0.55
      vertex -1.73397 12.6134 -5
    endloop
  endfacet
  facet normal 0.156435 0.987688 -0
    outer loop
      vertex 0 12.05 -5
      vertex -0.9116 12.1944 0.55
      vertex 0 12.05 0.55
    endloop
  endfacet
  facet normal 0.156435 0.987688 0
    outer loop
      vertex -0.9116 12.1944 0.55
      vertex 0 12.05 -5
      vertex -0.9116 12.1944 -5
    endloop
  endfacet
  facet normal 0.891006 0.453991 0
    outer loop
      vertex -2.3866 13.266 0.55
      vertex -2.80562 14.0884 -5
      vertex -2.80562 14.0884 0.55
    endloop
  endfacet
  facet normal 0.891006 0.453991 0
    outer loop
      vertex -2.80562 14.0884 -5
      vertex -2.3866 13.266 0.55
      vertex -2.3866 13.266 -5
    endloop
  endfacet
  facet normal -0.453991 0.891006 0
    outer loop
      vertex 1.73397 12.6134 -5
      vertex 0.9116 12.1944 0.55
      vertex 1.73397 12.6134 0.55
    endloop
  endfacet
  facet normal -0.453991 0.891006 0
    outer loop
      vertex 0.9116 12.1944 0.55
      vertex 1.73397 12.6134 -5
      vertex 0.9116 12.1944 -5
    endloop
  endfacet
  facet normal 0.453991 0.891006 -0
    outer loop
      vertex -0.9116 12.1944 -5
      vertex -1.73397 12.6134 0.55
      vertex -0.9116 12.1944 0.55
    endloop
  endfacet
  facet normal 0.453991 0.891006 0
    outer loop
      vertex -1.73397 12.6134 0.55
      vertex -0.9116 12.1944 -5
      vertex -1.73397 12.6134 -5
    endloop
  endfacet
  facet normal -0.707107 0.707107 0
    outer loop
      vertex 1.73397 12.6134 -5
      vertex 2.3866 13.266 0.55
      vertex 2.3866 13.266 -5
    endloop
  endfacet
  facet normal -0.707107 0.707107 0
    outer loop
      vertex 2.3866 13.266 0.55
      vertex 1.73397 12.6134 -5
      vertex 1.73397 12.6134 0.55
    endloop
  endfacet
  facet normal -1 0 0
    outer loop
      vertex -8 -9.5 -5
      vertex -8 23.5 5
      vertex -8 23.5 -5
    endloop
  endfacet
  facet normal -1 -0 0
    outer loop
      vertex -8 23.5 5
      vertex -8 -9.5 -5
      vertex -8 -9.5 5
    endloop
  endfacet
  facet normal 0 0 1
    outer loop
      vertex 8 23.5 5
      vertex 6 1 5
      vertex 8 -9.5 5
    endloop
  endfacet
  facet normal 0 0 1
    outer loop
      vertex 8 23.5 5
      vertex 5.125 15 5
      vertex 6 1 5
    endloop
  endfacet
  facet normal 0 0 1
    outer loop
      vertex 8 23.5 5
      vertex 2.5625 19.4384 5
      vertex 5.125 15 5
    endloop
  endfacet
  facet normal 0 0 1
    outer loop
      vertex 8 23.5 5
      vertex -2.5625 19.4384 5
      vertex 2.5625 19.4384 5
    endloop
  endfacet
  facet normal 0 0 1
    outer loop
      vertex -5.125 15 5
      vertex -8 23.5 5
      vertex -6 1 5
    endloop
  endfacet
  facet normal 0 0 1
    outer loop
      vertex -2.5625 19.4384 5
      vertex -8 23.5 5
      vertex -5.125 15 5
    endloop
  endfacet
  facet normal -0 0 1
    outer loop
      vertex -8 23.5 5
      vertex -2.5625 19.4384 5
      vertex 8 23.5 5
    endloop
  endfacet
  facet normal -0 0 1
    outer loop
      vertex 3 -4.19615 5
      vertex 8 -9.5 5
      vertex 6 1 5
    endloop
  endfacet
  facet normal -0 0 1
    outer loop
      vertex -3 -4.19615 5
      vertex 8 -9.5 5
      vertex 3 -4.19615 5
    endloop
  endfacet
  facet normal 0 0 1
    outer loop
      vertex -3 -4.19615 5
      vertex -8 -9.5 5
      vertex 8 -9.5 5
    endloop
  endfacet
  facet normal 0 0 1
    outer loop
      vertex -6 1 5
      vertex -8 -9.5 5
      vertex -3 -4.19615 5
    endloop
  endfacet
  facet normal 0 0 1
    outer loop
      vertex -8 -9.5 5
      vertex -6 1 5
      vertex -8 23.5 5
    endloop
  endfacet
  facet normal 0 0 1
    outer loop
      vertex 5.125 15 5
      vertex 3 6.19615 5
      vertex 6 1 5
    endloop
  endfacet
  facet normal -0 0 1
    outer loop
      vertex 2.5625 10.5616 5
      vertex 3 6.19615 5
      vertex 5.125 15 5
    endloop
  endfacet
  facet normal -0 0 1
    outer loop
      vertex -2.5625 10.5616 5
      vertex 3 6.19615 5
      vertex 2.5625 10.5616 5
    endloop
  endfacet
  facet normal 0 0 1
    outer loop
      vertex -2.5625 10.5616 5
      vertex -3 6.19615 5
      vertex 3 6.19615 5
    endloop
  endfacet
  facet normal 0 0 1
    outer loop
      vertex -5.125 15 5
      vertex -3 6.19615 5
      vertex -2.5625 10.5616 5
    endloop
  endfacet
  facet normal 0 0 1
    outer loop
      vertex -3 6.19615 5
      vertex -5.125 15 5
      vertex -6 1 5
    endloop
  endfacet
  facet normal 1 -0 0
    outer loop
      vertex 8 -9.5 5
      vertex 8 23.5 -5
      vertex 8 23.5 5
    endloop
  endfacet
  facet normal 1 0 0
    outer loop
      vertex 8 23.5 -5
      vertex 8 -9.5 5
      vertex 8 -9.5 -5
    endloop
  endfacet
  facet normal 0 1 -0
    outer loop
      vertex 8 23.5 -5
      vertex -8 23.5 5
      vertex 8 23.5 5
    endloop
  endfacet
  facet normal 0 1 0
    outer loop
      vertex -8 23.5 5
      vertex 8 23.5 -5
      vertex -8 23.5 -5
    endloop
  endfacet
  facet normal 0 0 -1
    outer loop
      vertex 8 23.5 -5
      vertex 2.80562 14.0884 -5
      vertex 2.95 15 -5
    endloop
  endfacet
  facet normal 0 0 -1
    outer loop
      vertex 2.6293 2.9103 -5
      vertex 2.80562 14.0884 -5
      vertex 3.09093 2.0043 -5
    endloop
  endfacet
  facet normal 0 0 -1
    outer loop
      vertex 2.6293 2.9103 -5
      vertex 2.3866 13.266 -5
      vertex 2.80562 14.0884 -5
    endloop
  endfacet
  facet normal 0 0 -1
    outer loop
      vertex 1.9103 3.6293 -5
      vertex 2.3866 13.266 -5
      vertex 2.6293 2.9103 -5
    endloop
  endfacet
  facet normal 0 0 -1
    outer loop
      vertex 1.9103 3.6293 -5
      vertex 1.73397 12.6134 -5
      vertex 2.3866 13.266 -5
    endloop
  endfacet
  facet normal 0 0 -1
    outer loop
      vertex 1.0043 4.09093 -5
      vertex 1.73397 12.6134 -5
      vertex 1.9103 3.6293 -5
    endloop
  endfacet
  facet normal 0 0 -1
    outer loop
      vertex 1.0043 4.09093 -5
      vertex 0.9116 12.1944 -5
      vertex 1.73397 12.6134 -5
    endloop
  endfacet
  facet normal 0 0 -1
    outer loop
      vertex 0 4.25 -5
      vertex 0.9116 12.1944 -5
      vertex 1.0043 4.09093 -5
    endloop
  endfacet
  facet normal 0 0 -1
    outer loop
      vertex 0 4.25 -5
      vertex 0 12.05 -5
      vertex 0.9116 12.1944 -5
    endloop
  endfacet
  facet normal 0 0 -1
    outer loop
      vertex 0 4.25 -5
      vertex -0.9116 12.1944 -5
      vertex 0 12.05 -5
    endloop
  endfacet
  facet normal 0 0 -1
    outer loop
      vertex -1.0043 4.09093 -5
      vertex -0.9116 12.1944 -5
      vertex 0 4.25 -5
    endloop
  endfacet
  facet normal 0 0 -1
    outer loop
      vertex -1.0043 4.09093 -5
      vertex -1.73397 12.6134 -5
      vertex -0.9116 12.1944 -5
    endloop
  endfacet
  facet normal 0 0 -1
    outer loop
      vertex -1.9103 3.6293 -5
      vertex -1.73397 12.6134 -5
      vertex -1.0043 4.09093 -5
    endloop
  endfacet
  facet normal 0 0 -1
    outer loop
      vertex -1.9103 3.6293 -5
      vertex -2.3866 13.266 -5
      vertex -1.73397 12.6134 -5
    endloop
  endfacet
  facet normal 0 0 -1
    outer loop
      vertex -2.6293 2.9103 -5
      vertex -2.3866 13.266 -5
      vertex -1.9103 3.6293 -5
    endloop
  endfacet
  facet normal 0 0 -1
    outer loop
      vertex -2.6293 2.9103 -5
      vertex -2.80562 14.0884 -5
      vertex -2.3866 13.266 -5
    endloop
  endfacet
  facet normal 0 0 -1
    outer loop
      vertex -3.09093 2.0043 -5
      vertex -2.80562 14.0884 -5
      vertex -2.6293 2.9103 -5
    endloop
  endfacet
  facet normal 0 0 -1
    outer loop
      vertex -8 23.5 -5
      vertex -2.80562 14.0884 -5
      vertex -3.09093 2.0043 -5
    endloop
  endfacet
  facet normal 0 0 -1
    outer loop
      vertex 3.09093 2.0043 -5
      vertex 8 -9.5 -5
      vertex 3.25 1 -5
    endloop
  endfacet
  facet normal 0 0 -1
    outer loop
      vertex 8 -9.5 -5
      vertex 3.09093 -0.00430489 -5
      vertex 3.25 1 -5
    endloop
  endfacet
  facet normal 0 0 -1
    outer loop
      vertex 8 -9.5 -5
      vertex 2.6293 -0.910301 -5
      vertex 3.09093 -0.00430489 -5
    endloop
  endfacet
  facet normal 0 0 -1
    outer loop
      vertex 8 -9.5 -5
      vertex 1.9103 -1.6293 -5
      vertex 2.6293 -0.910301 -5
    endloop
  endfacet
  facet normal 0 0 -1
    outer loop
      vertex 8 -9.5 -5
      vertex 1.0043 -2.09093 -5
      vertex 1.9103 -1.6293 -5
    endloop
  endfacet
  facet normal 0 0 -1
    outer loop
      vertex 8 -9.5 -5
      vertex 0 -2.25 -5
      vertex 1.0043 -2.09093 -5
    endloop
  endfacet
  facet normal 0 0 -1
    outer loop
      vertex -8 -9.5 -5
      vertex 0 -2.25 -5
      vertex 8 -9.5 -5
    endloop
  endfacet
  facet normal -0 0 -1
    outer loop
      vertex 0 -2.25 -5
      vertex -8 -9.5 -5
      vertex -1.0043 -2.09093 -5
    endloop
  endfacet
  facet normal -0 0 -1
    outer loop
      vertex -3.09093 -0.00430489 -5
      vertex -8 -9.5 -5
      vertex -3.25 1 -5
    endloop
  endfacet
  facet normal -0 0 -1
    outer loop
      vertex -2.6293 -0.910301 -5
      vertex -8 -9.5 -5
      vertex -3.09093 -0.00430489 -5
    endloop
  endfacet
  facet normal -0 0 -1
    outer loop
      vertex -1.9103 -1.6293 -5
      vertex -8 -9.5 -5
      vertex -2.6293 -0.910301 -5
    endloop
  endfacet
  facet normal -0 0 -1
    outer loop
      vertex -1.0043 -2.09093 -5
      vertex -8 -9.5 -5
      vertex -1.9103 -1.6293 -5
    endloop
  endfacet
  facet normal 0 0 -1
    outer loop
      vertex 8 -9.5 -5
      vertex 3.09093 2.0043 -5
      vertex 8 23.5 -5
    endloop
  endfacet
  facet normal 0 0 -1
    outer loop
      vertex 2.80562 14.0884 -5
      vertex 8 23.5 -5
      vertex 3.09093 2.0043 -5
    endloop
  endfacet
  facet normal 0 0 -1
    outer loop
      vertex 2.80562 15.9116 -5
      vertex 8 23.5 -5
      vertex 2.95 15 -5
    endloop
  endfacet
  facet normal 0 0 -1
    outer loop
      vertex 2.3866 16.734 -5
      vertex 8 23.5 -5
      vertex 2.80562 15.9116 -5
    endloop
  endfacet
  facet normal 0 0 -1
    outer loop
      vertex 1.73397 17.3866 -5
      vertex 8 23.5 -5
      vertex 2.3866 16.734 -5
    endloop
  endfacet
  facet normal 0 0 -1
    outer loop
      vertex 0.9116 17.8056 -5
      vertex 8 23.5 -5
      vertex 1.73397 17.3866 -5
    endloop
  endfacet
  facet normal 0 0 -1
    outer loop
      vertex 0 17.95 -5
      vertex 8 23.5 -5
      vertex 0.9116 17.8056 -5
    endloop
  endfacet
  facet normal 0 0 -1
    outer loop
      vertex -8 23.5 -5
      vertex 0 17.95 -5
      vertex -0.9116 17.8056 -5
    endloop
  endfacet
  facet normal 0 0 -1
    outer loop
      vertex -8 23.5 -5
      vertex -0.9116 17.8056 -5
      vertex -1.73397 17.3866 -5
    endloop
  endfacet
  facet normal 0 0 -1
    outer loop
      vertex -8 -9.5 -5
      vertex -3.09093 2.0043 -5
      vertex -3.25 1 -5
    endloop
  endfacet
  facet normal -0 0 -1
    outer loop
      vertex -3.09093 2.0043 -5
      vertex -8 -9.5 -5
      vertex -8 23.5 -5
    endloop
  endfacet
  facet normal 0 0 -1
    outer loop
      vertex -2.80562 14.0884 -5
      vertex -8 23.5 -5
      vertex -2.95 15 -5
    endloop
  endfacet
  facet normal 0 0 -1
    outer loop
      vertex 0 17.95 -5
      vertex -8 23.5 -5
      vertex 8 23.5 -5
    endloop
  endfacet
  facet normal 0 0 -1
    outer loop
      vertex -2.3866 16.734 -5
      vertex -8 23.5 -5
      vertex -1.73397 17.3866 -5
    endloop
  endfacet
  facet normal 0 0 -1
    outer loop
      vertex -2.80562 15.9116 -5
      vertex -8 23.5 -5
      vertex -2.3866 16.734 -5
    endloop
  endfacet
  facet normal 0 0 -1
    outer loop
      vertex -2.95 15 -5
      vertex -8 23.5 -5
      vertex -2.80562 15.9116 -5
    endloop
  endfacet
  facet normal 0 -1 0
    outer loop
      vertex -8 -9.5 -5
      vertex 8 -9.5 5
      vertex -8 -9.5 5
    endloop
  endfacet
  facet normal 0 -1 -0
    outer loop
      vertex 8 -9.5 5
      vertex -8 -9.5 -5
      vertex 8 -9.5 -5
    endloop
  endfacet
  facet normal -1.92296e-016 -0.5 0.866025
    outer loop
      vertex 22.05 6.19615 1.11021e-017
      vertex 27 1 -3
      vertex 27 6.19615 1.11022e-015
    endloop
  endfacet
  facet normal 0 -0.5 0.866025
    outer loop
      vertex 27 1 -3
      vertex 22.05 6.19615 1.11021e-017
      vertex 22.05 1 -3
    endloop
  endfacet
  facet normal 0 -0.5 -0.866025
    outer loop
      vertex 22.05 1 9
      vertex 27 6.19615 6
      vertex 27 1 9
    endloop
  endfacet
  facet normal -0 -0.5 -0.866025
    outer loop
      vertex 27 6.19615 6
      vertex 22.05 1 9
      vertex 22.05 6.19615 6
    endloop
  endfacet
  facet normal 0 -1 0
    outer loop
      vertex 22.05 6.19615 6
      vertex 27 6.19615 1.11022e-015
      vertex 27 6.19615 6
    endloop
  endfacet
  facet normal -0 -1 0
    outer loop
      vertex 27 6.19615 1.11022e-015
      vertex 22.05 6.19615 6
      vertex 22.05 6.19615 1.11021e-017
    endloop
  endfacet
  facet normal -0 0.5 0.866025
    outer loop
      vertex 22.05 1 -3
      vertex 27 -4.19615 1.11022e-015
      vertex 27 1 -3
    endloop
  endfacet
  facet normal -1.92296e-016 0.5 0.866025
    outer loop
      vertex 27 -4.19615 1.11022e-015
      vertex 22.05 1 -3
      vertex 22.05 -4.19615 1.11021e-017
    endloop
  endfacet
  facet normal 1 0 0
    outer loop
      vertex 22.05 6.19615 6
      vertex 22.05 4.25 3
      vertex 22.05 6.19615 1.11021e-017
    endloop
  endfacet
  facet normal 1 0 0
    outer loop
      vertex 22.05 6.19615 6
      vertex 22.05 4.09093 4.0043
      vertex 22.05 4.25 3
    endloop
  endfacet
  facet normal 1 0 0
    outer loop
      vertex 22.05 6.19615 6
      vertex 22.05 3.6293 4.9103
      vertex 22.05 4.09093 4.0043
    endloop
  endfacet
  facet normal 1 0 0
    outer loop
      vertex 22.05 6.19615 6
      vertex 22.05 2.9103 5.6293
      vertex 22.05 3.6293 4.9103
    endloop
  endfacet
  facet normal 1 0 0
    outer loop
      vertex 22.05 1 9
      vertex 22.05 2.9103 5.6293
      vertex 22.05 6.19615 6
    endloop
  endfacet
  facet normal 1 0 0
    outer loop
      vertex 22.05 2.9103 5.6293
      vertex 22.05 1 9
      vertex 22.05 2.0043 6.09093
    endloop
  endfacet
  facet normal 1 0 0
    outer loop
      vertex 22.05 1 9
      vertex 22.05 1 6.25
      vertex 22.05 2.0043 6.09093
    endloop
  endfacet
  facet normal 1 0 0
    outer loop
      vertex 22.05 1 9
      vertex 22.05 -0.00430489 6.09093
      vertex 22.05 1 6.25
    endloop
  endfacet
  facet normal 1 0 0
    outer loop
      vertex 22.05 1 9
      vertex 22.05 -0.910301 5.6293
      vertex 22.05 -0.00430489 6.09093
    endloop
  endfacet
  facet normal 1 -0 0
    outer loop
      vertex 22.05 -4.19615 6
      vertex 22.05 -0.910301 5.6293
      vertex 22.05 1 9
    endloop
  endfacet
  facet normal 1 0 0
    outer loop
      vertex 22.05 -2.09093 4.0043
      vertex 22.05 -4.19615 6
      vertex 22.05 -2.25 3
    endloop
  endfacet
  facet normal 1 0 0
    outer loop
      vertex 22.05 -1.6293 4.9103
      vertex 22.05 -4.19615 6
      vertex 22.05 -2.09093 4.0043
    endloop
  endfacet
  facet normal 1 0 0
    outer loop
      vertex 22.05 -0.910301 5.6293
      vertex 22.05 -4.19615 6
      vertex 22.05 -1.6293 4.9103
    endloop
  endfacet
  facet normal 1 -0 0
    outer loop
      vertex 22.05 4.09093 1.9957
      vertex 22.05 6.19615 1.11021e-017
      vertex 22.05 4.25 3
    endloop
  endfacet
  facet normal 1 -0 0
    outer loop
      vertex 22.05 3.6293 1.0897
      vertex 22.05 6.19615 1.11021e-017
      vertex 22.05 4.09093 1.9957
    endloop
  endfacet
  facet normal 1 -0 0
    outer loop
      vertex 22.05 2.9103 0.370695
      vertex 22.05 6.19615 1.11021e-017
      vertex 22.05 3.6293 1.0897
    endloop
  endfacet
  facet normal 1 0 0
    outer loop
      vertex 22.05 1 -3
      vertex 22.05 2.9103 0.370695
      vertex 22.05 2.0043 -0.0909328
    endloop
  endfacet
  facet normal 1 0 0
    outer loop
      vertex 22.05 1 -3
      vertex 22.05 2.0043 -0.0909328
      vertex 22.05 1 -0.25
    endloop
  endfacet
  facet normal 1 0 0
    outer loop
      vertex 22.05 2.9103 0.370695
      vertex 22.05 1 -3
      vertex 22.05 6.19615 1.11021e-017
    endloop
  endfacet
  facet normal 1 0 0
    outer loop
      vertex 22.05 -0.00430489 -0.0909328
      vertex 22.05 1 -3
      vertex 22.05 1 -0.25
    endloop
  endfacet
  facet normal 1 0 0
    outer loop
      vertex 22.05 -0.910301 0.370695
      vertex 22.05 1 -3
      vertex 22.05 -0.00430489 -0.0909328
    endloop
  endfacet
  facet normal 1 0 0
    outer loop
      vertex 22.05 -4.19615 1.11021e-017
      vertex 22.05 -0.910301 0.370695
      vertex 22.05 -1.6293 1.0897
    endloop
  endfacet
  facet normal 1 0 0
    outer loop
      vertex 22.05 -4.19615 1.11021e-017
      vertex 22.05 -2.25 3
      vertex 22.05 -4.19615 6
    endloop
  endfacet
  facet normal 1 0 0
    outer loop
      vertex 22.05 -2.25 3
      vertex 22.05 -4.19615 1.11021e-017
      vertex 22.05 -2.09093 1.9957
    endloop
  endfacet
  facet normal 1 0 0
    outer loop
      vertex 22.05 -0.910301 0.370695
      vertex 22.05 -4.19615 1.11021e-017
      vertex 22.05 1 -3
    endloop
  endfacet
  facet normal 1 0 0
    outer loop
      vertex 22.05 -2.09093 1.9957
      vertex 22.05 -4.19615 1.11021e-017
      vertex 22.05 -1.6293 1.0897
    endloop
  endfacet
  facet normal 0 1 -0
    outer loop
      vertex 27 -4.19615 1.11022e-015
      vertex 22.05 -4.19615 6
      vertex 27 -4.19615 6
    endloop
  endfacet
  facet normal 0 1 0
    outer loop
      vertex 22.05 -4.19615 6
      vertex 27 -4.19615 1.11022e-015
      vertex 22.05 -4.19615 1.11021e-017
    endloop
  endfacet
  facet normal 0 0.5 -0.866025
    outer loop
      vertex 22.05 -4.19615 6
      vertex 27 1 9
      vertex 27 -4.19615 6
    endloop
  endfacet
  facet normal 0 0.5 -0.866025
    outer loop
      vertex 27 1 9
      vertex 22.05 -4.19615 6
      vertex 22.05 1 9
    endloop
  endfacet
  facet normal 0 -0.156435 0.987688
    outer loop
      vertex 17 2.0043 -0.0909328
      vertex 22.05 1 -0.25
      vertex 22.05 2.0043 -0.0909328
    endloop
  endfacet
  facet normal 0 -0.156435 0.987688
    outer loop
      vertex 22.05 1 -0.25
      vertex 17 2.0043 -0.0909328
      vertex 17 1 -0.25
    endloop
  endfacet
  facet normal 0 -0.156435 -0.987688
    outer loop
      vertex 17 1 6.25
      vertex 22.05 2.0043 6.09093
      vertex 22.05 1 6.25
    endloop
  endfacet
  facet normal -0 -0.156435 -0.987688
    outer loop
      vertex 22.05 2.0043 6.09093
      vertex 17 1 6.25
      vertex 17 2.0043 6.09093
    endloop
  endfacet
  facet normal 0 -0.987688 0.156435
    outer loop
      vertex 17 4.09093 1.9957
      vertex 22.05 4.25 3
      vertex 17 4.25 3
    endloop
  endfacet
  facet normal 0 -0.987688 0.156435
    outer loop
      vertex 22.05 4.25 3
      vertex 17 4.09093 1.9957
      vertex 22.05 4.09093 1.9957
    endloop
  endfacet
  facet normal 0 0.987688 -0.156435
    outer loop
      vertex 22.05 -2.25 3
      vertex 17 -2.09093 4.0043
      vertex 22.05 -2.09093 4.0043
    endloop
  endfacet
  facet normal 0 0.987688 -0.156435
    outer loop
      vertex 17 -2.09093 4.0043
      vertex 22.05 -2.25 3
      vertex 17 -2.25 3
    endloop
  endfacet
  facet normal 0 -0.707107 0.707107
    outer loop
      vertex 17 2.9103 0.370695
      vertex 22.05 3.6293 1.0897
      vertex 17 3.6293 1.0897
    endloop
  endfacet
  facet normal 0 -0.707107 0.707107
    outer loop
      vertex 22.05 3.6293 1.0897
      vertex 17 2.9103 0.370695
      vertex 22.05 2.9103 0.370695
    endloop
  endfacet
  facet normal 0 -0.45399 0.891007
    outer loop
      vertex 17 2.9103 0.370695
      vertex 22.05 2.0043 -0.0909328
      vertex 22.05 2.9103 0.370695
    endloop
  endfacet
  facet normal 0 -0.45399 0.891007
    outer loop
      vertex 22.05 2.0043 -0.0909328
      vertex 17 2.9103 0.370695
      vertex 17 2.0043 -0.0909328
    endloop
  endfacet
  facet normal 0 -0.891007 0.45399
    outer loop
      vertex 17 3.6293 1.0897
      vertex 22.05 4.09093 1.9957
      vertex 17 4.09093 1.9957
    endloop
  endfacet
  facet normal 0 -0.891007 0.45399
    outer loop
      vertex 22.05 4.09093 1.9957
      vertex 17 3.6293 1.0897
      vertex 22.05 3.6293 1.0897
    endloop
  endfacet
  facet normal 0 -0.891007 -0.45399
    outer loop
      vertex 17 4.09093 4.0043
      vertex 22.05 3.6293 4.9103
      vertex 17 3.6293 4.9103
    endloop
  endfacet
  facet normal 0 -0.891007 -0.45399
    outer loop
      vertex 22.05 3.6293 4.9103
      vertex 17 4.09093 4.0043
      vertex 22.05 4.09093 4.0043
    endloop
  endfacet
  facet normal 0 -0.707107 -0.707107
    outer loop
      vertex 17 3.6293 4.9103
      vertex 22.05 2.9103 5.6293
      vertex 17 2.9103 5.6293
    endloop
  endfacet
  facet normal 0 -0.707107 -0.707107
    outer loop
      vertex 22.05 2.9103 5.6293
      vertex 17 3.6293 4.9103
      vertex 22.05 3.6293 4.9103
    endloop
  endfacet
  facet normal 0 -0.987688 -0.156435
    outer loop
      vertex 17 4.25 3
      vertex 22.05 4.09093 4.0043
      vertex 17 4.09093 4.0043
    endloop
  endfacet
  facet normal 0 -0.987688 -0.156435
    outer loop
      vertex 22.05 4.09093 4.0043
      vertex 17 4.25 3
      vertex 22.05 4.25 3
    endloop
  endfacet
  facet normal -0 0.45399 0.891007
    outer loop
      vertex 17 -0.00430489 -0.0909328
      vertex 22.05 -0.910301 0.370695
      vertex 22.05 -0.00430489 -0.0909328
    endloop
  endfacet
  facet normal 0 0.45399 0.891007
    outer loop
      vertex 22.05 -0.910301 0.370695
      vertex 17 -0.00430489 -0.0909328
      vertex 17 -0.910301 0.370695
    endloop
  endfacet
  facet normal 0 0.707107 -0.707107
    outer loop
      vertex 22.05 -1.6293 4.9103
      vertex 17 -0.910301 5.6293
      vertex 22.05 -0.910301 5.6293
    endloop
  endfacet
  facet normal 0 0.707107 -0.707107
    outer loop
      vertex 17 -0.910301 5.6293
      vertex 22.05 -1.6293 4.9103
      vertex 17 -1.6293 4.9103
    endloop
  endfacet
  facet normal 0 0.156435 -0.987688
    outer loop
      vertex 17 -0.00430489 6.09093
      vertex 22.05 1 6.25
      vertex 22.05 -0.00430489 6.09093
    endloop
  endfacet
  facet normal 0 0.156435 -0.987688
    outer loop
      vertex 22.05 1 6.25
      vertex 17 -0.00430489 6.09093
      vertex 17 1 6.25
    endloop
  endfacet
  facet normal 0 -0.45399 -0.891007
    outer loop
      vertex 17 2.0043 6.09093
      vertex 22.05 2.9103 5.6293
      vertex 22.05 2.0043 6.09093
    endloop
  endfacet
  facet normal -0 -0.45399 -0.891007
    outer loop
      vertex 22.05 2.9103 5.6293
      vertex 17 2.0043 6.09093
      vertex 17 2.9103 5.6293
    endloop
  endfacet
  facet normal -0 0.156435 0.987688
    outer loop
      vertex 17 1 -0.25
      vertex 22.05 -0.00430489 -0.0909328
      vertex 22.05 1 -0.25
    endloop
  endfacet
  facet normal 0 0.156435 0.987688
    outer loop
      vertex 22.05 -0.00430489 -0.0909328
      vertex 17 1 -0.25
      vertex 17 -0.00430489 -0.0909328
    endloop
  endfacet
  facet normal 0 0.987688 0.156435
    outer loop
      vertex 22.05 -2.09093 1.9957
      vertex 17 -2.25 3
      vertex 22.05 -2.25 3
    endloop
  endfacet
  facet normal 0 0.987688 0.156435
    outer loop
      vertex 17 -2.25 3
      vertex 22.05 -2.09093 1.9957
      vertex 17 -2.09093 1.9957
    endloop
  endfacet
  facet normal 0 0.707107 0.707107
    outer loop
      vertex 22.05 -0.910301 0.370695
      vertex 17 -1.6293 1.0897
      vertex 22.05 -1.6293 1.0897
    endloop
  endfacet
  facet normal 0 0.707107 0.707107
    outer loop
      vertex 17 -1.6293 1.0897
      vertex 22.05 -0.910301 0.370695
      vertex 17 -0.910301 0.370695
    endloop
  endfacet
  facet normal 0 0.891007 -0.45399
    outer loop
      vertex 22.05 -2.09093 4.0043
      vertex 17 -1.6293 4.9103
      vertex 22.05 -1.6293 4.9103
    endloop
  endfacet
  facet normal 0 0.891007 -0.45399
    outer loop
      vertex 17 -1.6293 4.9103
      vertex 22.05 -2.09093 4.0043
      vertex 17 -2.09093 4.0043
    endloop
  endfacet
  facet normal 0 0.45399 -0.891007
    outer loop
      vertex 17 -0.910301 5.6293
      vertex 22.05 -0.00430489 6.09093
      vertex 22.05 -0.910301 5.6293
    endloop
  endfacet
  facet normal 0 0.45399 -0.891007
    outer loop
      vertex 22.05 -0.00430489 6.09093
      vertex 17 -0.910301 5.6293
      vertex 17 -0.00430489 6.09093
    endloop
  endfacet
  facet normal 0 0.891007 0.45399
    outer loop
      vertex 22.05 -1.6293 1.0897
      vertex 17 -2.09093 1.9957
      vertex 22.05 -2.09093 1.9957
    endloop
  endfacet
  facet normal 0 0.891007 0.45399
    outer loop
      vertex 17 -2.09093 1.9957
      vertex 22.05 -1.6293 1.0897
      vertex 17 -1.6293 1.0897
    endloop
  endfacet
  facet normal 0 -0.5 0.866025
    outer loop
      vertex 22.55 19.4384 0.4375
      vertex 27 15 -2.125
      vertex 27 19.4384 0.4375
    endloop
  endfacet
  facet normal 0 -0.5 0.866025
    outer loop
      vertex 27 15 -2.125
      vertex 22.55 19.4384 0.4375
      vertex 22.55 15 -2.125
    endloop
  endfacet
  facet normal 0 -0.5 -0.866025
    outer loop
      vertex 22.55 15 8.125
      vertex 27 19.4384 5.5625
      vertex 27 15 8.125
    endloop
  endfacet
  facet normal -0 -0.5 -0.866025
    outer loop
      vertex 27 19.4384 5.5625
      vertex 22.55 15 8.125
      vertex 22.55 19.4384 5.5625
    endloop
  endfacet
  facet normal 0 -1 0
    outer loop
      vertex 22.55 19.4384 0.4375
      vertex 27 19.4384 5.5625
      vertex 22.55 19.4384 5.5625
    endloop
  endfacet
  facet normal 0 -1 -0
    outer loop
      vertex 27 19.4384 5.5625
      vertex 22.55 19.4384 0.4375
      vertex 27 19.4384 0.4375
    endloop
  endfacet
  facet normal -0 0.5 0.866025
    outer loop
      vertex 22.55 15 -2.125
      vertex 27 10.5616 0.4375
      vertex 27 15 -2.125
    endloop
  endfacet
  facet normal 0 0.5 0.866025
    outer loop
      vertex 27 10.5616 0.4375
      vertex 22.55 15 -2.125
      vertex 22.55 10.5616 0.4375
    endloop
  endfacet
  facet normal 1 0 0
    outer loop
      vertex 22.55 19.4384 5.5625
      vertex 22.55 17.95 3
      vertex 22.55 19.4384 0.4375
    endloop
  endfacet
  facet normal 1 0 0
    outer loop
      vertex 22.55 19.4384 5.5625
      vertex 22.55 17.8056 3.9116
      vertex 22.55 17.95 3
    endloop
  endfacet
  facet normal 1 0 0
    outer loop
      vertex 22.55 19.4384 5.5625
      vertex 22.55 17.3866 4.73397
      vertex 22.55 17.8056 3.9116
    endloop
  endfacet
  facet normal 1 0 0
    outer loop
      vertex 22.55 19.4384 5.5625
      vertex 22.55 16.734 5.3866
      vertex 22.55 17.3866 4.73397
    endloop
  endfacet
  facet normal 1 0 0
    outer loop
      vertex 22.55 15 8.125
      vertex 22.55 16.734 5.3866
      vertex 22.55 19.4384 5.5625
    endloop
  endfacet
  facet normal 1 0 0
    outer loop
      vertex 22.55 16.734 5.3866
      vertex 22.55 15 8.125
      vertex 22.55 15.9116 5.80562
    endloop
  endfacet
  facet normal 1 0 0
    outer loop
      vertex 22.55 15 8.125
      vertex 22.55 15 5.95
      vertex 22.55 15.9116 5.80562
    endloop
  endfacet
  facet normal 1 0 0
    outer loop
      vertex 22.55 15 8.125
      vertex 22.55 14.0884 5.80562
      vertex 22.55 15 5.95
    endloop
  endfacet
  facet normal 1 0 0
    outer loop
      vertex 22.55 15 8.125
      vertex 22.55 13.266 5.3866
      vertex 22.55 14.0884 5.80562
    endloop
  endfacet
  facet normal 1 -0 0
    outer loop
      vertex 22.55 10.5616 5.5625
      vertex 22.55 13.266 5.3866
      vertex 22.55 15 8.125
    endloop
  endfacet
  facet normal 1 0 0
    outer loop
      vertex 22.55 12.1944 3.9116
      vertex 22.55 10.5616 5.5625
      vertex 22.55 12.05 3
    endloop
  endfacet
  facet normal 1 0 0
    outer loop
      vertex 22.55 12.6134 4.73397
      vertex 22.55 10.5616 5.5625
      vertex 22.55 12.1944 3.9116
    endloop
  endfacet
  facet normal 1 0 0
    outer loop
      vertex 22.55 13.266 5.3866
      vertex 22.55 10.5616 5.5625
      vertex 22.55 12.6134 4.73397
    endloop
  endfacet
  facet normal 1 -0 0
    outer loop
      vertex 22.55 17.8056 2.0884
      vertex 22.55 19.4384 0.4375
      vertex 22.55 17.95 3
    endloop
  endfacet
  facet normal 1 -0 0
    outer loop
      vertex 22.55 17.3866 1.26603
      vertex 22.55 19.4384 0.4375
      vertex 22.55 17.8056 2.0884
    endloop
  endfacet
  facet normal 1 -0 0
    outer loop
      vertex 22.55 16.734 0.6134
      vertex 22.55 19.4384 0.4375
      vertex 22.55 17.3866 1.26603
    endloop
  endfacet
  facet normal 1 0 0
    outer loop
      vertex 22.55 15 -2.125
      vertex 22.55 16.734 0.6134
      vertex 22.55 15.9116 0.194384
    endloop
  endfacet
  facet normal 1 0 0
    outer loop
      vertex 22.55 15 -2.125
      vertex 22.55 15.9116 0.194384
      vertex 22.55 15 0.0500002
    endloop
  endfacet
  facet normal 1 0 0
    outer loop
      vertex 22.55 16.734 0.6134
      vertex 22.55 15 -2.125
      vertex 22.55 19.4384 0.4375
    endloop
  endfacet
  facet normal 1 0 0
    outer loop
      vertex 22.55 14.0884 0.194384
      vertex 22.55 15 -2.125
      vertex 22.55 15 0.0500002
    endloop
  endfacet
  facet normal 1 0 0
    outer loop
      vertex 22.55 13.266 0.6134
      vertex 22.55 15 -2.125
      vertex 22.55 14.0884 0.194384
    endloop
  endfacet
  facet normal 1 0 0
    outer loop
      vertex 22.55 10.5616 0.4375
      vertex 22.55 13.266 0.6134
      vertex 22.55 12.6134 1.26603
    endloop
  endfacet
  facet normal 1 0 0
    outer loop
      vertex 22.55 10.5616 0.4375
      vertex 22.55 12.05 3
      vertex 22.55 10.5616 5.5625
    endloop
  endfacet
  facet normal 1 0 0
    outer loop
      vertex 22.55 13.266 0.6134
      vertex 22.55 10.5616 0.4375
      vertex 22.55 15 -2.125
    endloop
  endfacet
  facet normal 1 0 0
    outer loop
      vertex 22.55 12.1944 2.0884
      vertex 22.55 10.5616 0.4375
      vertex 22.55 12.6134 1.26603
    endloop
  endfacet
  facet normal 1 0 0
    outer loop
      vertex 22.55 12.05 3
      vertex 22.55 10.5616 0.4375
      vertex 22.55 12.1944 2.0884
    endloop
  endfacet
  facet normal 0 1 -0
    outer loop
      vertex 27 10.5616 0.4375
      vertex 22.55 10.5616 5.5625
      vertex 27 10.5616 5.5625
    endloop
  endfacet
  facet normal 0 1 0
    outer loop
      vertex 22.55 10.5616 5.5625
      vertex 27 10.5616 0.4375
      vertex 22.55 10.5616 0.4375
    endloop
  endfacet
  facet normal 0 0.5 -0.866025
    outer loop
      vertex 22.55 10.5616 5.5625
      vertex 27 15 8.125
      vertex 27 10.5616 5.5625
    endloop
  endfacet
  facet normal 0 0.5 -0.866025
    outer loop
      vertex 27 15 8.125
      vertex 22.55 10.5616 5.5625
      vertex 22.55 15 8.125
    endloop
  endfacet
  facet normal 0 -0.156435 0.987688
    outer loop
      vertex 17 15.9116 0.194384
      vertex 22.55 15 0.0500002
      vertex 22.55 15.9116 0.194384
    endloop
  endfacet
  facet normal 0 -0.156435 0.987688
    outer loop
      vertex 22.55 15 0.0500002
      vertex 17 15.9116 0.194384
      vertex 17 15 0.0500002
    endloop
  endfacet
  facet normal 0 -0.156435 -0.987688
    outer loop
      vertex 17 15 5.95
      vertex 22.55 15.9116 5.80562
      vertex 22.55 15 5.95
    endloop
  endfacet
  facet normal -0 -0.156435 -0.987688
    outer loop
      vertex 22.55 15.9116 5.80562
      vertex 17 15 5.95
      vertex 17 15.9116 5.80562
    endloop
  endfacet
  facet normal 0 -0.987688 0.156436
    outer loop
      vertex 17 17.8056 2.0884
      vertex 22.55 17.95 3
      vertex 17 17.95 3
    endloop
  endfacet
  facet normal 0 -0.987688 0.156436
    outer loop
      vertex 22.55 17.95 3
      vertex 17 17.8056 2.0884
      vertex 22.55 17.8056 2.0884
    endloop
  endfacet
  facet normal 0 -0.707107 0.707107
    outer loop
      vertex 17 16.734 0.6134
      vertex 22.55 17.3866 1.26603
      vertex 17 17.3866 1.26603
    endloop
  endfacet
  facet normal 0 -0.707107 0.707107
    outer loop
      vertex 22.55 17.3866 1.26603
      vertex 17 16.734 0.6134
      vertex 22.55 16.734 0.6134
    endloop
  endfacet
  facet normal 0 -0.453991 0.891006
    outer loop
      vertex 17 16.734 0.6134
      vertex 22.55 15.9116 0.194384
      vertex 22.55 16.734 0.6134
    endloop
  endfacet
  facet normal 0 -0.453991 0.891006
    outer loop
      vertex 22.55 15.9116 0.194384
      vertex 17 16.734 0.6134
      vertex 17 15.9116 0.194384
    endloop
  endfacet
  facet normal 0 -0.891007 0.45399
    outer loop
      vertex 17 17.3866 1.26603
      vertex 22.55 17.8056 2.0884
      vertex 17 17.8056 2.0884
    endloop
  endfacet
  facet normal 0 -0.891007 0.45399
    outer loop
      vertex 22.55 17.8056 2.0884
      vertex 17 17.3866 1.26603
      vertex 22.55 17.3866 1.26603
    endloop
  endfacet
  facet normal 0 -0.891007 -0.45399
    outer loop
      vertex 17 17.8056 3.9116
      vertex 22.55 17.3866 4.73397
      vertex 17 17.3866 4.73397
    endloop
  endfacet
  facet normal 0 -0.891007 -0.45399
    outer loop
      vertex 22.55 17.3866 4.73397
      vertex 17 17.8056 3.9116
      vertex 22.55 17.8056 3.9116
    endloop
  endfacet
  facet normal 0 -0.987688 -0.156436
    outer loop
      vertex 17 17.95 3
      vertex 22.55 17.8056 3.9116
      vertex 17 17.8056 3.9116
    endloop
  endfacet
  facet normal 0 -0.987688 -0.156436
    outer loop
      vertex 22.55 17.8056 3.9116
      vertex 17 17.95 3
      vertex 22.55 17.95 3
    endloop
  endfacet
  facet normal 0 0.156435 -0.987688
    outer loop
      vertex 17 14.0884 5.80562
      vertex 22.55 15 5.95
      vertex 22.55 14.0884 5.80562
    endloop
  endfacet
  facet normal 0 0.156435 -0.987688
    outer loop
      vertex 22.55 15 5.95
      vertex 17 14.0884 5.80562
      vertex 17 15 5.95
    endloop
  endfacet
  facet normal 0 -0.707107 -0.707107
    outer loop
      vertex 17 17.3866 4.73397
      vertex 22.55 16.734 5.3866
      vertex 17 16.734 5.3866
    endloop
  endfacet
  facet normal 0 -0.707107 -0.707107
    outer loop
      vertex 22.55 16.734 5.3866
      vertex 17 17.3866 4.73397
      vertex 22.55 17.3866 4.73397
    endloop
  endfacet
  facet normal 0 -0.453991 -0.891006
    outer loop
      vertex 17 15.9116 5.80562
      vertex 22.55 16.734 5.3866
      vertex 22.55 15.9116 5.80562
    endloop
  endfacet
  facet normal -0 -0.453991 -0.891006
    outer loop
      vertex 22.55 16.734 5.3866
      vertex 17 15.9116 5.80562
      vertex 17 16.734 5.3866
    endloop
  endfacet
  facet normal -0 0.156435 0.987688
    outer loop
      vertex 17 15 0.0500002
      vertex 22.55 14.0884 0.194384
      vertex 22.55 15 0.0500002
    endloop
  endfacet
  facet normal 0 0.156435 0.987688
    outer loop
      vertex 22.55 14.0884 0.194384
      vertex 17 15 0.0500002
      vertex 17 14.0884 0.194384
    endloop
  endfacet
  facet normal 0 0.987688 0.156435
    outer loop
      vertex 22.55 12.1944 2.0884
      vertex 17 12.05 3
      vertex 22.55 12.05 3
    endloop
  endfacet
  facet normal 0 0.987688 0.156435
    outer loop
      vertex 17 12.05 3
      vertex 22.55 12.1944 2.0884
      vertex 17 12.1944 2.0884
    endloop
  endfacet
  facet normal -0 0.453991 0.891006
    outer loop
      vertex 17 14.0884 0.194384
      vertex 22.55 13.266 0.6134
      vertex 22.55 14.0884 0.194384
    endloop
  endfacet
  facet normal 0 0.453991 0.891006
    outer loop
      vertex 22.55 13.266 0.6134
      vertex 17 14.0884 0.194384
      vertex 17 13.266 0.6134
    endloop
  endfacet
  facet normal 0 0.707107 -0.707107
    outer loop
      vertex 22.55 12.6134 4.73397
      vertex 17 13.266 5.3866
      vertex 22.55 13.266 5.3866
    endloop
  endfacet
  facet normal 0 0.707107 -0.707107
    outer loop
      vertex 17 13.266 5.3866
      vertex 22.55 12.6134 4.73397
      vertex 17 12.6134 4.73397
    endloop
  endfacet
  facet normal 0 0.987688 -0.156435
    outer loop
      vertex 22.55 12.05 3
      vertex 17 12.1944 3.9116
      vertex 22.55 12.1944 3.9116
    endloop
  endfacet
  facet normal 0 0.987688 -0.156435
    outer loop
      vertex 17 12.1944 3.9116
      vertex 22.55 12.05 3
      vertex 17 12.05 3
    endloop
  endfacet
  facet normal 0 0.453991 -0.891006
    outer loop
      vertex 17 13.266 5.3866
      vertex 22.55 14.0884 5.80562
      vertex 22.55 13.266 5.3866
    endloop
  endfacet
  facet normal 0 0.453991 -0.891006
    outer loop
      vertex 22.55 14.0884 5.80562
      vertex 17 13.266 5.3866
      vertex 17 14.0884 5.80562
    endloop
  endfacet
  facet normal 0 0.891006 0.453991
    outer loop
      vertex 22.55 12.6134 1.26603
      vertex 17 12.1944 2.0884
      vertex 22.55 12.1944 2.0884
    endloop
  endfacet
  facet normal 0 0.891006 0.453991
    outer loop
      vertex 17 12.1944 2.0884
      vertex 22.55 12.6134 1.26603
      vertex 17 12.6134 1.26603
    endloop
  endfacet
  facet normal 0 0.891006 -0.453991
    outer loop
      vertex 22.55 12.1944 3.9116
      vertex 17 12.6134 4.73397
      vertex 22.55 12.6134 4.73397
    endloop
  endfacet
  facet normal 0 0.891006 -0.453991
    outer loop
      vertex 17 12.6134 4.73397
      vertex 22.55 12.1944 3.9116
      vertex 17 12.1944 3.9116
    endloop
  endfacet
  facet normal 0 0.707107 0.707107
    outer loop
      vertex 22.55 13.266 0.6134
      vertex 17 12.6134 1.26603
      vertex 22.55 12.6134 1.26603
    endloop
  endfacet
  facet normal 0 0.707107 0.707107
    outer loop
      vertex 17 12.6134 1.26603
      vertex 22.55 13.266 0.6134
      vertex 17 13.266 0.6134
    endloop
  endfacet
  facet normal -0 0 1
    outer loop
      vertex 17 23.5 11
      vertex 27 -9.5 11
      vertex 27 23.5 11
    endloop
  endfacet
  facet normal 0 0 1
    outer loop
      vertex 27 -9.5 11
      vertex 17 23.5 11
      vertex 17 -9.5 11
    endloop
  endfacet
  facet normal 1 0 0
    outer loop
      vertex 27 23.5 11
      vertex 27 19.4384 5.5625
      vertex 27 23.5 -5
    endloop
  endfacet
  facet normal 1 0 0
    outer loop
      vertex 27 23.5 11
      vertex 27 15 8.125
      vertex 27 19.4384 5.5625
    endloop
  endfacet
  facet normal 1 0 0
    outer loop
      vertex 27 10.5616 5.5625
      vertex 27 6.19615 6
      vertex 27 10.5616 0.4375
    endloop
  endfacet
  facet normal 1 0 0
    outer loop
      vertex 27 15 8.125
      vertex 27 6.19615 6
      vertex 27 10.5616 5.5625
    endloop
  endfacet
  facet normal 1 -0 0
    outer loop
      vertex 27 1 9
      vertex 27 15 8.125
      vertex 27 23.5 11
    endloop
  endfacet
  facet normal 1 0 0
    outer loop
      vertex 27 15 8.125
      vertex 27 1 9
      vertex 27 6.19615 6
    endloop
  endfacet
  facet normal 1 0 0
    outer loop
      vertex 27 -4.19615 6
      vertex 27 -9.5 11
      vertex 27 -4.19615 1.11022e-015
    endloop
  endfacet
  facet normal 1 0 0
    outer loop
      vertex 27 1 9
      vertex 27 -9.5 11
      vertex 27 -4.19615 6
    endloop
  endfacet
  facet normal 1 -0 0
    outer loop
      vertex 27 -9.5 11
      vertex 27 1 9
      vertex 27 23.5 11
    endloop
  endfacet
  facet normal 1 -0 0
    outer loop
      vertex 27 19.4384 0.4375
      vertex 27 23.5 -5
      vertex 27 19.4384 5.5625
    endloop
  endfacet
  facet normal 1 -0 0
    outer loop
      vertex 27 15 -2.125
      vertex 27 23.5 -5
      vertex 27 19.4384 0.4375
    endloop
  endfacet
  facet normal 1 0 0
    outer loop
      vertex 27 6.19615 1.11022e-015
      vertex 27 10.5616 0.4375
      vertex 27 6.19615 6
    endloop
  endfacet
  facet normal 1 -0 0
    outer loop
      vertex 27 6.19615 1.11022e-015
      vertex 27 15 -2.125
      vertex 27 10.5616 0.4375
    endloop
  endfacet
  facet normal 1 0 0
    outer loop
      vertex 27 1 -3
      vertex 27 15 -2.125
      vertex 27 6.19615 1.11022e-015
    endloop
  endfacet
  facet normal 1 0 0
    outer loop
      vertex 27 15 -2.125
      vertex 27 1 -3
      vertex 27 23.5 -5
    endloop
  endfacet
  facet normal 1 0 0
    outer loop
      vertex 27 1 -3
      vertex 27 -9.5 -5
      vertex 27 23.5 -5
    endloop
  endfacet
  facet normal 1 0 0
    outer loop
      vertex 27 -4.19615 1.11022e-015
      vertex 27 -9.5 -5
      vertex 27 1 -3
    endloop
  endfacet
  facet normal 1 0 0
    outer loop
      vertex 27 -9.5 -5
      vertex 27 -4.19615 1.11022e-015
      vertex 27 -9.5 11
    endloop
  endfacet
  facet normal 0 0 -1
    outer loop
      vertex 17 -9.5 -5
      vertex 27 23.5 -5
      vertex 27 -9.5 -5
    endloop
  endfacet
  facet normal -0 0 -1
    outer loop
      vertex 27 23.5 -5
      vertex 17 -9.5 -5
      vertex 17 23.5 -5
    endloop
  endfacet
  facet normal 0 1 -0
    outer loop
      vertex 27 23.5 -5
      vertex 17 23.5 11
      vertex 27 23.5 11
    endloop
  endfacet
  facet normal 0 1 0
    outer loop
      vertex 17 23.5 11
      vertex 27 23.5 -5
      vertex 17 23.5 -5
    endloop
  endfacet
  facet normal -1 0 0
    outer loop
      vertex 17 23.5 -5
      vertex 17 17.95 3
      vertex 17 23.5 11
    endloop
  endfacet
  facet normal -1 0 0
    outer loop
      vertex 17 23.5 -5
      vertex 17 17.8056 2.0884
      vertex 17 17.95 3
    endloop
  endfacet
  facet normal -1 0 0
    outer loop
      vertex 17 23.5 -5
      vertex 17 17.3866 1.26603
      vertex 17 17.8056 2.0884
    endloop
  endfacet
  facet normal -1 0 0
    outer loop
      vertex 17 23.5 -5
      vertex 17 16.734 0.6134
      vertex 17 17.3866 1.26603
    endloop
  endfacet
  facet normal -1 0 0
    outer loop
      vertex 17 23.5 -5
      vertex 17 15.9116 0.194384
      vertex 17 16.734 0.6134
    endloop
  endfacet
  facet normal -1 0 0
    outer loop
      vertex 17 23.5 -5
      vertex 17 15 0.0500002
      vertex 17 15.9116 0.194384
    endloop
  endfacet
  facet normal -1 0 0
    outer loop
      vertex 17 23.5 -5
      vertex 17 14.0884 0.194384
      vertex 17 15 0.0500002
    endloop
  endfacet
  facet normal -1 0 0
    outer loop
      vertex 17 2.0043 -0.0909328
      vertex 17 14.0884 0.194384
      vertex 17 23.5 -5
    endloop
  endfacet
  facet normal -1 0 0
    outer loop
      vertex 17 12.1944 2.0884
      vertex 17 4.25 3
      vertex 17 12.05 3
    endloop
  endfacet
  facet normal -1 0 0
    outer loop
      vertex 17 4.09093 1.9957
      vertex 17 12.1944 2.0884
      vertex 17 12.6134 1.26603
    endloop
  endfacet
  facet normal -1 0 0
    outer loop
      vertex 17 3.6293 1.0897
      vertex 17 12.6134 1.26603
      vertex 17 13.266 0.6134
    endloop
  endfacet
  facet normal -1 0 -0
    outer loop
      vertex 17 2.9103 0.370695
      vertex 17 14.0884 0.194384
      vertex 17 2.0043 -0.0909328
    endloop
  endfacet
  facet normal -1 -0 0
    outer loop
      vertex 17 12.1944 2.0884
      vertex 17 4.09093 1.9957
      vertex 17 4.25 3
    endloop
  endfacet
  facet normal -1 -0 0
    outer loop
      vertex 17 12.6134 1.26603
      vertex 17 3.6293 1.0897
      vertex 17 4.09093 1.9957
    endloop
  endfacet
  facet normal -1 -0 0
    outer loop
      vertex 17 13.266 0.6134
      vertex 17 2.9103 0.370695
      vertex 17 3.6293 1.0897
    endloop
  endfacet
  facet normal -1 0 0
    outer loop
      vertex 17 14.0884 0.194384
      vertex 17 2.9103 0.370695
      vertex 17 13.266 0.6134
    endloop
  endfacet
  facet normal -1 0 0
    outer loop
      vertex 17 -9.5 -5
      vertex 17 2.0043 -0.0909328
      vertex 17 23.5 -5
    endloop
  endfacet
  facet normal -1 0 0
    outer loop
      vertex 17 2.0043 -0.0909328
      vertex 17 -9.5 -5
      vertex 17 1 -0.25
    endloop
  endfacet
  facet normal -1 -0 0
    outer loop
      vertex 17 -2.09093 1.9957
      vertex 17 -9.5 -5
      vertex 17 -2.25 3
    endloop
  endfacet
  facet normal -1 -0 0
    outer loop
      vertex 17 -1.6293 1.0897
      vertex 17 -9.5 -5
      vertex 17 -2.09093 1.9957
    endloop
  endfacet
  facet normal -1 -0 0
    outer loop
      vertex 17 -0.910301 0.370695
      vertex 17 -9.5 -5
      vertex 17 -1.6293 1.0897
    endloop
  endfacet
  facet normal -1 -0 0
    outer loop
      vertex 17 -0.00430489 -0.0909328
      vertex 17 -9.5 -5
      vertex 17 -0.910301 0.370695
    endloop
  endfacet
  facet normal -1 -0 0
    outer loop
      vertex 17 1 -0.25
      vertex 17 -9.5 -5
      vertex 17 -0.00430489 -0.0909328
    endloop
  endfacet
  facet normal -1 0 0
    outer loop
      vertex 17 17.8056 3.9116
      vertex 17 23.5 11
      vertex 17 17.95 3
    endloop
  endfacet
  facet normal -1 0 0
    outer loop
      vertex 17 17.3866 4.73397
      vertex 17 23.5 11
      vertex 17 17.8056 3.9116
    endloop
  endfacet
  facet normal -1 0 0
    outer loop
      vertex 17 16.734 5.3866
      vertex 17 23.5 11
      vertex 17 17.3866 4.73397
    endloop
  endfacet
  facet normal -1 0 0
    outer loop
      vertex 17 15.9116 5.80562
      vertex 17 23.5 11
      vertex 17 16.734 5.3866
    endloop
  endfacet
  facet normal -1 0 0
    outer loop
      vertex 17 15 5.95
      vertex 17 23.5 11
      vertex 17 15.9116 5.80562
    endloop
  endfacet
  facet normal -1 0 0
    outer loop
      vertex 17 14.0884 5.80562
      vertex 17 23.5 11
      vertex 17 15 5.95
    endloop
  endfacet
  facet normal -1 0 0
    outer loop
      vertex 17 2.9103 5.6293
      vertex 17 14.0884 5.80562
      vertex 17 13.266 5.3866
    endloop
  endfacet
  facet normal -1 0 0
    outer loop
      vertex 17 4.25 3
      vertex 17 12.1944 3.9116
      vertex 17 12.05 3
    endloop
  endfacet
  facet normal -1 0 0
    outer loop
      vertex 17 4.09093 4.0043
      vertex 17 12.1944 3.9116
      vertex 17 4.25 3
    endloop
  endfacet
  facet normal -1 0 0
    outer loop
      vertex 17 12.1944 3.9116
      vertex 17 4.09093 4.0043
      vertex 17 12.6134 4.73397
    endloop
  endfacet
  facet normal -1 0 0
    outer loop
      vertex 17 3.6293 4.9103
      vertex 17 12.6134 4.73397
      vertex 17 4.09093 4.0043
    endloop
  endfacet
  facet normal -1 0 0
    outer loop
      vertex 17 12.6134 4.73397
      vertex 17 3.6293 4.9103
      vertex 17 13.266 5.3866
    endloop
  endfacet
  facet normal -1 0 0
    outer loop
      vertex 17 2.9103 5.6293
      vertex 17 13.266 5.3866
      vertex 17 3.6293 4.9103
    endloop
  endfacet
  facet normal -1 -0 0
    outer loop
      vertex 17 14.0884 5.80562
      vertex 17 2.9103 5.6293
      vertex 17 2.0043 6.09093
    endloop
  endfacet
  facet normal -1 0 0
    outer loop
      vertex 17 14.0884 5.80562
      vertex 17 2.0043 6.09093
      vertex 17 23.5 11
    endloop
  endfacet
  facet normal -1 0 0
    outer loop
      vertex 17 -9.5 11
      vertex 17 2.0043 6.09093
      vertex 17 1 6.25
    endloop
  endfacet
  facet normal -1 0 0
    outer loop
      vertex 17 -9.5 11
      vertex 17 1 6.25
      vertex 17 -0.00430489 6.09093
    endloop
  endfacet
  facet normal -1 0 0
    outer loop
      vertex 17 -9.5 11
      vertex 17 -2.25 3
      vertex 17 -9.5 -5
    endloop
  endfacet
  facet normal -1 0 0
    outer loop
      vertex 17 -2.25 3
      vertex 17 -9.5 11
      vertex 17 -2.09093 4.0043
    endloop
  endfacet
  facet normal -1 0 0
    outer loop
      vertex 17 2.0043 6.09093
      vertex 17 -9.5 11
      vertex 17 23.5 11
    endloop
  endfacet
  facet normal -1 0 0
    outer loop
      vertex 17 -0.910301 5.6293
      vertex 17 -9.5 11
      vertex 17 -0.00430489 6.09093
    endloop
  endfacet
  facet normal -1 0 0
    outer loop
      vertex 17 -1.6293 4.9103
      vertex 17 -9.5 11
      vertex 17 -0.910301 5.6293
    endloop
  endfacet
  facet normal -1 0 0
    outer loop
      vertex 17 -2.09093 4.0043
      vertex 17 -9.5 11
      vertex 17 -1.6293 4.9103
    endloop
  endfacet
  facet normal 0 -1 0
    outer loop
      vertex 17 -9.5 -5
      vertex 27 -9.5 11
      vertex 17 -9.5 11
    endloop
  endfacet
  facet normal 0 -1 -0
    outer loop
      vertex 27 -9.5 11
      vertex 17 -9.5 -5
      vertex 27 -9.5 -5
    endloop
  endfacet
endsolid OpenSCAD_Model
